<?xml version="1.0" encoding="UTF-8"?>
<svg version="1.1" xmlns="http://www.w3.org/2000/svg" width="2163" height="2374">
<path d="M0 0 C0.6632 -0.00029457 1.32639999 -0.00058914 2.00969696 -0.00089264 C50.89040574 -0.00439021 98.76072479 5.37069504 146.4375 16.25 C147.6234375 16.51893066 148.809375 16.78786133 150.03125 17.06494141 C189.983083 26.25993676 228.79326545 40.14266622 267.67449951 53.00543213 C271.27627028 54.19667518 274.87854263 55.38638858 278.48095703 56.57568359 C304.7008263 65.23594006 330.83478847 74.1092433 356.88749695 83.25941467 C367.60820391 87.01949573 378.35293519 90.70984506 389.0947876 94.40896606 C409.48393777 101.43231075 429.83917988 108.54359941 450.15893555 115.76513672 C465.73753285 121.30101496 481.33434089 126.7837574 496.9375 132.25 C513.51717853 138.05834588 530.08745924 143.89143308 546.64074707 149.77456665 C608.77946933 171.8489356 671.11404632 193.78378465 734.4375 212.25 C735.32042725 212.50785278 736.20335449 212.76570557 737.11303711 213.03137207 C822.66285737 237.96417376 911.10592224 257.11693973 1000.4375 260.25 C1001.61473633 260.29366699 1002.79197266 260.33733398 1004.00488281 260.38232422 C1086.07836457 263.38609547 1168.42873326 258.73294622 1443.65380859 152.51611328 C1445.39403984 151.28084922 1447.14308175 150.05913164 1448.89453125 148.83984375 C1462.26109718 139.48057733 1475.10909181 129.40595812 1487.48046875 118.76953125 C1490.34143367 116.33185308 1493.25386054 113.97434613 1496.1875 111.625 C1500.42536525 108.18058122 1504.30171539 104.53232378 1508.07421875 100.5859375 C1510.06725522 98.61596095 1512.0974853 96.80259745 1514.22265625 94.98046875 C1518.47979344 91.28531519 1522.34953585 87.31160935 1526.1875 83.1875 C1526.88141846 82.44580566 1527.57533691 81.70411133 1528.2902832 80.93994141 C1534.02439386 74.7732795 1539.52878603 68.43654227 1544.95458984 61.99902344 C1547.5884139 58.89255068 1550.26503238 55.8232192 1552.9375 52.75 C1556.1420109 49.06266978 1559.34098452 45.37155527 1562.50390625 41.6484375 C1568.84049537 34.19096521 1575.29128324 26.86872361 1582.01464844 19.75634766 C1583.39421574 18.29582428 1584.76368974 16.82578754 1586.1328125 15.35546875 C1592.21413825 9.00448177 1598.31506247 3.73003688 1607.4765625 3.01171875 C1617.79668736 2.79812139 1625.24312225 4.36367623 1632.9296875 11.49609375 C1637.55992551 16.88204418 1638.84197853 22.42490727 1638.7121582 29.38916016 C1638.18308754 34.89996015 1636.47375276 40.05240111 1634.8125 45.3125 C1634.41282567 46.60536318 1634.01350424 47.8983355 1633.61450195 49.19140625 C1624.75704503 77.65031862 1614.99298249 105.77077546 1603.4375 133.25 C1602.69064941 135.04244141 1602.69064941 135.04244141 1601.92871094 136.87109375 C1590.0074735 165.38468527 1576.72126481 193.37844998 1561.4375 220.25 C1560.57608398 221.77729736 1560.57608398 221.77729736 1559.69726562 223.33544922 C1539.33090015 259.39863357 1516.38341242 293.94724963 1490.4375 326.25 C1489.92864258 326.88502441 1489.41978516 327.52004883 1488.89550781 328.17431641 C1478.04909124 341.68783054 1466.88716634 354.82838448 1455.05493164 367.48901367 C1453.8844205 368.7634132 1452.72922095 370.0519327 1451.58374023 371.34887695 C1445.2548696 378.50501245 1438.57141672 385.26880755 1431.80786133 392.01000977 C1429.87139451 393.94109547 1427.94036044 395.87749882 1426.00976562 397.81445312 C1420.50104302 403.32614205 1415.01556241 408.81038664 1409.07299805 413.85961914 C1406.51456189 416.0346145 1404.08208756 418.33630026 1401.625 420.625 C1397.05452095 424.84274087 1392.3681113 428.8595264 1387.51953125 432.7578125 C1385.20585882 434.62869084 1382.91563421 436.51731879 1380.63671875 438.4296875 C1370.96473678 446.52556251 1361.02808379 454.14669118 1350.80615234 461.53417969 C1348.47388585 463.22364257 1346.15193843 464.9264304 1343.83203125 466.6328125 C1333.9313205 473.89041945 1323.82821158 480.71588823 1313.4375 487.25 C1312.64005371 487.75499023 1311.84260742 488.25998047 1311.02099609 488.78027344 C1232.79993353 538.24874071 1145.98736759 572.01333231 966.4375 601.25 C965.15101562 601.35296387 963.86453125 601.45592773 962.5390625 601.56201172 C920.75271074 604.83634054 878.2105978 604.67473367 836.4375 601.25 C835.66369995 601.18683594 834.8898999 601.12367188 834.09265137 601.05859375 C739.66189642 593.24006643 647.43875997 570.96116228 374.16015625 466.79882812 C346.69936625 455.62411752 319.21429358 444.51118673 291.6875 433.5 C290.88329746 433.17828953 290.07909492 432.85657906 289.25052261 432.52511978 C247.69838938 415.90566486 206.03551131 399.65085823 164.00048828 384.28662109 C159.46314901 382.62747802 154.93034481 380.95635262 150.3989563 379.28103638 C58.86449495 345.45827949 -38.69753113 309.71791778 -154.4375 307.9375 C-156.23199585 307.94073273 -156.23199585 307.94073273 -158.06274414 307.94403076 C-178.0393228 308.00144998 -197.74626999 308.68903151 -217.5625 311.25 C-218.31907898 311.34710266 -219.07565796 311.44420532 -219.85516357 311.54425049 C-304.13871401 322.48624933 -385.47962988 351.13660792 -460.85009766 389.97436523 C-472.43386309 395.88269557 -483.20155066 399.87781966 -496.3125 396.1875 C-504.98178991 392.7675049 -511.3343495 386.46346804 -515.5625 378.25 C-520.04357984 367.81489279 -516.11559836 356.73625201 -512.25 346.75 C-511.8070459 345.58291504 -511.3640918 344.41583008 -510.90771484 343.21337891 C-490.43663601 290.0882592 -463.10604742 237.93331676 -427.5625 193.25 C-427.04671387 192.59966797 -426.53092773 191.94933594 -425.99951172 191.27929688 C-416.36646087 179.18238025 -406.65392859 167.02588622 -395.55078125 156.23828125 C-393.72877714 154.41627714 -392.08377347 152.54219595 -390.4375 150.5625 C-385.25748512 144.52718033 -379.23755402 139.28407951 -373.38134766 133.92041016 C-371.79100687 132.45985825 -370.21135398 130.98914745 -368.63671875 129.51171875 C-362.19070036 123.52408389 -355.43163725 118.06539648 -348.45898438 112.71386719 C-346.5393524 111.23213272 -344.63608806 109.73120403 -342.734375 108.2265625 C-274.95493519 54.99381196 -192.72686573 24.44359046 -44.5625 1.25 C-42.85356567 1.10643066 -42.85356567 1.10643066 -41.11010742 0.95996094 C-27.42752033 -0.05727757 -13.71362083 0.0053059 0 0 Z " fill="#C410DB" transform="translate(524.5625,1484.75)"/>
<path d="M0 0 C1.21257288 0.00040031 1.21257288 0.00040031 2.44964218 0.00080872 C28.28019126 0.01150795 54.04252172 0.24128837 79.8125 2.1875 C81.12018341 2.28578094 81.12018341 2.28578094 82.45428467 2.38604736 C165.63907381 8.72342292 246.4969918 25.50765503 478.26757812 126.69482422 C481.14696405 128.38367356 484.06096377 129.99719515 486.9909668 131.59594727 C496.40475907 136.73772962 505.29741372 142.6341815 514.24609375 148.5390625 C518.90660502 151.61013252 523.61926455 154.57942865 528.375 157.5 C535.1736975 161.69777842 541.66588996 166.24420517 548.11669922 170.95507812 C550.33320854 172.56592452 552.56838047 174.1496623 554.80395508 175.73388672 C568.22258927 185.25653917 581.48820596 194.96195094 594.26953125 205.328125 C597.17393108 207.68351756 600.11536641 209.98589672 603.07202148 212.27514648 C614.0155649 220.7625713 624.3706699 229.92064415 634.62890625 239.21875 C636.62987985 241.02284784 638.6520031 242.79757017 640.6875 244.5625 C648.02817115 250.96511378 655.25208085 257.51246128 662.06689453 264.47436523 C663.80223485 266.17742579 665.59950617 267.75452518 667.44921875 269.33203125 C672.12495054 273.40091502 676.50479117 277.73255092 680.875 282.125 C682.0206543 283.26485352 682.0206543 283.26485352 683.18945312 284.42773438 C687.40065414 288.64614018 691.42914957 292.95814803 695.31811523 297.47485352 C697.06319277 299.4748076 698.9033742 301.34420612 700.8125 303.1875 C704.02684731 306.3586603 707.03000963 309.64332753 709.97265625 313.06640625 C712.00758819 315.41241058 714.09540967 317.7048645 716.1875 320 C720.0829657 324.31659713 723.78108218 328.7615113 727.4375 333.28125 C729.52888588 335.84044588 731.65317364 338.3634153 733.80004883 340.87573242 C740.01682692 348.15361816 745.96572792 355.61025342 751.8125 363.1875 C752.42818848 363.9825293 753.04387695 364.77755859 753.67822266 365.59667969 C761.88868051 376.21347804 769.92764552 386.89203669 777.38476562 398.05322266 C778.96130873 400.40994972 780.5509126 402.75760673 782.140625 405.10546875 C830.04981511 476.11064243 863.8863157 554.64500723 890.0871582 635.94116211 C890.81556417 638.19698955 891.54876834 640.45120693 892.28320312 642.70507812 C922.56479557 735.75510461 945.19276412 831.69213228 953.8125 977.1875 C953.83957031 978.51515381 953.83957031 978.51515381 953.8671875 979.86962891 C953.95491706 984.97877941 953.91195073 990.07882204 953.8125 995.1875 C953.78567139 996.78924072 953.78567139 996.78924072 953.75830078 998.42333984 C950.9388188 1150.98406923 950.9388188 1150.98406923 901.421875 1198.87890625 C889.37365985 1209.53833013 875.7372822 1217.14257905 861.18359375 1223.86328125 C853.81860017 1227.28307176 848.23020303 1231.05092678 844.68359375 1238.5859375 C840.87491112 1249.9607475 843.58777934 1260.74848453 848.4375 1271.3125 C855.99650876 1285.57407811 869.08770964 1294.3988069 882.5625 1302.5625 C903.65025147 1315.56306001 923.53702557 1328.6945042 929.9296875 1354.34765625 C933.72552329 1372.46679707 930.859373 1390.69775794 920.8125 1406.1875 C918.03938422 1409.77865922 915.03743145 1413.00006776 911.8125 1416.1875 C910.74128906 1417.29158203 910.74128906 1417.29158203 909.6484375 1418.41796875 C877.24123725 1449.87856693 819.94010808 1459.86425608 776.67944336 1459.47094727 C767.94534216 1459.28897252 759.41790938 1458.70391268 750.8125 1457.1875 C749.9551123 1457.03684082 749.09772461 1456.88618164 748.21435547 1456.73095703 C722.24355374 1451.98370425 696.54732408 1442.97431409 675.8125 1426.1875 C675.30025879 1425.78982422 674.78801758 1425.39214844 674.26025391 1424.98242188 C665.6830655 1418.3200342 658.95689524 1411.16218754 652.8125 1402.1875 C652.38259766 1401.56133789 651.95269531 1400.93517578 651.50976562 1400.29003906 C639.49472607 1382.60074359 627.89106669 1363.49635236 619.4375 1343.8125 C618.25224847 1340.14352515 618.25224847 1340.14352515 615.8125 1339.1875 C611.12974338 1338.72037184 611.12974338 1338.72037184 606.9375 1340.4375 C604.04110712 1344.94300003 604.85280802 1349.96023135 605.15795898 1355.08691406 C605.20658081 1355.98482666 605.25520264 1356.88273926 605.30529785 1357.80786133 C605.46731047 1360.77329828 605.63791492 1363.73817527 605.80859375 1366.703125 C605.92265339 1368.76004153 606.0361768 1370.81698785 606.14918518 1372.8739624 C606.44797749 1378.28623918 606.75405816 1383.69808017 607.06164551 1389.10986328 C607.37426605 1394.63289381 607.68000979 1400.15630449 607.98632812 1405.6796875 C608.58831269 1416.5160087 609.19799568 1427.35188206 609.8125 1438.1875 C555.44793654 1438.38786415 555.44793654 1438.38786415 529.8125 1437.1875 C529.65636869 1424.72937778 530.09999392 1412.32178565 530.6104126 1399.87576294 C532.6026051 1350.80484738 533.43580846 1301.72710747 532.375 1252.625 C532.34566376 1251.24805466 532.34566376 1251.24805466 532.31573486 1249.84329224 C532.07393245 1238.81618248 531.70532755 1227.8025969 531.14503479 1216.78672791 C530.73918559 1208.58408465 530.71449774 1200.3979113 530.8125 1192.1875 C534.41648187 1190.98617271 537.91565846 1190.73397346 541.67578125 1190.43359375 C542.4788118 1190.36819397 543.28184235 1190.30279419 544.10920715 1190.2354126 C669.62866103 1180.28088745 669.62866103 1180.28088745 708.28515625 1211.83203125 C720.34203065 1222.53212183 727.63133875 1236.16980321 728.99707031 1252.37792969 C729.92662924 1268.35430573 727.72697088 1283.51111017 717.15234375 1296.17578125 C710.35450664 1303.40719339 702.63987711 1306.89067252 693.35961914 1309.95727539 C690.46743449 1310.95602789 688.1070692 1311.93573627 685.76953125 1313.93359375 C682.87263212 1320.7560868 687.96813244 1329.66959035 690.375 1336.0625 C690.82681641 1337.26616211 691.27863281 1338.46982422 691.74414062 1339.70996094 C703.0579594 1369.46259156 718.71563034 1395.71487238 748.4453125 1409.78515625 C766.1813984 1417.17176279 785.59183478 1417.39443667 803.36767578 1410.14550781 C814.12634258 1405.48543032 824.43140195 1400.26582439 833.8125 1393.1875 C834.48152344 1392.70023438 835.15054687 1392.21296875 835.83984375 1391.7109375 C844.88037044 1384.62886189 849.7650496 1375.11819591 851.25 1363.875 C849.31984209 1347.60652623 841.32076322 1337.70959383 828.88330078 1327.89160156 C827.50154341 1326.81565086 826.11748064 1325.74265324 824.73095703 1324.67285156 C817.67500195 1319.20982907 810.87948518 1313.45647457 804.2890625 1307.44140625 C802.60997795 1305.9132804 800.91669177 1304.40064142 799.2109375 1302.90234375 C781.9525542 1287.70349561 765.28651637 1265.67874392 763.57421875 1241.875 C763.2592318 1226.22512222 767.73521974 1213.60542627 778.4375 1202 C791.86429236 1189.37519331 809.12821848 1184.27072414 826.9140625 1181.55078125 C848.99344184 1178.11587263 868.86205204 1169.05981396 882.47509766 1150.46166992 C911.27179387 1109.16194955 906.37210274 1048.6717806 898.19970703 1001.66259766 C882.53439217 916.95877872 845.07500366 833.87350668 777.8125 703.1875 C777.18875488 702.1154834 776.56500977 701.0434668 775.92236328 699.93896484 C755.33308876 664.64234066 733.00564431 630.3898657 707.8125 598.1875 C706.92030585 597.03666533 706.02838637 595.88561768 705.13671875 594.734375 C699.34516022 587.28117727 693.37717591 580.00629952 687.23046875 572.84375 C685.77238526 571.14064422 684.32303148 569.43040726 682.875 567.71875 C676.52521167 560.23199581 669.99243354 552.95117685 663.29052734 545.77880859 C661.84539781 544.22291921 660.4146344 542.65513467 658.98828125 541.08203125 C653.16372938 534.67282549 647.17559469 528.44755312 641.0625 522.3125 C640.36552002 521.61092773 639.66854004 520.90935547 638.95043945 520.18652344 C635.00197608 516.24975991 630.95001732 512.49905353 626.72802734 508.85791016 C623.74376725 506.25552582 620.88008552 503.52886402 618 500.8125 C613.08444203 496.2174508 608.08109805 491.81487844 602.82421875 487.609375 C600.53352101 485.76730937 598.27073738 483.90492061 596.01953125 482.015625 C569.05178234 459.42378702 539.51173957 439.36770407 508.8125 422.1875 C507.89339844 421.66961914 506.97429688 421.15173828 506.02734375 420.61816406 C434.08286673 380.26563257 355.31736146 355.8399255 200.8125 337.1875 C199.69302475 337.12554947 199.69302475 337.12554947 198.55093384 337.06234741 C180.24565462 336.0563244 161.95149425 335.98594679 143.625 336 C142.84309673 336.00026688 142.06119347 336.00053375 141.25559616 336.00080872 C115.97940533 336.01161128 90.78585521 336.37472409 65.5546875 338.01037598 C62.71772804 338.19362153 59.88039866 338.37009806 57.04296875 338.54589844 C21.19373054 340.7925327 -14.58559546 343.95588387 -50.36417866 347.10883331 C-107.08084833 352.10629184 -107.08084833 352.10629184 -131.3125 352.8125 C-133.0905603 352.86724487 -133.0905603 352.86724487 -134.90454102 352.9230957 C-138.33203211 353.02215078 -141.75948942 353.10866555 -145.1875 353.1875 C-146.66210693 353.22254639 -146.66210693 353.22254639 -148.16650391 353.25830078 C-178.14709479 353.88256855 -204.84935374 346.44579254 -228.1875 327.1875 C-229.38439453 326.21876953 -229.38439453 326.21876953 -230.60546875 325.23046875 C-236.59324865 320.17022791 -241.41233901 314.38322859 -246.1875 308.1875 C-246.84492187 307.35734375 -247.50234375 306.5271875 -248.1796875 305.671875 C-264.04008648 284.90685464 -272.61859827 260.47112682 -278.1875 235.1875 C-278.36684082 234.39633789 -278.54618164 233.60517578 -278.73095703 232.79003906 C-281.51325514 219.87597616 -281.49410831 206.77485631 -281.5625 193.625 C-281.5705365 192.76489319 -281.578573 191.90478638 -281.58685303 191.01861572 C-281.7013265 174.84548022 -280.04698216 158.88293874 -276 143.1875 C-275.7927832 142.37829102 -275.58556641 141.56908203 -275.37207031 140.73535156 C-268.14382639 113.8446249 -254.32066606 92.08741921 -235.1875 72.1875 C-234.61338379 71.58615234 -234.03926758 70.98480469 -233.44775391 70.36523438 C-225.24686137 61.81727186 -216.95162132 53.95204444 -207.1875 47.1875 C-206.54055176 46.73922852 -205.89360352 46.29095703 -205.22705078 45.82910156 C-195.29554329 39.0297846 -185.10265814 33.24302745 -174.1875 28.1875 C-173.55553711 27.8889209 -172.92357422 27.5903418 -172.27246094 27.28271484 C-136.25249511 10.34354588 -95.69335876 3.50291655 -56.1875 1.1875 C-55.54420746 1.14619965 -54.90091492 1.10489929 -54.23812866 1.06234741 C-36.17378462 -0.07608966 -18.09174187 -0.01337033 0 0 Z M603.8125 1238.1875 C601.52586847 1241.6174473 601.56589395 1242.86368681 601.58203125 1246.89453125 C601.58291748 1248.0326123 601.58380371 1249.17069336 601.5847168 1250.34326172 C601.59801025 1251.54998535 601.61130371 1252.75670898 601.625 1254 C601.6350708 1255.22219238 601.6451416 1256.44438477 601.65551758 1257.70361328 C601.69344112 1261.19862827 601.75040551 1264.69284321 601.8125 1268.1875 C601.82120117 1269.03199707 601.82990234 1269.87649414 601.83886719 1270.74658203 C601.88346698 1278.53678639 601.88346698 1278.53678639 604.9375 1285.5 C608.36315089 1287.51070813 610.92895696 1288.08636607 614.8125 1288.1875 C615.8025 1288.23777344 616.7925 1288.28804687 617.8125 1288.33984375 C629.19203521 1288.663126 642.58861741 1288.19382765 651.9765625 1281 C657.93404992 1275.11856561 660.89915358 1269.25815766 661.125 1260.9375 C661.01509033 1253.42367535 658.66132539 1248.71264922 653.375 1243.4375 C643.88391531 1235.65267773 630.45826516 1235.00704662 618.6875 1234.9375 C617.36685547 1234.9065625 617.36685547 1234.9065625 616.01953125 1234.875 C611.14039067 1234.84556325 607.72604713 1234.92874869 603.8125 1238.1875 Z " fill="#DF4373" transform="translate(998.1875,-0.1875)"/>
<path d="M0 0 C2.25419965 0.19038957 4.50896834 0.37280917 6.76385498 0.55487061 C77.25215439 6.33123934 146.9496206 19.29052057 214.13208008 41.51757812 C216.08209401 42.16271115 218.03325469 42.80427533 219.98455811 43.44549561 C269.1446702 59.69043499 317.37107403 80.85416285 361.68670654 107.71063232 C363.8809122 109.02759325 366.0903258 110.30578744 368.31903076 111.56317139 C389.44919329 123.53154955 409.71231128 137.62727723 429.13543701 152.18035889 C429.70923096 152.60929443 430.2830249 153.03822998 430.87420654 153.48016357 C447.35738161 165.85578727 463.39422344 179.02499714 478.62371826 192.91473389 C480.7069686 194.79387105 482.81083585 196.64111078 484.92840576 198.48114014 C495.23170407 207.48136365 505.07007162 217.02777493 514.76043701 226.68035889 C515.39852295 227.31385254 516.03660889 227.94734619 516.69403076 228.60003662 C520.43486162 232.35317284 523.9750301 236.22881521 527.43865967 240.23846436 C530.05213836 243.22948731 532.78536807 246.10391051 535.51043701 248.99285889 C540.15733477 253.95874592 544.5783915 259.03286797 548.83074951 264.34442139 C551.01442662 267.03145458 553.25460049 269.6541894 555.52337646 272.26898193 C561.67819109 279.36442523 567.51798126 286.65225761 573.13543701 294.18035889 C573.65331787 294.87226318 574.17119873 295.56416748 574.70477295 296.27703857 C588.26641587 314.43048119 601.28190956 332.86107381 613.13543701 352.18035889 C613.7278418 353.14353027 613.7278418 353.14353027 614.33221436 354.12615967 C630.92948393 381.20364537 645.57543044 409.01635357 658.13543701 438.18035889 C658.56485596 439.16343018 658.9942749 440.14650146 659.43670654 441.15936279 C659.81295166 442.04929932 660.18919678 442.93923584 660.57684326 443.85614014 C661.06906372 445.00916626 661.06906372 445.00916626 661.57122803 446.18548584 C662.13543701 448.18035889 662.13543701 448.18035889 661.13543701 451.18035889 C654.92370324 445.51385567 648.73297398 439.85165606 642.82293701 433.86785889 C638.75053037 429.75641959 634.53455977 425.93553111 630.13543701 422.18035889 C629.00957456 421.2034874 627.88466214 420.22552047 626.76043701 419.24676514 C623.52002474 416.42605374 620.27211522 413.61418955 617.01971436 410.80731201 C615.8314042 409.78128209 614.6440904 408.75409603 613.45819092 407.72528076 C605.00963508 400.40406689 596.2395416 393.57483776 587.32049561 386.83758545 C585.17387588 385.2095123 583.03770705 383.5687495 580.90496826 381.92254639 C567.59433404 371.65496072 554.1175035 361.57949348 540.02020264 352.40936279 C537.68395504 350.88595989 535.35540121 349.35102245 533.02606201 347.81707764 C505.0756449 329.44966067 476.46454379 312.40839336 446.94354248 296.67840576 C444.27517384 295.25490463 441.6132776 293.81989438 438.95184326 292.38348389 C365.85714924 253.20095126 284.00272115 226.43727348 -43.86456299 227.18035889 C-101.53184706 244.99702551 -155.62285948 274.5713824 -200.06378174 315.62567139 C-201.50732273 316.94237405 -202.95451291 318.25637427 -204.44683838 319.51751709 C-211.29553414 325.32693459 -217.56539588 331.73082261 -223.90093994 338.08636475 C-225.92220567 340.11298869 -227.94875873 342.13421436 -229.97589111 344.15496826 C-236.15135574 350.32724819 -242.23728991 356.49685433 -247.86456299 363.18035889 C-249.31901816 364.78804261 -250.77677194 366.39275603 -252.23956299 367.99285889 C-256.13502869 372.30945602 -259.83314517 376.75437019 -263.48956299 381.27410889 C-265.58138624 383.83383997 -267.70622667 386.35727165 -269.85333252 388.87030029 C-275.58941522 395.58428509 -281.08414035 402.46010155 -286.50274658 409.43182373 C-288.27223906 411.70380386 -290.05395999 413.96601483 -291.83624268 416.22796631 C-294.18368707 419.20843422 -296.52411231 422.19439804 -298.86456299 425.18035889 C-299.39420654 425.85550537 -299.9238501 426.53065186 -300.46954346 427.22625732 C-307.20693215 435.82257516 -313.84931868 444.4768171 -320.36456299 453.24285889 C-327.24085303 462.47329848 -334.45544567 471.37460614 -341.86456299 480.18035889 C-342.86601868 481.37814714 -343.86732695 482.57605867 -344.86846924 483.77410889 C-349.66074751 489.49069434 -354.5347635 495.12402946 -359.55865479 500.63934326 C-361.01787849 502.24734753 -362.47035947 503.86151899 -363.91339111 505.48406982 C-369.34506118 511.58777692 -374.95974088 517.46861146 -380.73956299 523.24285889 C-381.61870361 524.12119385 -382.49784424 524.99952881 -383.40362549 525.90447998 C-389.30412652 531.74933649 -395.29988748 537.09402762 -401.86456299 542.18035889 C-403.76304747 543.80226076 -405.65872997 545.42744639 -407.55206299 547.05535889 C-414.6353198 552.9580729 -422.14749464 558.14377667 -429.86456299 563.18035889 C-430.46075439 563.57078369 -431.0569458 563.9612085 -431.67120361 564.36346436 C-477.10813118 593.74958053 -530.77541874 603.65624703 -583.67706299 593.05535889 C-622.62619422 584.69012998 -658.38364455 566.19360836 -687.64581299 539.21160889 C-689.63472097 537.39077763 -691.67139275 535.65948483 -693.73956299 533.93035889 C-703.69240693 525.22162043 -712.14000354 514.87012215 -719.86456299 504.18035889 C-720.25821045 503.64314209 -720.65185791 503.10592529 -721.05743408 502.5524292 C-750.88873142 461.43526273 -763.74454345 410.09718464 -755.89971924 359.86785889 C-750.05047992 326.13163051 -735.82797897 294.88562144 -715.86456299 267.18035889 C-715.35506104 266.47024658 -714.84555908 265.76013428 -714.32061768 265.02850342 C-708.92741791 257.560866 -703.39270693 250.32424143 -697.09503174 243.58660889 C-695.3093332 241.66018104 -693.6040403 239.70442405 -691.89971924 237.70770264 C-687.11734963 232.22626819 -681.97421068 227.10397055 -676.83233643 221.96282959 C-675.12661701 220.25492833 -673.42907272 218.53917844 -671.73175049 216.82293701 C-665.08370077 210.14114483 -658.25634631 204.03997974 -650.86456299 198.18035889 C-649.77439195 197.25738553 -648.68976993 196.32775323 -647.61456299 195.38739014 C-585.20029986 141.04087977 -503.96761254 102.72796433 -298.86456299 29.18035889 C-298.07603943 28.97388733 -297.28751587 28.76741577 -296.47509766 28.5546875 C-241.46917018 14.19511977 -185.50751618 4.88086964 -128.86456299 0.18035889 C-128.14723999 0.11977295 -127.42991699 0.05918701 -126.69085693 -0.00323486 C-84.79760654 -3.50548628 -41.89035717 -3.55200829 0 0 Z " fill="#DA3A86" transform="translate(964.8645629882813,454.81964111328125)"/>
<path d="M0 0 C1.22127594 0.14565399 1.22127594 0.14565399 2.46722412 0.29425049 C55.7378104 6.71483237 107.4241601 19.14049944 158 37 C159.21284668 37.42635742 160.42569336 37.85271484 161.67529297 38.29199219 C204.22916957 53.36303232 245.20458199 72.80254283 285.99237061 92.05316162 C288.10765591 93.05077269 290.22391795 94.0462899 292.34033203 95.04150391 C319.1857849 107.67118026 345.83608973 120.68663096 372.45654297 133.78271484 C378.87588872 136.94006939 385.29866376 140.09039349 391.72265625 143.23828125 C393.28977356 144.00622009 393.28977356 144.00622009 394.8885498 144.78967285 C399.10111301 146.8537882 403.3138049 148.91764079 407.52655029 150.98138428 C419.69130999 156.94102209 431.85163969 162.90945526 444.00390625 168.89453125 C475.65163588 184.50632974 475.65163588 184.50632974 507.61523438 199.45556641 C510.74487477 200.88358899 513.8669326 202.3266526 516.98678589 203.77586365 C562.57596138 224.95015548 609.02255766 244.10910373 656.949646 259.34759521 C658.92272084 259.97541045 660.89431003 260.60771068 662.86572266 261.24072266 C724.89691581 281.02126474 789.60248206 291.20518122 854.6875 291.25 C855.85806946 291.25133942 857.02863892 291.25267883 858.23468018 291.25405884 C885.85799958 291.24735493 913.39788903 289.91614197 940.97119141 288.42773438 C948.37987094 288.02794742 955.78995713 287.66105225 963.20064545 287.30071068 C967.74847715 287.07865065 972.29601485 286.85065712 976.84356689 286.62295532 C979.28599751 286.50115648 981.72850108 286.38081022 984.17108154 286.26205444 C995.54146083 285.70471403 1006.82756835 285.14733829 1018.08813477 283.41748047 C1025.67615286 282.32956977 1033.10409855 282.26141741 1040 286 C1046.04787027 291.11031833 1048.85831867 297.6786162 1049.875 305.4375 C1050.3731789 313.01397082 1048.3384678 317.83512303 1043.40185547 323.57006836 C1033.00473089 334.17542515 1013.89600646 338.29392648 1000.22998047 343.41015625 C996.82004164 344.68801679 993.41931589 345.98834003 990.0214386 347.29788208 C949.17820014 363.0204565 907.41637359 376.24252526 865 387 C863.71657715 387.32650543 863.71657715 387.32650543 862.40722656 387.65960693 C786.61091901 406.89030111 709.33329899 418.35660252 631.5625 425.875 C630.49157104 425.97872925 629.42064209 426.0824585 628.31726074 426.18933105 C609.74277048 427.97147322 591.21362725 429.07577014 572.5625 429.5625 C571.38204102 429.59376984 571.38204102 429.59376984 570.17773438 429.62567139 C475.60765078 432.07544099 381.0309644 424.31591657 234 393 C233.14960144 392.78386047 232.29920288 392.56772095 231.42303467 392.34503174 C205.65703562 385.78340618 180.24823495 378.32848102 155 370 C153.7634668 369.59394531 153.7634668 369.59394531 152.50195312 369.1796875 C81.6010174 345.89225603 11.00706928 316.34800206 -53.4140625 278.49804688 C-57.289346 276.25307524 -61.21635113 274.10393658 -65.13818359 271.94165039 C-79.3750563 264.07425073 -93.22249893 255.64191178 -107 247 C-107.93376465 246.41782715 -108.8675293 245.8356543 -109.82958984 245.23583984 C-160.20297541 213.80799609 -208.27207554 178.31686145 -253.46679688 139.83203125 C-256.7928033 137.00387988 -260.163404 134.23964228 -263.5625 131.5 C-268.63607493 127.37309794 -273.43741142 122.99897442 -278.23046875 118.5546875 C-280.45918393 116.49886278 -282.70767919 114.48383043 -285 112.5 C-290.43160979 107.77248777 -295.75557901 102.93368562 -301 98 C-301.59216309 97.44328613 -302.18432617 96.88657227 -302.79443359 96.31298828 C-322.24619431 77.87170865 -322.24619431 77.87170865 -323.23828125 67.51171875 C-323.39802377 61.43309533 -323.25975379 57.69665162 -319 53 C-282.35057977 14.68469703 -186.94138576 5.59618027 -137 0 C-135.70884277 -0.15098145 -134.41768555 -0.30196289 -133.08740234 -0.45751953 C-89.45596035 -5.45725549 -43.59592908 -5.24732819 0 0 Z " fill="#BD02F8" transform="translate(447,1944)"/>
<path d="M0 0 C0.83370117 0.21495117 1.66740234 0.42990234 2.52636719 0.65136719 C34.31439063 9.07361974 64.99968944 23.39479335 90 45 C90.80308594 45.69351562 91.60617187 46.38703125 92.43359375 47.1015625 C94.99419383 49.36256039 97.5040378 51.66789486 100 54 C100.87527344 54.80953125 101.75054688 55.6190625 102.65234375 56.453125 C119.30242034 72.41044374 131.42278271 92.269542 139 114 C139.65935547 115.86205078 139.65935547 115.86205078 140.33203125 117.76171875 C147.9458952 140.61183677 149.08995885 165.33467928 149.19923019 189.24515724 C149.21131052 191.65648862 149.23081787 194.06766293 149.25234985 196.47892761 C149.31306984 203.32110321 149.36805963 210.16324578 149.40136719 217.00561523 C149.42243799 221.2258157 149.45780762 225.44569861 149.50212479 229.66571617 C149.51615056 231.25587909 149.52497637 232.8460978 149.52817917 234.43631935 C149.55626029 247.02289009 150.15657226 259.16958255 159 269 C165.85574534 274.42746506 172.32568619 275.98778181 181 275 C189.5817948 272.26608537 194.85628752 267.08034056 199.1875 259.375 C203.85311281 249.00197339 204.44167265 238.19730857 204.36328125 226.98828125 C204.36275979 225.56699118 204.36328846 224.14570038 204.36479187 222.72441101 C204.36470282 219.75683694 204.35442907 216.78953821 204.33618164 213.82202148 C204.31376386 210.10328331 204.31309959 206.38495109 204.31943035 202.6661644 C204.35689523 173.60405119 203.45267489 144.36667101 195.515625 116.20703125 C195 114 195 114 195 110 C222.06 110 249.12 110 277 110 C275.88723571 122.2404072 275.88723571 122.2404072 275.09765625 127.66796875 C269.89777725 164.94671575 269.71484313 202.3687593 269.36427689 239.94478798 C269.33381314 243.19697205 269.30081625 246.44912922 269.2679863 249.70129013 C269.24695079 251.93253073 269.23066411 254.16376803 269.2147522 256.39505005 C269.14938392 263.84300018 268.9379611 271.26844072 268.53442383 278.70629883 C268.49442229 279.45173887 268.45442076 280.19717892 268.41320705 280.96520805 C268.08831212 286.51418846 267.42884844 291.88409778 266.25 297.3125 C266.0744458 298.14442871 265.8988916 298.97635742 265.71801758 299.83349609 C261.2856742 319.87117973 250.37600116 335.62763667 233.1875 346.875 C211.03461787 360.71134143 184.33993711 364.16122169 159.00830078 358.55957031 C140.88110466 354.26865358 124.8752928 345.57125457 112 332 C111.49339844 331.54882812 110.98679687 331.09765625 110.46484375 330.6328125 C93.73398974 315.31207603 86.98275414 291.46106276 83.25 269.8125 C83.13438721 269.14959961 83.01877441 268.48669922 82.8996582 267.80371094 C80.77301111 254.34947893 80.84855197 240.67238803 80.80076981 227.09011078 C80.7887459 223.96457642 80.76923708 220.83916635 80.74765015 217.71368408 C80.68683142 208.83683595 80.63235654 199.96000394 80.59863281 191.08300781 C81.74465329 126.46096765 81.74465329 126.46096765 51.875 71.375 C21.13114337 41.64887104 -33.00978362 34.38689816 -73.8828125 34.64648438 C-112.12663891 35.42020341 -158.94603152 42.92012775 -186.63818359 71.55957031 C-212.70874563 99.13510205 -214.24061176 138.90148158 -214.33552551 174.86395645 C-214.34403707 177.98818357 -214.36472995 181.11214776 -214.38806152 184.23629761 C-214.44359153 191.98413373 -214.47946092 199.73203442 -214.51568604 207.47998047 C-214.54725997 214.0684888 -214.58667938 220.65686544 -214.63594055 227.24526596 C-214.65560027 230.28243759 -214.66423966 233.31949897 -214.67224121 236.35671997 C-214.7591028 252.20068619 -215.27869232 268.33018207 -219.25 283.75 C-219.46543457 284.61359131 -219.68086914 285.47718262 -219.90283203 286.36694336 C-226.94086493 313.61605357 -241.65647515 336.24944693 -266.09179688 350.91308594 C-288.04099309 363.41536607 -316.30131992 366.94186506 -340.77856445 360.90649414 C-353.14718271 357.49026316 -364.08658644 352.20473513 -374 344 C-374.85078125 343.32324219 -375.7015625 342.64648438 -376.578125 341.94921875 C-393.43271467 327.80894184 -399.75927374 308.38075792 -402 287 C-402.24416908 283.77833824 -402.39839314 280.55599078 -402.53515625 277.328125 C-402.57689468 276.35184143 -402.61863312 275.37555786 -402.66163635 274.36968994 C-403.02253572 265.03471053 -403.14743976 255.69998814 -403.24609375 246.359375 C-403.25868666 245.1777906 -403.25868666 245.1777906 -403.27153397 243.97233582 C-403.3487228 236.59751973 -403.41827791 229.22264433 -403.47680664 221.84765625 C-403.71973537 191.99690183 -404.11754595 162.06551149 -408.625 132.5 C-408.97137579 130.12727732 -409.31356543 127.75398421 -409.65463257 125.38049316 C-409.86203527 123.94752906 -410.07319175 122.51510072 -410.28897095 121.08337402 C-410.69673294 118.35081175 -411 115.76852834 -411 113 C-383.94 113 -356.88 113 -329 113 C-329.58600794 117.6880635 -330.13413328 122.02341154 -331.12109375 126.58203125 C-334.20624791 141.17347051 -334.20624791 141.17347051 -336.25 155.9375 C-336.35139282 156.92423706 -336.35139282 156.92423706 -336.45483398 157.9309082 C-336.66993165 160.28567644 -336.83805845 162.64093951 -337 165 C-337.08540039 166.15741699 -337.17080078 167.31483398 -337.25878906 168.50732422 C-338.18080786 182.06679416 -338.22031847 195.63766638 -338.24023438 209.22363281 C-338.2457497 212.58716112 -338.26991495 215.95029109 -338.29820633 219.313694 C-338.32153937 222.58930578 -338.32329077 225.86494187 -338.328125 229.140625 C-338.3466452 230.91617767 -338.3466452 230.91617767 -338.36553955 232.7276001 C-338.32977495 246.33807181 -336.19995309 260.42731691 -326.8125 270.875 C-321.8733736 275.42674394 -316.08068922 277.55990154 -309.5 278.5 C-301.91071603 277.41581658 -295.67549932 274.70632591 -290.46875 268.99609375 C-284.58872791 261.00489351 -283.86014635 252.6457877 -283.75390625 243.05078125 C-283.72242123 241.0052858 -283.69067141 238.95979441 -283.65869141 236.91430664 C-283.63563934 235.30025436 -283.63563934 235.30025436 -283.61212158 233.65359497 C-281.70196313 105.03978371 -281.70196313 105.03978371 -237 58 C-236.52191895 57.4946875 -236.04383789 56.989375 -235.55126953 56.46875 C-177.03754923 -4.98081174 -79.76723925 -20.59745114 0 0 Z " fill="#CE24B3" transform="translate(625,1081)"/>
<path d="M0 0 C29.54828524 26.54792276 46.36246093 63.52849515 49 103 C51.14584718 144.2883989 36.78359089 183.28189095 9.54711914 214.17504883 C-16.54293418 242.95090603 -53.34022639 260.35597001 -92.0703125 262.875 C-133.08426789 264.62492876 -173.12845802 252.0704991 -203.6875 224.125 C-213.73855059 214.67168578 -222.63326761 204.73693901 -230 193 C-230.37366699 192.40767578 -230.74733398 191.81535156 -231.13232422 191.20507812 C-241.06617563 175.19230272 -247.57290504 157.50351132 -251 139 C-251.22429688 137.83082031 -251.44859375 136.66164063 -251.6796875 135.45703125 C-257.87243254 97.24015944 -248.48161658 56.44828856 -226.1875 24.8125 C-221.29475322 18.05994272 -215.78351564 11.99245768 -210 6 C-209.21109375 5.14792969 -208.4221875 4.29585937 -207.609375 3.41796875 C-187.1565993 -18.08453551 -158.75124333 -31.17372941 -130 -37 C-128.17855469 -37.36931641 -128.17855469 -37.36931641 -126.3203125 -37.74609375 C-80.47449686 -45.28310426 -34.40056004 -30.48454379 0 0 Z " fill="#D63296" transform="translate(1190,800)"/>
<path d="M0 0 C1.03163269 0.11710327 1.03163269 0.11710327 2.08410645 0.23657227 C20.25737256 2.48108363 39.86609533 8.92021841 51.9453125 23.265625 C61.52427371 36.07904064 65.31631875 49.83683973 63.62109375 65.70703125 C61.34346508 79.18560089 56.12853041 92.52036392 45.05078125 101.08203125 C39.53512893 104.69413909 33.71665431 107.83732692 27.74609375 110.625 C24.80541225 111.9429072 24.80541225 111.9429072 23.05078125 115.08203125 C22.64775223 118.60014532 22.64775223 118.60014532 24.05078125 122.08203125 C26.80229542 124.02236789 29.8869527 124.98354271 33.05078125 126.08203125 C48.83698993 131.95098807 59.2954264 140.1240823 66.86328125 155.39453125 C74.59597117 173.86416563 74.11236362 194.88993269 66.69213867 213.36669922 C63.69687837 220.3909169 60.26612703 226.43847813 55.05078125 232.08203125 C54.40753906 232.82710937 53.76429688 233.5721875 53.1015625 234.33984375 C37.60649772 251.23834323 10.98102517 258.10416854 -11.28759766 259.19676208 C-13.88210987 259.2626419 -16.47505255 259.29855328 -19.0703125 259.3203125 C-20.03485352 259.33010635 -20.99939453 259.33990021 -21.99316406 259.34999084 C-44.99548087 259.53494763 -67.22790486 258.89507361 -89.94921875 255.08203125 C-90.68924133 254.95898621 -91.42926392 254.83594116 -92.19171143 254.70916748 C-100.40657258 253.33776659 -108.60946246 251.89963684 -116.79296875 250.3515625 C-117.96021484 250.13089111 -119.12746094 249.91021973 -120.33007812 249.68286133 C-122.94921875 249.08203125 -122.94921875 249.08203125 -123.94921875 248.08203125 C-123.91920414 246.24674323 -123.81378444 244.41265984 -123.6796875 242.58203125 C-123.5964624 241.40157227 -123.5132373 240.22111328 -123.42749023 239.00488281 C-123.33153564 237.7103418 -123.23558105 236.41580078 -123.13671875 235.08203125 C-122.99177667 233.03487589 -122.84910534 230.98756998 -122.70655823 228.94024658 C-122.60688068 227.50950324 -122.50663942 226.07879907 -122.40586853 224.64813232 C-121.90704396 217.55332085 -121.44796564 210.456351 -121.01187134 203.35742188 C-120.89290405 201.43213024 -120.77016379 199.50707284 -120.6472168 197.58203125 C-119.1683723 173.49931965 -118.80538412 149.46729104 -118.84782481 125.34870863 C-118.85419107 121.10207255 -118.85467241 116.85543529 -118.85585022 112.60879517 C-118.85892523 104.61272888 -118.86708547 96.6166767 -118.87719971 88.62061656 C-118.88848174 79.49806097 -118.89390137 70.37550461 -118.89889514 61.25294375 C-118.90927253 42.52929833 -118.92679556 23.80566594 -118.94921875 5.08203125 C-109.81182266 4.30034971 -100.67382477 3.52621253 -91.53503227 2.76102877 C-87.28899689 2.40528743 -83.0431901 2.04719803 -78.79785156 1.68322754 C-25.42374791 -2.88771069 -25.42374791 -2.88771069 0 0 Z M-47.3203125 43.3046875 C-48.95494291 46.09179115 -49.59138819 47.90077049 -49.94921875 51.08203125 C-50.05363281 51.92894531 -50.15804687 52.77585937 -50.265625 53.6484375 C-50.97807009 62.32217378 -51.15032123 71.0074943 -51.26171875 79.70703125 C-51.29144775 80.95299072 -51.32117676 82.1989502 -51.35180664 83.48266602 C-51.35946045 84.66272217 -51.36711426 85.84277832 -51.375 87.05859375 C-51.38958252 88.12158691 -51.40416504 89.18458008 -51.41918945 90.27978516 C-50.82952874 93.79569461 -49.7448408 94.93414861 -46.94921875 97.08203125 C-36.81540638 99.70931594 -23.94872412 97.31944831 -14.94921875 92.08203125 C-7.24633522 86.4220864 -2.43001593 80.89944875 -0.07421875 71.64453125 C0.18407191 64.28324733 -1.40643598 58.64923614 -6.13671875 52.9296875 C-15.82040448 43.05817166 -28.44067552 40.6902634 -41.734375 40.453125 C-45.08248252 40.81263786 -45.08248252 40.81263786 -47.3203125 43.3046875 Z M-49.53491211 147.93896484 C-53.0601376 152.52828156 -52.66870058 156.47164824 -52.61328125 162.11328125 C-52.61806488 163.18195435 -52.62284851 164.25062744 -52.6277771 165.35168457 C-52.63117456 167.60768102 -52.62198305 169.8637268 -52.60107422 172.11962891 C-52.57430855 175.57045389 -52.60082946 179.01802605 -52.6328125 182.46875 C-52.62950838 184.66276759 -52.6231021 186.85678315 -52.61328125 189.05078125 C-52.6234024 190.08110474 -52.63352356 191.11142822 -52.64395142 192.17297363 C-52.5660665 196.93923182 -52.51426322 199.32045983 -49.61035156 203.234375 C-42.90142197 207.89246483 -31.77061033 205.2367447 -24.07421875 203.89453125 C-14.05393375 201.63526031 -6.74786351 197.76432637 -0.94921875 189.08203125 C2.31092626 182.8540301 2.75560179 176.87012766 1.05078125 170.08203125 C-2.94212653 159.68511369 -8.84373788 152.72647321 -19.04296875 148.140625 C-27.66127543 144.90875999 -41.60409838 142.24339604 -49.53491211 147.93896484 Z " fill="#CE22B6" transform="translate(123.94921875,1183.91796875)"/>
<path d="M0 0 C1.09839455 -0.00642014 1.09839455 -0.00642014 2.21897888 -0.01296997 C4.53797828 -0.02278939 6.85676543 -0.02305577 9.17578125 -0.01953125 C9.97264343 -0.01859467 10.76950562 -0.01765808 11.59051514 -0.01669312 C37.35663834 0.04898232 65.69784574 1.81831109 85.3046875 20.78125 C96.56237037 33.08615918 101.25846018 46.43846397 100.80078125 62.96875 C100.08754682 75.82182875 95.1281724 88.92319915 86.375 98.48046875 C80.20619383 103.99791029 73.04990409 108.33345724 65.328125 111.28125 C62.55835178 112.61615132 60.90976402 114.26479138 59.61328125 117.04296875 C59.41330217 120.44261307 60.23527378 121.59310307 62.48828125 124.16796875 C64.76649763 125.29789059 67.08877726 126.14849721 69.4765625 127.0234375 C85.22611575 133.00867629 96.46798306 141.2103733 103.66796875 156.70703125 C111.29321341 174.68479786 110.84081545 196.16080274 103.67480469 214.21777344 C96.35788462 231.6309088 83.92335034 243.80649513 66.48828125 251.16796875 C50.86419033 257.13353074 34.88868701 260.26921322 18.1484375 260.40625 C17.16165512 260.41604385 16.17487274 260.42583771 15.15818787 260.43592834 C-8.09058993 260.61869764 -30.54641978 259.99916213 -53.51171875 256.16796875 C-55.03513801 255.91915911 -56.55857623 255.67046559 -58.08203125 255.421875 C-62.7302743 254.65698108 -67.37232658 253.85973654 -72.01171875 253.04296875 C-72.74269775 252.91508972 -73.47367676 252.78721069 -74.22680664 252.65545654 C-76.27186115 252.29284379 -78.3139042 251.91687357 -80.35546875 251.53515625 C-81.52271484 251.31972168 -82.68996094 251.10428711 -83.89257812 250.88232422 C-84.75689453 250.64658691 -85.62121094 250.41084961 -86.51171875 250.16796875 C-88.02475626 247.14189373 -87.33026344 244.60249695 -87.0234375 241.25 C-86.8935212 239.77386166 -86.76381116 238.29770516 -86.63427734 236.8215332 C-86.5632782 236.0350943 -86.49227905 235.2486554 -86.41912842 234.43838501 C-84.02361986 207.66393939 -82.62595525 180.84060721 -81.9609375 153.96875 C-81.93956789 153.10822147 -81.91819828 152.24769295 -81.89618111 151.3610878 C-81.26475473 124.88461809 -81.39677736 98.39759492 -81.43969131 71.91544956 C-81.45113871 64.72244652 -81.45643394 57.52944218 -81.46139514 50.33643222 C-81.47167841 35.61360178 -81.48911286 20.8907856 -81.51171875 6.16796875 C-73.91325154 5.53281784 -66.3147453 4.89813547 -58.71619129 4.26402378 C-55.18650794 3.96945173 -51.65683737 3.67472841 -48.12719727 3.37963867 C-44.05358753 3.03907834 -39.97992004 2.69921323 -35.90625 2.359375 C-34.03825493 2.20306358 -34.03825493 2.20306358 -32.13252258 2.04359436 C-7.7825029 0.01429836 -7.7825029 0.01429836 0 0 Z M-11.51171875 46.16796875 C-16.60121661 56.34696447 -14.68149502 74.16701693 -14.88671875 85.54296875 C-14.91258057 86.25388672 -14.93844238 86.96480469 -14.96508789 87.69726562 C-14.97828533 91.17457718 -14.55704348 93.09371968 -12.73046875 96.0859375 C-9.3382979 99.26908373 -5.95026584 99.26898831 -1.51171875 99.16796875 C10.24706605 98.49523732 22.29782616 95.13846718 30.48828125 86.16796875 C34.55684434 79.6601514 37.73516243 73.89863205 36.48828125 66.16796875 C34.68936903 59.99075164 32.57192372 55.30581727 27.48828125 51.16796875 C26.03421875 49.89953125 26.03421875 49.89953125 24.55078125 48.60546875 C15.85251046 42.65600215 -3.93516461 36.63502739 -11.51171875 46.16796875 Z M-6.57421875 146.85546875 C-7.82912109 147.04689453 -7.82912109 147.04689453 -9.109375 147.2421875 C-12.56890795 148.57537337 -13.57381243 149.98365461 -15.51171875 153.16796875 C-16.09304633 156.62767006 -16.04858503 160.04168465 -16.0078125 163.54296875 C-16.00926773 164.54505371 -16.01072296 165.54713867 -16.01222229 166.57958984 C-16.01056523 168.69436557 -15.99902567 170.80915359 -15.97827148 172.92382812 C-15.94931902 176.15677227 -15.95766676 179.38807571 -15.97070312 182.62109375 C-15.9644653 184.67839337 -15.95607402 186.73568782 -15.9453125 188.79296875 C-15.94824814 189.7576709 -15.95118378 190.72237305 -15.95420837 191.71630859 C-15.8851406 196.64115056 -15.81860552 200.23140717 -12.51171875 204.16796875 C-5.82440981 208.62617471 5.35478891 206.41417998 12.92578125 204.91796875 C21.57029132 202.83237105 29.76542745 199.5901727 34.96875 192.01171875 C38.99507169 184.88388875 39.73477397 178.55576952 37.89453125 170.6015625 C35.20913811 162.65727446 29.94158725 155.97677475 22.84375 151.5 C13.61176977 146.99627288 3.58490133 145.1439632 -6.57421875 146.85546875 Z " fill="#CE22B6" transform="translate(1141.51171875,1182.83203125)"/>
<path d="M0 0 C1.12985321 -0.00508575 2.25970642 -0.01017151 3.42379761 -0.01541138 C84.7532901 -0.31021998 84.7532901 -0.31021998 108.50390625 22.81640625 C120.54115628 36.23180298 123.66277169 53.48065912 122.86230469 71.08300781 C121.70676575 85.40781733 115.74088492 97.1717872 105.3203125 107.0625 C96.85274382 114.09786864 87.2749998 119.18283861 77.35546875 123.83984375 C74.58294154 124.97429553 74.58294154 124.97429553 73.6875 127.25 C73.33048321 130.75262417 73.27321225 132.61700197 75.2265625 135.6015625 C75.91492188 136.35179687 76.60328125 137.10203125 77.3125 137.875 C84.82373376 146.78305968 88.52593957 157.28455186 92.71777344 168.01147461 C95.1557664 174.15739492 97.87539662 179.82064063 101.6875 185.25 C102.30625 186.178125 102.925 187.10625 103.5625 188.0625 C110.35790051 195.05776523 119.59495702 198.23265726 129.25 198.625 C137.39960912 198.30483678 144.60908478 195.05137114 151.6875 191.25 C154.65613809 207.17269519 154.84898374 223.85754636 145.9375 238.0625 C137.95021807 248.91089785 128.08856244 255.79812964 114.6875 258.25 C98.2768191 260.11908039 82.83184277 256.51162276 69.6875 246.25 C52.16597524 231.94864736 47.30695434 209.51951499 44.66894531 188.16650391 C42.96527553 174.52547664 40.76779587 161.69708582 32.6875 150.25 C32.3575 149.26 32.0275 148.27 31.6875 147.25 C29.8367838 146.16546192 29.8367838 146.16546192 27.6875 145.25 C26.40942527 144.42781584 25.13866718 143.59416056 23.875 142.75 C18.05048636 139.09349977 12.58214507 137.72964943 5.6875 138.25 C3.1618908 139.0691165 2.09306043 139.67263411 0.57348633 141.8359375 C-0.69076354 145.28066131 -0.39241182 148.5252436 -0.17578125 152.125 C-0.13680725 152.90952042 -0.09783325 153.69404083 -0.05767822 154.50233459 C0.07464448 157.08567775 0.22401566 159.66768491 0.375 162.25 C0.4736214 164.05264028 0.57200717 165.85529346 0.67016602 167.65795898 C2.04500723 192.22399632 3.79612938 216.79872328 7.4597168 241.14233398 C7.71441566 243.49904916 7.6875 245.87956166 7.6875 248.25 C-20.0325 248.25 -47.7525 248.25 -76.3125 248.25 C-75.69375 240.391875 -75.075 232.53375 -74.4375 224.4375 C-69.40768127 158.29224383 -67.08575585 91.90622919 -72.78167725 25.74687195 C-73.4163762 18.25553137 -73.87859436 10.75529144 -74.3125 3.25 C-50.28523061 -1.16798439 -24.32250157 0.04366922 0 0 Z M-4.3125 46.25 C-6.40938937 52.07834714 -5.11754499 58.92136609 -4.75317383 65.02441406 C-4.62544358 67.2422977 -4.52436839 69.46042711 -4.42382812 71.6796875 C-4.34278818 73.09905306 -4.26015875 74.51832894 -4.17578125 75.9375 C-4.10657471 77.22011719 -4.03736816 78.50273438 -3.96606445 79.82421875 C-3.22447343 83.71140784 -2.06245897 85.45433264 0.6875 88.25 C9.94919377 92.88084688 29.3459096 90.14512242 39.1953125 87.2890625 C46.31388917 84.32112928 50.667018 79.70713776 54.6875 73.25 C56.46418767 67.91993699 56.36560186 62.41144969 54.6875 57.0625 C48.22294234 47.97171579 39.49085166 44.10175553 28.6875 42.25 C24.02357524 41.98009695 19.35841784 41.97302929 14.6875 41.9375 C13.41648437 41.90849609 12.14546875 41.87949219 10.8359375 41.84960938 C9.61132812 41.84123047 8.38671875 41.83285156 7.125 41.82421875 C5.45244141 41.80234497 5.45244141 41.80234497 3.74609375 41.7800293 C-0.0636801 42.36542319 -1.67790701 43.46205988 -4.3125 46.25 Z " fill="#CE22B6" transform="translate(517.3125,1187.75)"/>
<path d="M0 0 C27.39 0 54.78 0 83 0 C81.02 9.24 79.04 18.48 77 28 C66.46379839 93.36570081 66.46379839 93.36570081 82.30859375 154.74609375 C87.96188776 162.27946707 95.73820203 167.17156387 105 169 C115.46261326 169.86479595 123.72502395 168.52859778 132.1875 162.125 C144.26515736 150.70745752 146.5900758 132.51242771 147.06640625 116.81103516 C148.00364059 79.15764555 142.350573 41.53422598 131.63916016 5.49145508 C131 3 131 3 131 0 C158.39 0 185.78 0 214 0 C213.34 4.29 212.68 8.58 212 13 C211.35649257 17.7653233 210.77139849 22.53697551 210.19506836 27.31079102 C209.93812733 29.43232022 209.6752771 31.55306344 209.41210938 33.67382812 C208.33908333 42.43696948 207.52277997 51.18387616 207 60 C206.94432861 60.91338135 206.88865723 61.8267627 206.83129883 62.76782227 C206.1405851 75.12417719 205.96698912 87.46336677 206.0078125 99.8359375 C206.01110062 100.98559494 206.01438873 102.13525238 206.01777649 103.31974792 C206.03716903 109.13471889 206.07102185 114.94916263 206.12475586 120.76391602 C206.37262375 157.23179222 201.57410782 193.23669387 175.3671875 220.765625 C154.13662485 240.94394402 124.31427088 249.71181559 95.4765625 249.21484375 C68.81036677 248.25780908 45.82384117 239.72820994 27.03125 220.40625 C23.57220853 216.30861626 21.26295419 211.83689916 19 207 C18.33871094 205.66388672 18.33871094 205.66388672 17.6640625 204.30078125 C10.18259288 188.04558818 8.98259686 169.87846454 8.5 152.25 C8.47976776 151.55957611 8.45953552 150.86915222 8.43869019 150.1578064 C8.11732413 139.12873825 7.93321311 128.09905212 7.78515625 117.06640625 C7.31101766 81.86830424 6.60398295 47.1667473 1.44897461 12.28369141 C0.89044564 8.198746 0.45530389 4.09773497 0 0 Z " fill="#CE22B6" transform="translate(1277,1193)"/>
<path d="M0 0 C67.32 0 134.64 0 204 0 C204 21.12 204 42.24 204 64 C200.33862703 62.53545081 196.99716425 60.97202402 193.53100586 59.13085938 C180.92526279 52.49992637 168.83835572 48.80707557 154.7734375 52.96875 C144.42665302 56.81600508 138.08475799 64.44109486 133.25 74.125 C114.92436976 118.27585834 133.54509973 185.78730928 142.17138672 231.14135742 C142.53127686 233.03398315 142.53127686 233.03398315 142.8984375 234.96484375 C143.11161621 236.0643335 143.32479492 237.16382324 143.54443359 238.29663086 C144 241 144 241 144 244 C117.27 244 90.54 244 63 244 C64.25953834 235.81300077 65.55774078 227.67153312 67.05859375 219.53125 C67.44869258 217.39064775 67.83866237 215.25002199 68.22851562 213.109375 C68.83016427 209.81675592 69.43301899 206.52436971 70.03833008 203.23242188 C84.51451473 133.17627685 84.51451473 133.17627685 68.125 66.125 C61.5301628 56.98596165 54.05733711 51.16101236 42.875 48.6875 C29.42090168 46.51815701 17.43517616 49.66926937 6 57 C5.27941406 57.556875 4.55882812 58.11375 3.81640625 58.6875 C2 60 2 60 0 60 C0 40.2 0 20.4 0 0 Z " fill="#CE23B4" transform="translate(1959,1193)"/>
<path d="M0 0 C0.91652344 0.28875 1.83304688 0.5775 2.77734375 0.875 C20.8946207 7.2861691 36.31391014 22.51783533 44.8515625 39.55078125 C46.40660459 42.99408873 47.75631939 46.43314044 49 50 C49.33902344 50.96550781 49.67804688 51.93101562 50.02734375 52.92578125 C56.03120157 73.81477966 52.34598847 96.56684818 42.140625 115.3671875 C39.27901226 120.37111468 35.88757791 124.75132296 32 129 C31.40960937 129.68191406 30.81921875 130.36382812 30.2109375 131.06640625 C16.31751682 146.17180619 -4.13993041 154.02303893 -24.28515625 155.125 C-46.73033052 155.70893949 -66.15104553 147.51612276 -82.59765625 132.65234375 C-98.33807668 117.67164195 -106.30392038 97.81324226 -106.99609375 76.30078125 C-107.25271318 55.45861805 -99.64687921 36.57411024 -86 21 C-85.40703125 20.31164062 -84.8140625 19.62328125 -84.203125 18.9140625 C-75.60841572 9.62149221 -63.91299165 3.01827099 -52 -1 C-50.60007812 -1.47759766 -50.60007812 -1.47759766 -49.171875 -1.96484375 C-33.25661189 -6.48527843 -15.5510595 -5.18969309 0 0 Z " fill="#E24967" transform="translate(551,246)"/>
<path d="M0 0 C0.33 0 0.66 0 1 0 C1 1.65 1 3.3 1 5 C0.67 5 0.34 5 0 5 C0 3.35 0 1.7 0 0 Z " fill="#CD21BB" transform="translate(1719,1361)"/>
</svg>
