<?xml version="1.0" encoding="UTF-8"?>
<svg version="1.1" xmlns="http://www.w3.org/2000/svg" width="352" height="336">
<path d="M0 0 C9.75866657 2.77534632 18.84801658 6.44536768 28.046875 10.703125 C32.41032882 12.61935075 36.87201269 14.25292259 41.34765625 15.88671875 C44 17 44 17 46 19 C46 20.32 46 21.64 46 23 C46.92683594 23.31453125 47.85367188 23.6290625 48.80859375 23.953125 C50.00613281 24.38109375 51.20367187 24.8090625 52.4375 25.25 C53.63246094 25.66765625 54.82742187 26.0853125 56.05859375 26.515625 C59 28 59 28 59.91015625 30.171875 C59.93980469 30.77515625 59.96945313 31.3784375 60 32 C69.52592613 34.24139438 78.63965319 30.63702295 87 26 C89.12996215 24.26419455 91.08101155 22.41686852 93.0703125 20.5234375 C97.16602081 17.28998357 102.28076689 17.76657582 107.296875 17.65625 C108.11452332 17.63820816 108.93217163 17.62016632 109.77459717 17.60157776 C133.24516367 17.17769657 152.65355089 19.35058574 174.00976562 29.86547852 C177.84817367 31.7305374 180.74138403 32.31713098 185 32 C185.20625 31.39671875 185.4125 30.7934375 185.625 30.171875 C187.55422882 27.12457039 189.67456742 26.54500019 193 25.25 C194.0725 24.82203125 195.145 24.3940625 196.25 23.953125 C199 23 199 23 201 23 C200.67 21.35 200.34 19.7 200 18 C204.03284918 16.2365222 208.06734652 14.47688213 212.10327148 12.72045898 C213.46991756 12.12510268 214.83614405 11.5287821 216.2019043 10.93139648 C241.19977397 0 241.19977397 0 245 0 C251.40477549 13.35584066 257.42590435 26.87288847 263.41357422 40.41992188 C264.99863066 43.99690981 266.59337397 47.5694171 268.19140625 51.140625 C277.79449062 72.6194045 277.79449062 72.6194045 281.77075195 82.62744141 C283.60938873 87.22064785 285.74736576 91.60148332 288 96 C288.95269373 97.88824387 289.89231994 99.78319988 290.8125 101.6875 C291.47185547 103.02361328 291.47185547 103.02361328 292.14453125 104.38671875 C293.20936727 107.63957398 293.33596797 108.82580244 292 112 C289.33443695 113.77013936 286.41773408 114.84189333 283.44140625 115.98828125 C282.58191879 116.33634323 281.72243134 116.68440521 280.8368988 117.04301453 C278.08579073 118.15140593 275.32452604 119.23164458 272.5625 120.3125 C270.70438376 121.05882044 268.84695184 121.80684706 266.99023438 122.55664062 C263.59446153 123.91789533 260.19820622 125.27752333 256.79125977 126.6105957 C256.10588638 126.87975296 255.420513 127.14891022 254.71437073 127.42622375 C253 128 253 128 251 128 C251 128.66 251 129.32 251 130 C253.31401051 129.14976465 255.62636042 128.29548784 257.9375 127.4375 C258.6480957 127.17445068 259.35869141 126.91140137 260.09082031 126.64038086 C264.00075443 125.17736113 267.86951017 123.65212197 271.70703125 122.0078125 C272.46701416 121.68369385 273.22699707 121.3595752 274.01000977 121.02563477 C275.4821763 120.39264327 276.95030309 119.75015676 278.41381836 119.09741211 C282.09453741 117.5185762 284.18214419 116.76249896 288 118 C288.33 120.31 288.66 122.62 289 125 C280.44408038 128.81117344 271.89083867 132.51758829 263.11328125 135.796875 C258.8614372 137.43999666 254.70990452 139.29836077 250.55859375 141.1796875 C248 142 248 142 245.78515625 142.0078125 C244 141 244 141 242.75 137.9375 C242.5025 136.968125 242.255 135.99875 242 135 C241.18015625 135.3609375 240.3603125 135.721875 239.515625 136.09375 C238.43796875 136.5578125 237.3603125 137.021875 236.25 137.5 C235.18265625 137.9640625 234.1153125 138.428125 233.015625 138.90625 C230 140 230 140 226 140 C224.02 135.38 222.04 130.76 220 126 C217.90648828 128.61688965 215.81540547 131.23587079 213.75 133.875 C209.22954415 139.2883854 203.53629216 143.67477175 198 148 C198.33 148.66 198.66 149.32 199 150 C200.68712298 155.06136894 200.62145395 159.2392138 198.875 164.1875 C196.1415616 168.2876576 193.59055368 171.34786409 188.75 172.56640625 C184.87714796 173.06962222 181.76925784 173.10860525 178 172 C178.0825 172.721875 178.165 173.44375 178.25 174.1875 C177.84740423 178.71670245 175.29237525 180.90343918 171.9375 183.75 C168.81447467 185.07894695 166.85654509 185.1109077 163.5 185.1875 C159.45376703 185.3426073 159.45376703 185.3426073 156.421875 187.73046875 C155.64211546 189.1574287 154.88659769 190.59791103 154.15625 192.05078125 C153 194 153 194 149.75 196.0625 C144.16732638 197.4581684 139.41706228 196.80568743 134 195 C132.700625 195.928125 132.700625 195.928125 131.375 196.875 C127.18155749 199.51531565 123.95088044 200.50374618 119 200 C115.45861036 198.65654396 112.23960114 196.9545819 109 195 C108.175 195.639375 107.35 196.27875 106.5 196.9375 C102.81475691 199.36542486 99.40767985 200.21355038 95 200 C88.99021992 198.16650777 84.81613119 195.19985019 81.6875 189.6875 C81.460625 189.130625 81.23375 188.57375 81 188 C79.783125 188.04125 78.56625 188.0825 77.3125 188.125 C72.79125006 188.08527021 69.76585928 187.67314114 66.36328125 184.44921875 C62 179.69944639 62 179.69944639 62 175 C61.05640625 175.10441406 61.05640625 175.10441406 60.09375 175.2109375 C54.04480051 175.59355178 50.25511052 174.87879251 45.5625 170.93359375 C42.91864065 167.6618178 42.36539937 164.1107429 42 160 C41.11248047 159.85304687 41.11248047 159.85304687 40.20703125 159.703125 C35.21165102 158.75783282 31.46155409 157.97060616 28 154 C24.87080699 148.22575327 24.77907713 143.48682181 26.1640625 137.1640625 C27.07719511 134.80015846 28.18529541 133.71866172 30 132 C29.6828368 128.828368 28.22070812 125.92969949 27 123 C26.34 123 25.68 123 25 123 C24.87753906 123.53109375 24.75507812 124.0621875 24.62890625 124.609375 C23.85865792 127.53727548 22.90419117 130.38111006 21.9375 133.25 C21.57527344 134.32765625 21.21304688 135.4053125 20.83984375 136.515625 C20.56269531 137.33546875 20.28554687 138.1553125 20 139 C15.35348573 140.46133311 12.60653212 139.39260421 8.1875 137.5625 C6.44533203 136.85287109 6.44533203 136.85287109 4.66796875 136.12890625 C3.78753906 135.75636719 2.90710937 135.38382813 2 135 C1.34 137.31 0.68 139.62 0 142 C-4.55742714 141.40338354 -8.37955586 140.19244454 -12.61328125 138.41796875 C-13.53405708 138.0347924 -13.53405708 138.0347924 -14.47343445 137.64387512 C-16.42233345 136.83101557 -18.36736392 136.00931697 -20.3125 135.1875 C-21.60588543 134.64722507 -22.89950355 134.10750683 -24.19335938 133.56835938 C-30.83306843 130.79452833 -37.43885185 127.95502092 -44 125 C-43.6875 121.625 -43.6875 121.625 -43 118 C-41.515 117.01 -41.515 117.01 -40 116 C-37.53125 116.8359375 -37.53125 116.8359375 -34.5 118.375 C-28.63584548 121.24398613 -22.71376678 123.86367962 -16.6875 126.375 C-15.83285156 126.73255371 -14.97820313 127.09010742 -14.09765625 127.45849609 C-12.06593021 128.30766824 -10.03341035 129.15487088 -8 130 C-7.67 129.67 -7.34 129.34 -7 129 C-10.95706904 127.24713147 -14.9158837 125.49823899 -18.875 123.75 C-19.98359375 123.25886719 -21.0921875 122.76773438 -22.234375 122.26171875 C-28.08972332 119.67847684 -33.95626522 117.16712253 -39.91992188 114.84375 C-42.70372313 113.71454611 -45.34267789 112.39859059 -48 111 C-47.35106796 107.0155389 -46.11871384 103.61707854 -44.5234375 99.9140625 C-44.02078369 98.74294922 -43.51812988 97.57183594 -43.00024414 96.36523438 C-42.45874119 95.11838311 -41.91698858 93.87164025 -41.375 92.625 C-40.82461891 91.34968251 -40.27440786 90.07429163 -39.72436523 88.79882812 C-36.42437863 81.16849173 -33.01396629 73.60043037 -29.44140625 66.09375 C-28.04251075 63.09124259 -26.75437019 60.06534193 -25.5 57 C-23.48767841 52.0860405 -21.28327687 47.28845124 -19.01220703 42.48925781 C-15.53302771 35.08698474 -12.27189775 27.58869197 -8.99560547 20.0949707 C-6.05361658 13.37019618 -3.0563893 6.67358398 0 0 Z M96.41748047 32.42089844 C91.43930028 37.96669063 90.92303981 47.08149848 89.8125 54.125 C89.63525391 55.18332031 89.45800781 56.24164063 89.27539062 57.33203125 C88.46924672 62.29339566 87.90865351 66.96156851 88 72 C91.61999807 72.34476172 93.74391335 72.12020394 97.0625 70.5625 C102.62391677 65.71105133 105.51037624 59.17727812 107 52 C107.16847091 48.70780572 107.16847091 48.70780572 107 46 C107.58265625 46.2165625 108.1653125 46.433125 108.765625 46.65625 C117.42069766 49.59570864 126.04095066 49.99089985 135 48 C135.20625 48.680625 135.4125 49.36125 135.625 50.0625 C137.42895027 53.91639375 139.9010345 57.07787764 143 60 C143.66 60 144.32 60 145 60 C145.33 60.99 145.66 61.98 146 63 C146.66 63 147.32 63 148 63 C148 63.66 148 64.32 148 65 C148.99 65 149.98 65 151 65 C151 65.66 151 66.32 151 67 C159.82547719 74.23434549 173.8835447 79.02986097 185.31640625 78.5078125 C190.53023137 77.52120804 195.25558299 75.31838876 200 73 C199.47837285 66.7333286 197.94832305 61.60941833 195.5625 55.8125 C195.24990234 55.03197266 194.93730469 54.25144531 194.61523438 53.44726562 C193.75167126 51.29474784 192.87701429 49.14706287 192 47 C191.33222997 45.3337751 190.664938 43.66735709 190 42 C189.33097656 42.06960937 188.66195312 42.13921875 187.97265625 42.2109375 C178.72769668 42.73212985 171.56982876 40.08328381 163.11083984 36.8125 C146.39840543 30.37958516 111.89901444 18.65607728 96.41748047 32.42089844 Z M41 32 C38.12700342 35.3406937 36.84632008 38.87813583 35.5 43 C32.74459823 51.11989276 29.65717625 59.09110706 26.5 67.0625 C23.05760165 75.76277666 19.65259825 84.46795736 16.4140625 93.24609375 C15.34875714 96.11094331 14.22651301 98.94944955 13.0859375 101.78515625 C12.76012695 102.60097168 12.43431641 103.41678711 12.09863281 104.25732422 C11.46716103 105.83347019 10.82888772 107.40691475 10.18261719 108.97705078 C8.66121394 112.78745086 7.58740369 115.81627337 8 120 C8.99 120.33 9.98 120.66 11 121 C11.72316406 119.28490234 11.72316406 119.28490234 12.4609375 117.53515625 C13.0986122 116.04412275 13.73665195 114.55324534 14.375 113.0625 C14.69210938 112.30775391 15.00921875 111.55300781 15.3359375 110.77539062 C17.7734375 105.11328125 17.7734375 105.11328125 20 104 C19.71950806 104.88522339 19.71950806 104.88522339 19.43334961 105.78833008 C18.59229949 108.46028769 17.76477242 111.13624622 16.9375 113.8125 C16.64294922 114.74126953 16.34839844 115.67003906 16.04492188 116.62695312 C15.77099609 117.51962891 15.49707031 118.41230469 15.21484375 119.33203125 C14.95823975 120.15421143 14.70163574 120.9763916 14.43725586 121.82348633 C13.77918758 124.16570905 13.77918758 124.16570905 15 127 C20.56864171 112.47100381 26.11400467 97.94656628 31.18359375 83.234375 C33.43844239 76.69776067 35.78896365 70.19542748 38.125 63.6875 C41.53868914 54.16308334 44.88893931 44.62791414 48 35 C45.69 34.01 43.38 33.02 41 32 Z M197 35 C199.46538752 43.74239391 202.52374143 52.16709211 205.79052734 60.63452148 C211.05947489 74.30153614 215.99652145 88.08963392 220.83886719 101.9128418 C223.44362394 109.31843471 226.21448313 116.66085448 229 124 C230.08062462 120.75812614 229.96405231 120.10290139 229.00390625 116.98828125 C228.66069336 115.85229492 228.66069336 115.85229492 228.31054688 114.69335938 C228.06369141 113.90767578 227.81683594 113.12199219 227.5625 112.3125 C227.31951172 111.51521484 227.07652344 110.71792969 226.82617188 109.89648438 C226.22520262 107.92860466 225.6136095 105.96397505 225 104 C225.66 104 226.32 104 227 104 C227.3403125 105.1446875 227.3403125 105.1446875 227.6875 106.3125 C229.48165488 111.35322087 231.74058077 116.15345951 234 121 C235.98 120.505 235.98 120.505 238 120 C235.65099322 110.37400018 232.23532845 101.42741296 228.41577148 92.296875 C226.15290987 86.8693301 224.01912492 81.44156455 222.125 75.875 C219.41879273 67.95200764 216.37965124 60.16366271 213.3125 52.375 C212.83635254 51.16440918 212.36020508 49.95381836 211.86962891 48.70654297 C209.65527864 43.10296095 207.41936447 37.51841662 205 32 C201.91990121 32 199.68864864 33.5972268 197 35 Z M75.3125 42 C71.01180593 43.75006599 67.69475932 44.56337112 63 44 C60.8125 43 60.8125 43 59 42 C57.68 42 56.36 42 55 42 C54.73372803 42.75394043 54.46745605 43.50788086 54.19311523 44.28466797 C53.17239383 47.17045188 52.14945233 50.0554358 51.12469482 52.93978882 C50.6672496 54.22800154 50.21041984 55.51643298 49.75421143 56.80508423 C47.52642023 63.09295494 45.29798186 69.37261033 42.77734375 75.55078125 C42.29019897 76.74695068 42.29019897 76.74695068 41.79321289 77.96728516 C41.20343208 79.39335979 40.60078292 80.81421764 39.98217773 82.22802734 C37.67845389 87.79705372 36.73507941 93.3013993 38.72900391 99.1315918 C39.69215363 101.23028861 40.7467556 103.23555671 41.875 105.25 C42.60314921 106.60852574 43.32975169 107.96788181 44.0546875 109.328125 C44.39467773 109.95654297 44.73466797 110.58496094 45.08496094 111.23242188 C46.22233367 113.42948125 47.14556857 115.67954412 48 118 C48.95261719 118.02578125 49.90523437 118.0515625 50.88671875 118.078125 C52.76810547 118.16320312 52.76810547 118.16320312 54.6875 118.25 C56.54955078 118.31960937 56.54955078 118.31960937 58.44921875 118.390625 C62.46249577 119.07937221 64.14853462 120.14853462 67 123 C67.391875 123.86625 67.78375 124.7325 68.1875 125.625 C70.7865961 129.03071213 73.47051974 128.89636368 77.5625 129.5625 C80.72648775 130.13039524 82.57669713 130.86179158 85 133 C85.61159027 134.34164171 86.19219992 135.69761751 86.75 137.0625 C87.62712223 139.22929215 87.62712223 139.22929215 89 141 C91.27934707 141.86709625 93.40702973 142.18309707 95.81640625 142.53125 C99.36381247 143.29276833 100.86338243 145.17212381 103 148 C103.4125 149.19625 103.825 150.3925 104.25 151.625 C105.60150108 155.06241353 105.60150108 155.06241353 108.04296875 155.97265625 C109.6404113 156.44954367 111.24349901 156.90791073 112.8515625 157.34765625 C115.9003469 158.27337806 117.15535452 159.40383229 119 162 C119.55025759 163.41335198 120.09085133 164.83048162 120.625 166.25 C123.07344968 172.14188689 127.61860659 175.74960521 133 179 C135.69147335 179.74759904 135.69147335 179.74759904 138 180 C139.66846734 178.30504044 139.66846734 178.30504044 141 176 C140.72264277 171.34832295 138.58098454 168.84756436 135.625 165.375 C134.83351563 164.43398437 134.04203125 163.49296875 133.2265625 162.5234375 C130.73111589 159.64247329 130.73111589 159.64247329 128 157 C127.34 157 126.68 157 126 157 C126 156.34 126 155.68 126 155 C125.34 155 124.68 155 124 155 C123.71125 154.38125 123.4225 153.7625 123.125 153.125 C122.06279958 150.86674235 122.06279958 150.86674235 120 149 C119.75 146.5 119.75 146.5 120 144 C120.66 143.34 121.32 142.68 122 142 C125.31432672 142.0895764 126.73305697 142.7559378 129.1875 145 C129.60257812 145.45117188 130.01765625 145.90234375 130.4453125 146.3671875 C133.18353275 149.24300676 136.20809888 151.81032995 139.17578125 154.4453125 C141.18978695 156.26711019 143.15687666 158.10348694 145.10546875 159.9921875 C145.89038696 160.74218018 145.89038696 160.74218018 146.69116211 161.50732422 C147.70793908 162.48094589 148.71578958 163.46400197 149.71313477 164.45751953 C153.00763197 167.58467183 155.45253679 168.79446494 160 169 C160.66 168.67 161.32 168.34 162 168 C162.93190755 164.87536881 163.38091707 163.15222673 163 160 C161.15650548 156.87576192 158.56375181 154.54213502 156 152 C155.04416658 150.94868445 154.09536409 149.89094885 153.15234375 148.828125 C152.66282227 148.27866211 152.17330078 147.72919922 151.66894531 147.16308594 C150.68922734 146.06324433 149.71069094 144.96234895 148.73339844 143.86035156 C147.52961958 142.53542699 146.26895452 141.26264132 145 140 C144.34 140 143.68 140 143 140 C142.7525 139.4225 142.505 138.845 142.25 138.25 C141.09181035 135.88246369 141.09181035 135.88246369 138.9375 134.125 C136.49587952 131.44709366 136.23282668 129.57000912 136 126 C136.33 125.34 136.66 124.68 137 124 C141.16162543 124.2448015 143.41155817 124.49562129 146.625 127.25 C147.800625 128.61125 147.800625 128.61125 149 130 C150.65974826 131.67355648 152.3271856 133.33950382 154 135 C154.79019531 135.80179687 155.58039063 136.60359375 156.39453125 137.4296875 C160.83636006 141.92174701 165.30740785 146.30540566 170.125 150.39453125 C171.40108507 151.48717909 172.65067864 152.6113668 173.875 153.76171875 C177.34867389 156.98025593 177.34867389 156.98025593 181.6875 158.6875 C184.20315366 158.10807395 184.20315366 158.10807395 186.4375 155.9375 C188.36877371 153.01704912 188.36877371 153.01704912 187.4375 149.4375 C186.20173638 146.48241308 185.20631142 144.29824106 183 142 C182.34 142 181.68 142 181 142 C181 141.34 181 140.68 181 140 C180.34 140 179.68 140 179 140 C178.6596875 139.1646875 178.6596875 139.1646875 178.3125 138.3125 C176.62449964 135.33840412 174.53323483 133.27991135 172 131 C171.34 131 170.68 131 170 131 C169.938125 130.443125 169.87625 129.88625 169.8125 129.3125 C168.65552926 126.01958329 166.5346398 124.35780446 164 122 C162.9171875 120.8553125 162.9171875 120.8553125 161.8125 119.6875 C160.16877727 117.77286049 160.16877727 117.77286049 158 118 C157.773125 117.443125 157.54625 116.88625 157.3125 116.3125 C155.63832737 113.36276727 153.42167689 111.3626116 151 109 C150.443125 108.236875 149.88625 107.47375 149.3125 106.6875 C148.879375 106.130625 148.44625 105.57375 148 105 C147.34 105 146.68 105 146 105 C145.74863281 104.42507812 145.49726563 103.85015625 145.23828125 103.2578125 C143.83830319 100.70517112 142.23840451 98.93766878 140.1875 96.875 C139.52105469 96.19179687 138.85460937 95.50859375 138.16796875 94.8046875 C136.06668474 92.86209506 136.06668474 92.86209506 133.30078125 91.9453125 C132.54152344 91.63335937 131.78226562 91.32140625 131 91 C130.67 90.01 130.34 89.02 130 88 C126.50510241 85.1004853 122.72496538 82.59445141 119 80 C118.06607422 79.28457031 118.06607422 79.28457031 117.11328125 78.5546875 C114.75358931 76.78337019 113.36270608 76 110.375 76 C107.89983453 76.84391163 107.89983453 76.84391163 106.3125 78.875 C102.73413293 82.1632292 98.76068931 83.27402978 94 84 C88.90131501 83.6783164 83.99262933 82.26669672 80 79 C78.20229627 75.4088044 77.80370392 72.91319101 78.27734375 68.94921875 C78.38675293 67.98935059 78.49616211 67.02948242 78.60888672 66.04052734 C78.80248779 64.53546631 78.80248779 64.53546631 79 63 C79.12262207 61.99533691 79.24524414 60.99067383 79.37158203 59.95556641 C79.75253035 56.90554723 80.15409133 53.85895511 80.5625 50.8125 C80.77036133 49.24145508 80.77036133 49.24145508 80.98242188 47.63867188 C81.31962894 45.09217717 81.65884727 42.54596857 82 40 C79.38628834 40 77.70312845 40.94563401 75.3125 42 Z M-22 93 C-22.72307113 95.8228697 -22.71046028 98.17548716 -22 101 C-20.08817732 103.74612994 -20.08817732 103.74612994 -17 105 C-13.1862249 105 -10.97575452 104.84985071 -8.0625 102.3125 C-6.6386605 99.2135552 -6.44846173 97.37817188 -7 94 C-9.29146425 90.98836127 -10.76003818 89.27899141 -14.5 88.4375 C-18.02666021 89.23099855 -19.61054251 90.26919144 -22 93 Z M252 94 C251.16666667 97 251.16666667 97 252 100 C253.91666667 103.08333333 253.91666667 103.08333333 257 105 C260.51955419 105 262.84920059 104.63108355 265.9375 102.9375 C267.69816113 99.72688264 267.75353146 96.50004798 267 93 C264.61054251 90.26919144 263.02666021 89.23099855 259.5 88.4375 C255.76003818 89.27899141 254.29146425 90.98836127 252 94 Z M184 102 C186.88772193 103.32452899 186.88772193 103.32452899 189.19921875 102.1015625 C192.71547704 100.71859899 196.08363927 100.54627781 199.8125 100.375 C200.50537109 100.33632812 201.19824219 100.29765625 201.91210938 100.2578125 C203.60767015 100.16426432 205.30379712 100.08107636 207 100 C204.46008214 97.46008214 202.2375224 97.17502266 198.73046875 96.8203125 C193.41552765 97.17007973 188.72772887 99.68813258 184 102 Z M230 124 C231 127 231 127 231 127 Z M46.671875 130.4765625 C44.4765778 132.47695014 44.31304493 133.83131642 44 136.75 C43.96345303 138.16619517 43.95159523 139.58416052 44 141 C45.70198539 141.8776767 45.70198539 141.8776767 48 142 C50.90450005 140.36244389 50.90450005 140.36244389 53.75 138.0625 C55.22726563 136.93521484 55.22726563 136.93521484 56.734375 135.78515625 C57.85585937 134.90150391 57.85585937 134.90150391 59 134 C58.67 132.35 58.34 130.7 58 129 C53.62937326 127.36101497 50.62698994 128.38005421 46.671875 130.4765625 Z M62 145 C61.04212352 147.85826243 61 149.93466478 61 153 C62.485 153.99 62.485 153.99 64 155 C65.7541123 153.92333797 67.50312587 152.83836661 69.25 151.75 C70.22453125 151.14671875 71.1990625 150.5434375 72.203125 149.921875 C74.79705245 148.13945558 76.86377619 146.29898372 79 144 C77.77992056 141.3094472 77.77992056 141.3094472 76 139 C70.03622829 137.98179507 65.84443481 140.61422472 62 145 Z M79 158 C79.99 158.495 79.99 158.495 81 159 C80.649375 159.5775 80.29875 160.155 79.9375 160.75 C78.85082593 163.35801776 79.06934867 164.39417629 80 167 C84.50343911 166.4887988 86.87525426 164.82478642 90.3125 161.9375 C91.63701172 160.83728516 91.63701172 160.83728516 92.98828125 159.71484375 C93.65214844 159.14894531 94.31601563 158.58304688 95 158 C94.67 156.02 94.34 154.04 94 152 C87.20329807 151.15041226 84.03808005 153.60313014 79 158 Z M98 171 C97.11472891 174.68441504 97.11472891 174.68441504 97 178 C98.78966223 178.7588876 98.78966223 178.7588876 101 179 C103.15102927 177.96532216 103.15102927 177.96532216 105.125 176.3125 C105.80820313 175.79300781 106.49140625 175.27351562 107.1953125 174.73828125 C109.06556727 172.93684538 109.99575431 171.37602461 111 169 C110.34 168.01 109.68 167.02 109 166 C103.53564163 165.02855851 101.23917638 166.65024887 98 171 Z " fill="#221E1F" transform="translate(59,80)"/>
<path d="M0 0 C2.43438204 0.39012533 3.71985758 0.71912036 5.484375 2.48828125 C5.90203125 3.09027344 6.3196875 3.69226563 6.75 4.3125 C7.39195312 5.20388672 7.39195312 5.20388672 8.046875 6.11328125 C9 8 9 8 9 12 C10.216875 12.061875 11.43375 12.12375 12.6875 12.1875 C15.91179948 12.61399464 17.01536377 13.01117365 19.75 15 C21.71277063 17.6170275 22.57204648 19.33624382 23.6875 22.3125 C26.24214564 28.64081305 31.9814643 32.99073215 38 36 C38 36.66 38 37.32 38 38 C32.59510481 36.47987323 29.01507372 32.72614782 25 29 C25 29.66 25 30.32 25 31 C24.01 31 23.02 31 22 31 C23.32 32.65 24.64 34.3 26 36 C24.68 37.32 23.36 38.64 22 40 C20.515 39.505 20.515 39.505 19 39 C19 38.01 19 37.02 19 36 C18.01 36 17.02 36 16 36 C15.67 36.66 15.34 37.32 15 38 C14.67 37.01 14.34 36.02 14 35 C14.66 35 15.32 35 16 35 C16.33 34.34 16.66 33.68 17 33 C17.66 33.33 18.32 33.66 19 34 C18.67 33.01 18.34 32.02 18 31 C12.02202412 32.02403889 12.02202412 32.02403889 7.375 35.6875 C6.59125 36.450625 5.8075 37.21375 5 38 C1.6875 37.8125 1.6875 37.8125 -1 37 C-1 36.34 -1 35.68 -1 35 C-3.475 35.495 -3.475 35.495 -6 36 C-6.33 34.68 -6.66 33.36 -7 32 C-6.54109375 31.61328125 -6.0821875 31.2265625 -5.609375 30.828125 C-2.88377001 28.51479639 -0.21688308 26.21688308 2.3125 23.6875 C4.81076189 21.18923811 5.81875811 21.01318123 9.4375 20.75 C13 21 13 21 14.9375 22.5 C15.4634375 23.2425 15.4634375 23.2425 16 24 C16 23.34 16 22.68 16 22 C16.66 21.34 17.32 20.68 18 20 C17.6814823 17.89179203 17.6814823 17.89179203 17 16 C15.906875 15.896875 14.81375 15.79375 13.6875 15.6875 C10.10046342 15.01873047 9.10024928 14.80033237 7 12 C6.67 11.67 6.34 11.34 6 11 C3.54051214 11.02389158 3.54051214 11.02389158 1 12 C-0.68134288 14.35774595 -0.68134288 14.35774595 -2 17 C-3.5625 18.8125 -3.5625 18.8125 -5 20 C-5.66 20 -6.32 20 -7 20 C-6 17 -6 17 -3 15 C-3.226875 13.906875 -3.45375 12.81375 -3.6875 11.6875 C-3.790625 10.470625 -3.89375 9.25375 -4 8 C-2.625 6.375 -2.625 6.375 -1 5 C-0.27802838 2.39388923 -0.27802838 2.39388923 0 0 Z M1 28 C0.11472891 31.68441504 0.11472891 31.68441504 0 35 C1.78966223 35.7588876 1.78966223 35.7588876 4 36 C6.15102927 34.96532216 6.15102927 34.96532216 8.125 33.3125 C8.80820313 32.79300781 9.49140625 32.27351563 10.1953125 31.73828125 C12.06556727 29.93684538 12.99575431 28.37602461 14 26 C13.34 25.01 12.68 24.02 12 23 C6.53564163 22.02855851 4.23917638 23.65024887 1 28 Z " fill="#1D1B1C" transform="translate(156,223)"/>
<path d="M0 0 C0.99 0.66 1.98 1.32 3 2 C3 3.32 3 4.64 3 6 C3.92683594 6.31453125 4.85367188 6.6290625 5.80859375 6.953125 C7.00613281 7.38109375 8.20367187 7.8090625 9.4375 8.25 C10.63246094 8.66765625 11.82742187 9.0853125 13.05859375 9.515625 C16 11 16 11 16.91015625 13.171875 C16.93980469 13.77515625 16.96945313 14.3784375 17 15 C23.79707213 16.38458877 28.52086573 15.35001386 35 13 C34.22265625 14.9609375 34.22265625 14.9609375 33 17 C30.67843403 17.40729228 28.3431213 17.74438677 26 18 C25.67 18.66 25.34 19.32 25 20 C23.02 20 21.04 20 19 20 C19 19.34 19 18.68 19 18 C17.68 17.67 16.36 17.34 15 17 C15 17.99 15 18.98 15 20 C13.68 20 12.36 20 11 20 C10.67 20.99 10.34 21.98 10 23 C9.67 22.34 9.34 21.68 9 21 C8.01 21.33 7.02 21.66 6 22 C5.33895127 23.9090207 5.33895127 23.9090207 5.0625 26.1875 C4.22089346 30.69045464 2.77735911 33.38943316 0 37 C-1.72251754 32.9154674 -0.07280563 29.63026304 1.4375 25.75 C1.80198242 24.77546875 1.80198242 24.77546875 2.17382812 23.78125 C2.77285994 22.18383183 3.38514321 20.59139406 4 19 C2.02 18.01 0.04 17.02 -2 16 C-4.87961032 22.25776028 -7.40849824 28.58568506 -9.75 35.0625 C-10.06582031 35.92810547 -10.38164063 36.79371094 -10.70703125 37.68554688 C-11.47416745 39.78935978 -12.23844379 41.89416224 -13 44 C-13.66 44 -14.32 44 -15 44 C-14.49745924 39.22586274 -13.00808347 35.25138698 -11.17578125 30.8671875 C-9.40698918 26.55392046 -7.83870281 22.16613658 -6.24609375 17.78515625 C-5.07223933 15.16146282 -4.06311187 13.90763098 -2 12 C-2 11.34 -2 10.68 -2 10 C-1.34 9.67 -0.68 9.34 0 9 C-0.66 8.34 -1.32 7.68 -2 7 C-1.60467975 4.54901444 -0.78698574 2.36095721 0 0 Z " fill="#201D1E" transform="translate(102,97)"/>
<path d="M0 0 C0.495 3.465 0.495 3.465 1 7 C-7.55591962 10.81117344 -16.10916133 14.51758829 -24.88671875 17.796875 C-29.1385628 19.43999666 -33.29009548 21.29836077 -37.44140625 23.1796875 C-40 24 -40 24 -42.21484375 24.0078125 C-44 23 -44 23 -45.25 19.9375 C-45.4975 18.968125 -45.745 17.99875 -46 17 C-46.81984375 17.3609375 -47.6396875 17.721875 -48.484375 18.09375 C-49.56203125 18.5578125 -50.6396875 19.021875 -51.75 19.5 C-52.81734375 19.9640625 -53.8846875 20.428125 -54.984375 20.90625 C-58 22 -58 22 -62 22 C-62.66 20.35 -63.32 18.7 -64 17 C-63.01 17.33 -62.02 17.66 -61 18 C-61 18.66 -61 19.32 -61 20 C-60.20335937 19.6390625 -59.40671875 19.278125 -58.5859375 18.90625 C-57.52632813 18.4421875 -56.46671875 17.978125 -55.375 17.5 C-53.80878906 16.80390625 -53.80878906 16.80390625 -52.2109375 16.09375 C-48.89833703 14.96537028 -46.4676419 14.84237991 -43 15 C-40.73433657 14.56058477 -40.73433657 14.56058477 -39 14 C-39.33 15.65 -39.66 17.3 -40 19 C-38.68 18.34 -37.36 17.68 -36 17 C-35.67 17.66 -35.34 18.32 -35 19 C-34.30132812 18.71125 -33.60265625 18.4225 -32.8828125 18.125 C-31.97273438 17.75375 -31.06265625 17.3825 -30.125 17 C-29.22007812 16.62875 -28.31515625 16.2575 -27.3828125 15.875 C-25 15 -25 15 -23 15 C-22.67 14.34 -22.34 13.68 -22 13 C-20.28515625 12.2890625 -20.28515625 12.2890625 -18.0625 11.625 C-13.62120002 10.23709376 -9.35832468 8.56286806 -5.06640625 6.76953125 C-3 6 -3 6 -1 6 C-1.495 3.525 -1.495 3.525 -2 1 C-2.9075 1.474375 -3.815 1.94875 -4.75 2.4375 C-8 4 -8 4 -9.7734375 4.41796875 C-12.95348049 5.24924314 -15.859705 6.57161442 -18.875 7.875 C-20.06867188 8.38804687 -21.26234375 8.90109375 -22.4921875 9.4296875 C-24.76982203 10.44929672 -27.02086015 11.53138976 -29.234375 12.68359375 C-32.38079651 14.18125484 -34.5576711 14.24588064 -38 14 C-38.33 12.68 -38.66 11.36 -39 10 C-37.71349294 9.30289269 -36.42059335 8.61757124 -35.125 7.9375 C-34.40570313 7.55464844 -33.68640625 7.17179688 -32.9453125 6.77734375 C-31.98238281 6.39255859 -31.98238281 6.39255859 -31 6 C-30.34 6.33 -29.68 6.66 -29 7 C-34.75 10 -34.75 10 -37 10 C-37 10.66 -37 11.32 -37 12 C-34.68598949 11.14976465 -32.37363958 10.29548784 -30.0625 9.4375 C-29.3519043 9.17445068 -28.64130859 8.91140137 -27.90917969 8.64038086 C-23.99924557 7.17736113 -20.13048983 5.65212197 -16.29296875 4.0078125 C-15.53298584 3.68369385 -14.77300293 3.3595752 -13.98999023 3.02563477 C-12.5178237 2.39264327 -11.04969691 1.75015676 -9.58618164 1.09741211 C-5.90546259 -0.4814238 -3.81785581 -1.23750104 0 0 Z " fill="#0E0B0D" transform="translate(347,198)"/>
<path d="M0 0 C0.67466309 0.28198242 1.34932617 0.56396484 2.04443359 0.85449219 C5.15429838 2.15377188 8.26464592 3.45189209 11.375 4.75 C12.43589844 5.1934375 13.49679688 5.636875 14.58984375 6.09375 C16.70276564 6.97521435 18.81701636 7.85350051 20.93261719 8.72851562 C22.94238378 9.56159939 24.94842818 10.40373341 26.95019531 11.25585938 C27.84577148 11.63033203 28.74134766 12.00480469 29.6640625 12.390625 C30.45506348 12.72610352 31.24606445 13.06158203 32.06103516 13.40722656 C34.05414563 14.26008063 34.05414563 14.26008063 36 13 C35.67 14.32 35.34 15.64 35 17 C30.27670353 15.45643906 25.59725261 13.89298637 21 12 C20.01 11.67 19.02 11.34 18 11 C16.65909241 10.34870203 15.32407669 9.68486725 14 9 C14.06441184 11.42692687 14.06441184 11.42692687 15 14 C17.44584183 15.6145546 17.44584183 15.6145546 20.56640625 16.67578125 C21.69111328 17.11083984 22.81582031 17.54589844 23.97460938 17.99414062 C25.15861328 18.42919922 26.34261719 18.86425781 27.5625 19.3125 C28.75037109 19.76689453 29.93824219 20.22128906 31.16210938 20.68945312 C34.10177575 21.81101259 37.04724354 22.91347419 40 24 C40.33 23.34 40.66 22.68 41 22 C41 23.32 41 24.64 41 26 C36.44257286 25.40338354 32.62044414 24.19244454 28.38671875 22.41796875 C27.77286819 22.16251785 27.15901764 21.90706696 26.52656555 21.64387512 C24.57766655 20.83101557 22.63263608 20.00931697 20.6875 19.1875 C19.39411457 18.64722507 18.10049645 18.10750683 16.80664062 17.56835938 C10.16693157 14.79452833 3.56114815 11.95502092 -3 9 C-2.25 2.25 -2.25 2.25 0 0 Z " fill="#1B1919" transform="translate(18,196)"/>
<path d="M0 0 C3.51338901 1.4876512 5.64183258 3.49172222 8.25 6.25 C15.25036884 13.84844309 15.25036884 13.84844309 24.5 17.375 C25.325 17.25125 26.15 17.1275 27 17 C27.495 15.515 27.495 15.515 28 14 C28.495 15.485 28.495 15.485 29 17 C28.67 17.66 28.34 18.32 28 19 C24.18015204 19.77811718 21.73159669 20.24386556 18 19 C18 18.34 18 17.68 18 17 C16.68 17 15.36 17 14 17 C13.01 17 12.02 17 11 17 C8.31028119 19.68971881 8.17694972 21.93830167 7.5625 25.625 C7 28 7 28 5 30 C4.01 29.67 3.02 29.34 2 29 C2.515625 28.443125 3.03125 27.88625 3.5625 27.3125 C5.22585527 25.12974345 5.22585527 25.12974345 4.875 22.71875 C3.7329335 19.17018623 1.85378808 17.0121748 -0.5625 14.1875 C-1.38878906 13.21167969 -2.21507812 12.23585937 -3.06640625 11.23046875 C-3.70449219 10.49441406 -4.34257812 9.75835937 -5 9 C-4.34 8.67 -3.68 8.34 -3 8 C-2.5875 8.515625 -2.175 9.03125 -1.75 9.5625 C-0.88375 10.2740625 -0.88375 10.2740625 0 11 C0.66 10.835 1.32 10.67 2 10.5 C2.66 10.335 3.32 10.17 4 10 C5.75 11.4375 5.75 11.4375 7 13 C7.99 12.67 8.98 12.34 10 12 C8.90033225 10.70450101 7.79508199 9.41373929 6.6875 8.125 C6.07261719 7.40570313 5.45773438 6.68640625 4.82421875 5.9453125 C2.9587676 3.80820669 2.9587676 3.80820669 0 2 C0 1.34 0 0.68 0 0 Z " fill="#201E1F" transform="translate(194,231)"/>
<path d="M0 0 C0.12375 0.928125 0.12375 0.928125 0.25 1.875 C0.4975 2.57625 0.745 3.2775 1 4 C1.64066406 4.28101563 2.28132813 4.56203125 2.94140625 4.8515625 C5 6 5 6 6.01171875 8.09375 C6.23472656 8.8878125 6.45773438 9.681875 6.6875 10.5 C7.73341705 14.9588149 7.73341705 14.9588149 10.74609375 18.10546875 C13.30180271 19.11977959 15.32284382 19.23398798 18.0625 19.3125 C22.74498299 19.70385122 22.74498299 19.70385122 24.9375 22.25 C25.288125 23.1575 25.63875 24.065 26 25 C27.75455543 28.07047201 29.36970261 30.62020712 32 33 C29 33 29 33 27.39453125 31.609375 C26.61142578 30.68898438 26.61142578 30.68898438 25.8125 29.75 C25.28269531 29.14671875 24.75289062 28.5434375 24.20703125 27.921875 C23 26 23 26 23 22 C22.3709375 22.06960937 21.741875 22.13921875 21.09375 22.2109375 C15.04480051 22.59355178 11.25511052 21.87879251 6.5625 17.93359375 C3.91864065 14.6618178 3.36539937 11.1107429 3 7 C2.38511719 6.87882813 1.77023438 6.75765625 1.13671875 6.6328125 C0.32847656 6.46523437 -0.47976562 6.29765625 -1.3125 6.125 C-2.11300781 5.96257812 -2.91351563 5.80015625 -3.73828125 5.6328125 C-6 5 -6 5 -9 3 C-9 2.34 -9 1.68 -9 1 C-8.34 1 -7.68 1 -7 1 C-7 1.66 -7 2.32 -7 3 C-5.68 2.67 -4.36 2.34 -3 2 C-3.99 1.67 -4.98 1.34 -6 1 C-4 0 -4 0 0 0 Z " fill="#181516" transform="translate(98,233)"/>
<path d="M0 0 C1.48484412 0.39595843 2.9628831 0.81750706 4.4375 1.25 C5.26121094 1.48203125 6.08492187 1.7140625 6.93359375 1.953125 C9 3 9 3 9.83984375 4.9609375 C10.05682546 7.72348515 9.08608581 9.46579979 8 12 C7.87625 12.969375 7.7525 13.93875 7.625 14.9375 C6.86612446 18.65599017 5.23529472 20.97153619 3 24 C1.27748246 19.9154674 2.92719437 16.63026304 4.4375 12.75 C4.68048828 12.1003125 4.92347656 11.450625 5.17382812 10.78125 C5.77285994 9.18383183 6.38514321 7.59139406 7 6 C5.02 5.01 3.04 4.02 1 3 C-1.87961032 9.25776028 -4.40849824 15.58568506 -6.75 22.0625 C-7.06582031 22.92810547 -7.38164063 23.79371094 -7.70703125 24.68554688 C-8.47416745 26.78935978 -9.23844379 28.89416224 -10 31 C-10.66 31 -11.32 31 -12 31 C-11.49766102 26.22777971 -10.00787901 22.25475003 -8.1796875 17.87109375 C-6.3914242 13.51886352 -4.78219607 9.09968876 -3.1484375 4.6875 C-2 2 -2 2 0 0 Z " fill="#131112" transform="translate(99,110)"/>
<path d="M0 0 C0.66 0.66 1.32 1.32 2 2 C1.773125 2.928125 1.54625 3.85625 1.3125 4.8125 C1.1578125 6.3903125 1.1578125 6.3903125 1 8 C3.37505218 10.70848923 3.37505218 10.70848923 6 13 C6 13.99 6 14.98 6 16 C7.32 15.67 8.64 15.34 10 15 C10.66 16.65 11.32 18.3 12 20 C10.68 20.99 9.36 21.98 8 23 C7.32845067 21.71086513 6.66291141 20.41859796 6 19.125 C5.62875 18.40570313 5.2575 17.68640625 4.875 16.9453125 C4 15 4 15 4 13 C3.13375 13.495 3.13375 13.495 2.25 14 C0 15 0 15 -4 15 C-3.67 13.35 -3.34 11.7 -3 10 C-6.32534757 8.89155081 -8.62182575 9.15545644 -12 10 C-9.68118495 7.32098068 -7.68185532 6.33795597 -4.3125 5.3125 C-3.10013672 4.93544922 -3.10013672 4.93544922 -1.86328125 4.55078125 C-0.94095703 4.27814453 -0.94095703 4.27814453 0 4 C-0.33 3.01 -0.66 2.02 -1 1 C-0.67 0.67 -0.34 0.34 0 0 Z " fill="#1A1718" transform="translate(260,99)"/>
<path d="M0 0 C0.66 1.65 1.32 3.3 2 5 C1.34 5 0.68 5 0 5 C-0.33 4.34 -0.66 3.68 -1 3 C-4.473489 2.68422827 -6.37563521 2.5781319 -9.3125 4.5625 C-11.46797134 7.67595861 -11.7128051 10.26646636 -12 14 C-7.62853208 13.51428134 -5.9591701 12.16325079 -3 9 C-2.34 9 -1.68 9 -1 9 C-1 11 -1 11 -2.3203125 12.54296875 C-7.24166286 17.0275759 -7.24166286 17.0275759 -11.4375 16.875 C-12.7059375 16.441875 -12.7059375 16.441875 -14 16 C-14 15.34 -14 14.68 -14 14 C-15.65 14.33 -17.3 14.66 -19 15 C-19.33 13.68 -19.66 12.36 -20 11 C-19.54109375 10.61328125 -19.0821875 10.2265625 -18.609375 9.828125 C-15.88377001 7.51479639 -13.21688308 5.21688308 -10.6875 2.6875 C-7.38365593 -0.61634407 -4.51211784 -0.08355774 0 0 Z " fill="#151214" transform="translate(169,244)"/>
<path d="M0 0 C1.84694448 2.77041672 3.10141093 5.33213491 4.42578125 8.375 C4.89306641 9.44363281 5.36035156 10.51226562 5.84179688 11.61328125 C6.32712891 12.73089844 6.81246094 13.84851563 7.3125 15 C8.26625351 17.18779376 9.22067604 19.375296 10.17578125 21.5625 C10.64556396 22.63846436 11.11534668 23.71442871 11.59936523 24.82299805 C12.93718188 27.85751225 14.30170038 30.87807913 15.6796875 33.89453125 C17.46345666 37.79947236 19.17797458 41.71793826 20.8125 45.6875 C21.23144531 46.70199219 21.65039062 47.71648437 22.08203125 48.76171875 C22.38496094 49.50035156 22.68789063 50.23898438 23 51 C22.01 51.495 22.01 51.495 21 52 C18.80072732 47.67729163 16.70874073 43.3739059 14.81420898 38.90698242 C13.97424496 36.93967838 13.11321408 34.9828201 12.24609375 33.02734375 C11.94896484 32.35509766 11.65183594 31.68285156 11.34570312 30.99023438 C10.73814903 29.61703146 10.12876051 28.24463876 9.51757812 26.87304688 C7.79586266 22.96824122 6.27893166 19.07858305 5 15 C4.34 15 3.68 15 3 15 C2.896875 14.29875 2.79375 13.5975 2.6875 12.875 C2.09653978 9.87322975 2.09653978 9.87322975 0.375 6.9375 C-1 4 -1 4 -0.6875 1.625 C-0.460625 1.08875 -0.23375 0.5525 0 0 Z " fill="#141111" transform="translate(329,137)"/>
<path d="M0 0 C3.1875 0.3125 3.1875 0.3125 5.5625 2 C7.1875 4.3125 7.1875 4.3125 7.6875 6.8125 C7.01078543 10.19607287 5.88380038 11.16928688 3.1875 13.3125 C0.89377498 14.73565212 -1.43987546 16.01834116 -3.8125 17.3125 C-4.8025 17.9725 -5.7925 18.6325 -6.8125 19.3125 C-9.375 19.625 -9.375 19.625 -11.8125 19.3125 C-13.8125 16.3125 -13.8125 16.3125 -13.5 13.6875 C-12.8125 11.3125 -12.8125 11.3125 -11.8125 10.3125 C-12.4725 9.6525 -13.1325 8.9925 -13.8125 8.3125 C-11.75295353 5.2231803 -10.96566432 4.66985706 -7.75 3.1875 C-1.20481204 0.133868 -1.20481204 0.133868 0 0 Z M-10.8125 8.3125 C-11.77037648 11.17076243 -11.8125 13.24716478 -11.8125 16.3125 C-10.3275 17.3025 -10.3275 17.3025 -8.8125 18.3125 C-7.0583877 17.23583797 -5.30937413 16.15086661 -3.5625 15.0625 C-2.58796875 14.45921875 -1.6134375 13.8559375 -0.609375 13.234375 C1.98455245 11.45195558 4.05127619 9.61148372 6.1875 7.3125 C4.96742056 4.6219472 4.96742056 4.6219472 3.1875 2.3125 C-2.77627171 1.29429507 -6.96806519 3.92672472 -10.8125 8.3125 Z " fill="#131011" transform="translate(131.8125,216.6875)"/>
<path d="M0 0 C0.66 0.33 1.32 0.66 2 1 C1.67 2.32 1.34 3.64 1 5 C2.32 4.34 3.64 3.68 5 3 C5 3.66 5 4.32 5 5 C5.99 5.66 6.98 6.32 8 7 C1.80526919 9.97823597 1.80526919 9.97823597 -1.3125 10.0625 C-3.95061064 8.40146737 -4.12074584 5.88349291 -5 3 C-6.22976563 3.54140625 -6.22976563 3.54140625 -7.484375 4.09375 C-9.10085938 4.78984375 -9.10085938 4.78984375 -10.75 5.5 C-12.35101563 6.19609375 -12.35101563 6.19609375 -13.984375 6.90625 C-17 8 -17 8 -21 8 C-21.66 6.35 -22.32 4.7 -23 3 C-22.01 3.33 -21.02 3.66 -20 4 C-20 4.66 -20 5.32 -20 6 C-19.20335937 5.6390625 -18.40671875 5.278125 -17.5859375 4.90625 C-16.52632813 4.4421875 -15.46671875 3.978125 -14.375 3.5 C-13.33085937 3.0359375 -12.28671875 2.571875 -11.2109375 2.09375 C-7.90506441 0.96766184 -5.45874927 0.88107452 -2 1 C-1.34 0.67 -0.68 0.34 0 0 Z " fill="#161415" transform="translate(306,212)"/>
<path d="M0 0 C0 0.66 0 1.32 0 2 C1.32 2.33 2.64 2.66 4 3 C2 4 2 4 -1.625 3 C-6.87829794 1.58638528 -11.42365986 1.90505544 -16.5 4.0625 C-16.995 4.371875 -17.49 4.68125 -18 5 C-17.01 4.67 -16.02 4.34 -15 4 C-12.60509014 3.93029948 -10.20832309 3.91551997 -7.8125 3.9375 C-6.54019531 3.94652344 -5.26789063 3.95554688 -3.95703125 3.96484375 C-2.49330078 3.98224609 -2.49330078 3.98224609 -1 4 C-3.33475977 6.33475977 -4.00819709 6.30531026 -7.1875 6.5625 C-7.99316406 6.63726562 -8.79882812 6.71203125 -9.62890625 6.7890625 C-10.41136719 6.85867187 -11.19382813 6.92828125 -12 7 C-16.87628725 7.58851743 -21.32007431 8.56736969 -26 10 C-26 8.68 -26 7.36 -26 6 C-17.17801802 0.57108801 -10.30249325 -0.82298023 0 0 Z " fill="#141111" transform="translate(266,176)"/>
<path d="M0 0 C0.99 0.33 1.98 0.66 3 1 C2.86207031 2.00933594 2.72414062 3.01867187 2.58203125 4.05859375 C3.16478926 9.55394731 5.71448014 11.47844712 9.6875 15.0625 C10.94367525 16.23846633 12.19761587 17.41682463 13.44921875 18.59765625 C14.05515869 19.16452148 14.66109863 19.73138672 15.28540039 20.31542969 C17.73551899 22.7226372 19.83924788 25.33150931 22 28 C23.3303125 29.299375 23.3303125 29.299375 24.6875 30.625 C26.77125135 32.76506895 28.08992617 34.17877113 29 37 C28.70814606 38.34302277 28.37901884 39.6789271 28 41 C27.54625 39.88625 27.0925 38.7725 26.625 37.625 C24.13964894 32.60084947 20.4098608 29.16506833 16.3984375 25.32421875 C14.52070729 23.5045942 12.82516034 21.71632125 11.1875 19.6875 C8.32030608 16.16494747 5.19072992 13.02535076 1.75 10.0625 C-0.49778474 7.41332513 -0.77647125 5.42744086 -1 2 C-0.67 1.34 -0.34 0.68 0 0 Z " fill="#131112" transform="translate(195,204)"/>
<path d="M0 0 C0 0.33 0 0.66 0 1 C-0.69867188 1.17015625 -1.39734375 1.3403125 -2.1171875 1.515625 C-3.48230469 1.87914062 -3.48230469 1.87914062 -4.875 2.25 C-6.23238281 2.59804687 -6.23238281 2.59804687 -7.6171875 2.953125 C-10.10849606 3.79396635 -10.10849606 3.79396635 -11.28125 5.90625 C-12.19624637 8.57167422 -12.61988283 11.21247406 -13 14 C-9.51569692 13.37155264 -7.24883266 11.97032812 -4.375 9.9375 C-0.21411765 7 -0.21411765 7 2 7 C1.67 7.99 1.34 8.98 1 10 C-1.0625 10.6875 -1.0625 10.6875 -3 11 C-3 11.66 -3 12.32 -3 13 C-5.97 14.32 -8.94 15.64 -12 17 C-14.61912206 15.39473164 -15.82505488 14.52483536 -16.8125 11.5625 C-17.00509804 8.93032674 -16.96060626 7.44431495 -16 5 C-14.00390625 3.55078125 -14.00390625 3.55078125 -11.5625 2.3125 C-10.75941406 1.89613281 -9.95632812 1.47976562 -9.12890625 1.05078125 C-8.42636719 0.70402344 -7.72382812 0.35726562 -7 0 C-4.3333581 -1.33332095 -2.83319697 -0.67102033 0 0 Z " fill="#141112" transform="translate(117,207)"/>
<path d="M0 0 C0.99 0.33 1.98 0.66 3 1 C3.94921875 3.28515625 3.94921875 3.28515625 4.6875 6.0625 C4.93886719 6.98160156 5.19023437 7.90070313 5.44921875 8.84765625 C5.63097656 9.55792969 5.81273437 10.26820313 6 11 C3.35892646 8.53258609 2.20358597 6.42559084 1 3 C0.443125 3.70125 -0.11375 4.4025 -0.6875 5.125 C-1.450625 6.07375 -2.21375 7.0225 -3 8 C-3.7425 8.94875 -4.485 9.8975 -5.25 10.875 C-9.49612654 15.93365693 -14.49720184 21.17108802 -21 23 C-21.33 22.34 -21.66 21.68 -22 21 C-21.34 21 -20.68 21 -20 21 C-19.67 20.34 -19.34 19.68 -19 19 C-18.23945313 18.55527344 -17.47890625 18.11054688 -16.6953125 17.65234375 C-13.83872237 15.9011298 -12.05232653 14.09417575 -9.875 11.5625 C-9.21242188 10.80066406 -8.54984375 10.03882813 -7.8671875 9.25390625 C-6.1761591 7.21264393 -4.58627 5.12260198 -3 3 C-2.01834406 1.98198643 -1.02408568 0.9753197 0 0 Z M-24 22 C-23.01 22.495 -23.01 22.495 -22 23 C-22.66 23.66 -23.32 24.32 -24 25 C-24 24.01 -24 23.02 -24 22 Z " fill="#151213" transform="translate(278,203)"/>
<path d="M0 0 C0.66 0.33 1.32 0.66 2 1 C0.35 6.94 -1.3 12.88 -3 19 C-2.34 19 -1.68 19 -1 19 C-1.8125 22.4375 -1.8125 22.4375 -3 26 C-3.99 26.33 -4.98 26.66 -6 27 C-6.93425477 23.315615 -6.9684301 20.69722782 -6.125 17 C-5.85042969 15.7625 -5.85042969 15.7625 -5.5703125 14.5 C-5.28800781 13.2625 -5.28800781 13.2625 -5 12 C-4.84273438 11.13890625 -4.68546875 10.2778125 -4.5234375 9.390625 C-3.79097121 6.04533122 -2.46289557 2.46289557 0 0 Z " fill="#110E0F" transform="translate(78,183)"/>
<path d="M0 0 C0.66 0 1.32 0 2 0 C3.17133058 2.45620851 4.33721722 4.91474917 5.5 7.375 C6.00080078 8.42300781 6.00080078 8.42300781 6.51171875 9.4921875 C9 14.7734375 9 14.7734375 9 17 C9.99 17.33 10.98 17.66 12 18 C11.34 18.33 10.68 18.66 10 19 C9.01 18.34 8.02 17.68 7 17 C7.33 19.31 7.66 21.62 8 24 C6 23 6 23 5.22216797 21.09814453 C4.98127441 20.28458496 4.74038086 19.47102539 4.4921875 18.6328125 C4.22792969 17.74722656 3.96367187 16.86164063 3.69140625 15.94921875 C3.28728516 14.55123047 3.28728516 14.55123047 2.875 13.125 C2.59785156 12.20074219 2.32070313 11.27648437 2.03515625 10.32421875 C0 3.41671798 0 3.41671798 0 0 Z " fill="#100C0D" transform="translate(284,184)"/>
<path d="M0 0 C0.66 0.66 1.32 1.32 2 2 C-0.31 3.65 -2.62 5.3 -5 7 C-4.67 7.99 -4.34 8.98 -4 10 C-4.4375 12.6875 -4.4375 12.6875 -5 15 C-1.97580475 14.41196203 1.01758453 13.77321882 4 13 C1.96601893 15.3353116 0.50425372 16.81898585 -2.4375 17.875 C-6.17865053 18.05749515 -8.7240303 16.63798485 -12 15 C-11.67 14.01 -11.34 13.02 -11 12 C-10.34 11.67 -9.68 11.34 -9 11 C-8.87753906 10.39671875 -8.75507813 9.7934375 -8.62890625 9.171875 C-7.779488 6.23848028 -6.27037981 5.17555159 -3.9375 3.25 C-3.20402344 2.63640625 -2.47054687 2.0228125 -1.71484375 1.390625 C-1.14894531 0.93171875 -0.58304688 0.4728125 0 0 Z " fill="#131011" transform="translate(144,231)"/>
<path d="M0 0 C5.91183015 3.37818866 10.58814123 7.72164009 12.7734375 14.34375 C13.53715094 18.66665627 13.44026448 20.36550119 10.875 24.0625 C7.73924733 26.17572462 6.66680645 26.64169113 3 26 C0.1875 25 0.1875 25 -2 24 C-2 23.01 -2 22.02 -2 21 C-1.278125 21.33 -0.55625 21.66 0.1875 22 C3.13173758 23.04684003 4.92257371 23.56689432 8 23 C10.20572041 21.01950153 10.20572041 21.01950153 11 18 C9.8376238 14.34333574 9.8376238 14.34333574 8 11 C7.67 10.01 7.34 9.02 7 8 C6.34 8 5.68 8 5 8 C5 7.34 5 6.68 5 6 C4.34 6 3.68 6 3 6 C0 2.53846154 0 2.53846154 0 0 Z " fill="#151314" transform="translate(235,214)"/>
<path d="M0 0 C3 0 3 0 5 1.875 C5.66 2.57625 6.32 3.2775 7 4 C7.99 4.66 8.98 5.32 10 6 C10 6.66 10 7.32 10 8 C10.556875 8.226875 11.11375 8.45375 11.6875 8.6875 C14 10 14 10 16.5625 12.625 C18.7909084 15.34893236 18.7909084 15.34893236 22 15 C22.2475 15.721875 22.495 16.44375 22.75 17.1875 C24.10983674 20.24713266 25.82917754 22.4673738 28 25 C24.3222064 24.44833096 23.01435688 23.19790622 20.75 20.3125 C17.73980248 16.69378943 14.5998255 14.025188 10.78125 11.30078125 C8.6206688 9.7229884 6.82588166 7.95180453 5 6 C4.0925 5.113125 3.185 4.22625 2.25 3.3125 C0 1 0 1 0 0 Z " fill="#161314" transform="translate(181,161)"/>
<path d="M0 0 C7.32421875 2.9296875 7.32421875 2.9296875 14.6484375 5.859375 C15.5259668 6.20806641 16.40349609 6.55675781 17.30761719 6.91601562 C19.15333549 7.6591231 20.99230605 8.41914898 22.82519531 9.19335938 C23.72077148 9.56783203 24.61634766 9.94230469 25.5390625 10.328125 C26.75263428 10.84487793 26.75263428 10.84487793 27.99072266 11.37207031 C30.04190077 12.26807114 30.04190077 12.26807114 32 11 C31.67 12.32 31.34 13.64 31 15 C26.27670353 13.45643906 21.59725261 11.89298637 17 10 C16.01 9.67 15.02 9.34 14 9 C9.06836127 7.00837666 4.57695726 4.70881144 0 2 C0 1.34 0 0.68 0 0 Z " fill="#100D0E" transform="translate(22,198)"/>
<path d="M0 0 C3.51338901 1.4876512 5.64183258 3.49172222 8.25 6.25 C15.25036884 13.84844309 15.25036884 13.84844309 24.5 17.375 C25.325 17.25125 26.15 17.1275 27 17 C27.33 16.01 27.66 15.02 28 14 C28.33 14.99 28.66 15.98 29 17 C28.67 17.66 28.34 18.32 28 19 C24.18015204 19.77811718 21.73159669 20.24386556 18 19 C18 18.34 18 17.68 18 17 C17.443125 16.773125 16.88625 16.54625 16.3125 16.3125 C13.99228628 14.99562194 12.39729123 13.49105366 10.5703125 11.56640625 C7.79756414 8.80055527 4.77107532 6.31039542 1.79296875 3.76953125 C1.20128906 3.18558594 0.60960937 2.60164062 0 2 C0 1.34 0 0.68 0 0 Z " fill="#121011" transform="translate(194,231)"/>
<path d="M0 0 C0.99 0.33 1.98 0.66 3 1 C1.7625 2.051875 1.7625 2.051875 0.5 3.125 C-2.22581535 5.76706404 -2.22581535 5.76706404 -2.5625 9.0625 C-2.17825746 12.05428169 -2.17825746 12.05428169 -0.4375 14.4375 C2.02667281 16.34287189 2.02667281 16.34287189 5.625 15.875 C9.04542055 15.29259286 9.04542055 15.29259286 11 13 C11.71408334 11.01643517 12.38617742 9.01684563 13 7 C13.33 7 13.66 7 14 7 C14.49046322 12.39509537 14.49046322 12.39509537 12.125 15.3125 C8.69654227 18.03509878 6.30157704 18.27834275 1.90234375 18.22265625 C0 18 0 18 -1.875 16.6875 C-4.5404232 12.6893652 -5.668602 10.87124313 -5 6 C-3.520959 3.72732724 -1.88485657 1.9790994 0 0 Z " fill="#0F0D0E" transform="translate(314,168)"/>
<path d="M0 0 C4.82034262 0.41317222 6.90992611 2.38019915 10 6 C10 6.66 10 7.32 10 8 C9.34 8 8.68 8 8 8 C7.67 8.66 7.34 9.32 7 10 C6.1028125 9.2265625 6.1028125 9.2265625 5.1875 8.4375 C4.465625 7.963125 3.74375 7.48875 3 7 C2.01 7.33 1.02 7.66 0 8 C-0.99 7.34 -1.98 6.68 -3 6 C-3 5.01 -3 4.02 -3 3 C-2.01 3 -1.02 3 0 3 C0 2.01 0 1.02 0 0 Z " fill="#232021" transform="translate(194,235)"/>
<path d="M0 0 C0.515625 0.7425 1.03125 1.485 1.5625 2.25 C4.91067262 6.02742553 8.12579348 8.78969221 13.2421875 9.1640625 C18.54275221 8.7892751 21.86925786 7.28341042 26 4 C26 4.99 26 5.98 26 7 C21.67069024 10.6799133 17.62330236 12.27244682 12 12 C6.81598208 10.41843521 3.40659894 8.23244111 0 4 C0 2.68 0 1.36 0 0 Z " fill="#0D0A0B" transform="translate(142,268)"/>
<path d="M0 0 C3.16188214 1.12924362 5.19000073 2.64164355 7.625 4.9375 C7.625 5.5975 7.625 6.2575 7.625 6.9375 C2.75 5.1875 2.75 5.1875 1.625 2.9375 C0.305 2.9375 -1.015 2.9375 -2.375 2.9375 C-2.26259583 7.5460709 -0.99043768 9.66659798 2.1875 12.8125 C3.32169738 13.86682432 4.46392794 14.91284633 5.625 15.9375 C4.965 16.5975 4.305 17.2575 3.625 17.9375 C3.625 17.2775 3.625 16.6175 3.625 15.9375 C2.965 15.9375 2.305 15.9375 1.625 15.9375 C1.625 15.2775 1.625 14.6175 1.625 13.9375 C0.965 13.9375 0.305 13.9375 -0.375 13.9375 C-5.17253762 9.02573529 -5.17253762 9.02573529 -5.875 5.25 C-5.375 2.9375 -5.375 2.9375 -4.1875 1.0625 C-2.375 -0.0625 -2.375 -0.0625 0 0 Z " fill="#100F10" transform="translate(183.375,221.0625)"/>
<path d="M0 0 C-0.33 0.66 -0.66 1.32 -1 2 C-1.99 2.33 -2.98 2.66 -4 3 C-5.19994642 4.76951237 -5.19994642 4.76951237 -6.25 6.875 C-8.83885908 11.16665032 -11.01338775 12.75334694 -16 14 C-19.06080841 13.93165659 -21.99350325 13.5658486 -25 13 C-25 12.34 -25 11.68 -25 11 C-24.175 11.226875 -23.35 11.45375 -22.5 11.6875 C-18.08578855 12.08162602 -14.88249921 11.08611898 -11 9 C-8.05679956 6.5023299 -7.69169481 4.75491466 -7 1 C-4.53721199 -0.231394 -2.7204945 -0.07159196 0 0 Z " fill="#141313" transform="translate(221,263)"/>
<path d="M0 0 C3.64120966 0.98032568 6.82670321 2.30028348 10.25 3.875 C6.82056481 5.06271723 4.87215325 4.67726223 1.5 3.4375 C0.70078125 3.15003906 -0.0984375 2.86257812 -0.921875 2.56640625 C-1.52515625 2.33824219 -2.1284375 2.11007813 -2.75 1.875 C-3.08 3.525 -3.41 5.175 -3.75 6.875 C-10.5 6 -10.5 6 -12.75 4.875 C-12.42 3.555 -12.09 2.235 -11.75 0.875 C-9.77 1.535 -7.79 2.195 -5.75 2.875 C-5.37875 2.359375 -5.0075 1.84375 -4.625 1.3125 C-2.75 -0.125 -2.75 -0.125 0 0 Z " fill="#191718" transform="translate(63.75,213.125)"/>
<path d="M0 0 C4.35877016 3.52491848 5.57654986 7.60157941 7.25 12.75 C7.518125 13.54277344 7.78625 14.33554688 8.0625 15.15234375 C8.71887841 17.09803689 9.36088477 19.04856818 10 21 C9.01 21 8.02 21 7 21 C5.578125 19.390625 5.578125 19.390625 4.25 17.25 C3.80140625 16.55390625 3.3528125 15.8578125 2.890625 15.140625 C1.80737097 12.53701445 2.28048349 11.65353605 3 9 C2.48304561 6.60681238 2.48304561 6.60681238 1.5625 4.25 C1.27503906 3.45078125 0.98757812 2.6515625 0.69140625 1.828125 C0.46324219 1.22484375 0.23507813 0.6215625 0 0 Z " fill="#1C1A1B" transform="translate(255,118)"/>
<path d="M0 0 C2 0 2 0 3.625 1.375 C5 3 5 3 5 5 C5.66 5 6.32 5 7 5 C7 5.66 7 6.32 7 7 C7.61875 7.20625 8.2375 7.4125 8.875 7.625 C11.9314646 9.60271239 12.24624836 11.5053333 13 15 C12.68989682 18.411135 12.44323037 19.55676963 10 22 C9.01 21.67 8.02 21.34 7 21 C7.515625 20.443125 8.03125 19.88625 8.5625 19.3125 C10.22615615 17.12919367 10.22615615 17.12919367 9.875 14.71484375 C8.73489292 11.17745795 6.85951744 9.05484022 4.4375 6.25 C0 1.07176287 0 1.07176287 0 0 Z " fill="#131112" transform="translate(189,239)"/>
<path d="M0 0 C3 1 3 1 4.28125 3.29296875 C4.6834375 4.24816406 5.085625 5.20335937 5.5 6.1875 C6.85518275 9.34822834 8.20690359 12.39240337 9.8125 15.4375 C11 18 11 18 11 22 C8.44971017 20.72485508 8.06918289 19.59658703 7 17 C7 16.01 7 15.02 7 14 C6.01 14 5.02 14 4 14 C3.896875 13.175 3.79375 12.35 3.6875 11.5 C2.88353944 7.40710988 1.53647842 3.87459775 0 0 Z " fill="#191718" transform="translate(96,177)"/>
<path d="M0 0 C2.82283845 2.41210799 2.98279197 2.82505166 3.375 6.8125 C3.16705619 11.96383538 1.30341834 15.45219073 -2 19.375 C-4 21 -4 21 -7 21 C-7 20.34 -7 19.68 -7 19 C-6.01 19 -5.02 19 -4 19 C-4 18.34 -4 17.68 -4 17 C-3.34 17 -2.68 17 -2 17 C0.44064587 11.35600642 0.19289099 6.02248522 0 0 Z " fill="#100E10" transform="translate(256,230)"/>
<path d="M0 0 C2.44787699 2.20400382 3.73898358 4.2163391 5.04296875 7.23046875 C5.39423828 8.03291016 5.74550781 8.83535156 6.10742188 9.66210938 C6.46384766 10.49548828 6.82027344 11.32886719 7.1875 12.1875 C7.55552734 13.03248047 7.92355469 13.87746094 8.30273438 14.74804688 C9.2081722 16.82937797 10.10697791 18.91331882 11 21 C10.01 21 9.02 21 8 21 C6.65757579 18.06657102 5.32765933 15.12763748 4 12.1875 C3.6184375 11.35412109 3.236875 10.52074219 2.84375 9.66210938 C2.4828125 8.85966797 2.121875 8.05722656 1.75 7.23046875 C1.41484375 6.49207764 1.0796875 5.75368652 0.734375 4.99291992 C0 3 0 3 0 0 Z " fill="#110F10" transform="translate(311,99)"/>
<path d="M0 0 C7.15129696 1.87150963 13.49405457 4.49786342 20 8 C19.34 8.66 18.68 9.32 18 10 C17.278125 9.505 16.55625 9.01 15.8125 8.5 C13.14522059 6.79411765 13.14522059 6.79411765 10.375 7 C8 7 8 7 6.5 5.5625 C6.005 5.046875 5.51 4.53125 5 4 C2.39388923 3.27802838 2.39388923 3.27802838 0 3 C0 2.01 0 1.02 0 0 Z " fill="#161415" transform="translate(59,80)"/>
<path d="M0 0 C0.66 0.33 1.32 0.66 2 1 C1.71125 1.66386719 1.4225 2.32773438 1.125 3.01171875 C0.75375 3.89472656 0.3825 4.77773437 0 5.6875 C-0.37125 6.55761719 -0.7425 7.42773438 -1.125 8.32421875 C-2.01870488 11.0572002 -2.16449676 13.14700934 -2 16 C-1.34 16.33 -0.68 16.66 0 17 C0 16.01 0 15.02 0 14 C0.66 14 1.32 14 2 14 C1.34 15.65 0.68 17.3 0 19 C-2.475 18.01 -2.475 18.01 -5 17 C-4.46246904 10.81839396 -2.45417612 5.673142 0 0 Z " fill="#100C0D" transform="translate(70,184)"/>
<path d="M0 0 C2.79978846 2.79978846 3.6342087 6.01693588 5 9.6875 C5.89018503 12.13576127 5.89018503 12.13576127 8 14 C7.67 14.33 7.34 14.66 7 15 C7.28674418 17.00720923 7.61866701 19.0085944 8 21 C5.57308515 18.83385256 4.43389995 17.06019317 3.39453125 13.98828125 C3.13349609 13.23095703 2.87246094 12.47363281 2.60351562 11.69335938 C2.34248047 10.90767578 2.08144531 10.12199219 1.8125 9.3125 C1.53986328 8.51521484 1.26722656 7.71792969 0.98632812 6.89648438 C0.31637808 4.93364828 -0.34286146 2.96716231 -1 1 C-0.67 0.67 -0.34 0.34 0 0 Z " fill="#151214" transform="translate(251,125)"/>
<path d="M0 0 C0.928125 0.2784375 0.928125 0.2784375 1.875 0.5625 C4.04160178 1.23686176 4.04160178 1.23686176 6 0 C5.46930939 3.82097239 4.50298434 6.06171403 2 9 C1.67 8.34 1.34 7.68 1 7 C0.34 7.66 -0.32 8.32 -1 9 C-2.0326802 6.21176345 -2.04509293 5.1322726 -1.0625 2.25 C-0.711875 1.5075 -0.36125 0.765 0 0 Z " fill="#262223" transform="translate(108,117)"/>
<path d="M0 0 C2.31 4.95 4.62 9.9 7 15 C6.01 15.33 5.02 15.66 4 16 C4 14.68 4 13.36 4 12 C3.34 12 2.68 12 2 12 C1.01 8.7 0.02 5.4 -1 2 C-2.98 2.66 -4.96 3.32 -7 4 C-4.83989616 0.75984424 -3.8842653 0 0 0 Z " fill="#111010" transform="translate(304,80)"/>
<path d="M0 0 C1.875 0.25 1.875 0.25 4 1 C5.25 3.0625 5.25 3.0625 6 5 C6.66 5 7.32 5 8 5 C9.62109375 6.609375 9.62109375 6.609375 11.4375 8.75 C12.03433594 9.44609375 12.63117188 10.1421875 13.24609375 10.859375 C14.89081098 12.86673589 16.46126108 14.91070312 18 17 C17.34 17.33 16.68 17.66 16 18 C15.278125 17.113125 14.55625 16.22625 13.8125 15.3125 C12.03556807 13.16600673 10.25459543 11.27153645 8.25 9.3125 C6 7 6 7 5 4 C3.68352881 3.30062468 2.34977849 2.63270867 1 2 C0.67 1.34 0.34 0.68 0 0 Z " fill="#130F11" transform="translate(208,187)"/>
<path d="M0 0 C1.06542969 1.80664062 1.06542969 1.80664062 2 4 C0.953125 7.09375 0.953125 7.09375 -0.75 10.5 C-1.30171875 11.6240625 -1.8534375 12.748125 -2.421875 13.90625 C-2.94265625 14.9271875 -3.4634375 15.948125 -4 17 C-4.39703125 17.7940625 -4.7940625 18.588125 -5.203125 19.40625 C-5.46609375 19.9321875 -5.7290625 20.458125 -6 21 C-7.10861925 17.72234308 -6.92934526 16.04690481 -5.56640625 12.890625 C-5.24736328 12.13652344 -4.92832031 11.38242188 -4.59960938 10.60546875 C-4.08624023 9.43951172 -4.08624023 9.43951172 -3.5625 8.25 C-3.22412109 7.45722656 -2.88574219 6.66445312 -2.53710938 5.84765625 C-1.70154018 3.89407194 -0.85209558 1.9464328 0 0 Z " fill="#151313" transform="translate(22,162)"/>
<path d="M0 0 C4.95 1.98 4.95 1.98 10 4 C9.67 4.99 9.34 5.98 9 7 C6.23735711 7.59732819 3.83967231 8 1 8 C0.40267181 5.23735711 0 2.83967231 0 0 Z " fill="#1B191A" transform="translate(218,151)"/>
<path d="M0 0 C0.66 0 1.32 0 2 0 C2.226875 0.90105469 2.45375 1.80210937 2.6875 2.73046875 C4.21368075 6.53229402 5.75113998 7.88057716 9 10.3125 C10.3303125 11.32763672 10.3303125 11.32763672 11.6875 12.36328125 C13.88186024 14.00413282 13.88186024 14.00413282 16 15 C16 15.66 16 16.32 16 17 C11.8475886 15.59594723 9.03244231 13.63933545 5.75 10.75 C4.87859375 10.00234375 4.0071875 9.2546875 3.109375 8.484375 C0.66361454 5.60381268 0.27942977 3.71856536 0 0 Z " fill="#141313" transform="translate(178,244)"/>
<path d="M0 0 C0.66 0.33 1.32 0.66 2 1 C2 1.66 2 2.32 2 3 C1.01 3.495 1.01 3.495 0 4 C0.15103828 5.94399784 0.15103828 5.94399784 1 8 C3.0720554 9.35102993 3.0720554 9.35102993 5.5625 10.25 C6.38878906 10.58515625 7.21507812 10.9203125 8.06640625 11.265625 C9.02353516 11.62914062 9.02353516 11.62914062 10 12 C9.34 12.66 8.68 13.32 8 14 C6.5414128 13.35474023 5.08313863 12.7087728 3.625 12.0625 C2.81289063 11.70285156 2.00078125 11.34320313 1.1640625 10.97265625 C-0.23683785 10.3430097 -1.62625284 9.68687358 -3 9 C-2.25 2.25 -2.25 2.25 0 0 Z " fill="#0E0B0C" transform="translate(18,196)"/>
<path d="M0 0 C1 2 1 2 0.44140625 3.953125 C0.15136719 4.71109375 -0.13867188 5.4690625 -0.4375 6.25 C-1.76318442 9.9799939 -2.30747087 13.00287874 -2 17 C-2.99 16.67 -3.98 16.34 -5 16 C-5 16.99 -5 17.98 -5 19 C-5.66 19 -6.32 19 -7 19 C-3.57142857 3.57142857 -3.57142857 3.57142857 0 0 Z " fill="#171516" transform="translate(96,147)"/>
<path d="M0 0 C0.9590625 0.2475 0.9590625 0.2475 1.9375 0.5 C4.04582216 1.24598544 4.04582216 1.24598544 6 0 C5.67 0.99 5.34 1.98 5 3 C4.34 3 3.68 3 3 3 C2.67 3.66 2.34 4.32 2 5 C1.34 4.835 0.68 4.67 0 4.5 C-3.73099794 3.87816701 -7.21873378 3.93591074 -11 4 C-11.33 3.34 -11.66 2.68 -12 2 C-11.21753906 1.93941406 -10.43507812 1.87882812 -9.62890625 1.81640625 C-8.61699219 1.73261719 -7.60507813 1.64882812 -6.5625 1.5625 C-5.55316406 1.48128906 -4.54382813 1.40007812 -3.50390625 1.31640625 C-1.06359221 1.26788532 -1.06359221 1.26788532 0 0 Z " fill="#191516" transform="translate(248,119)"/>
<path d="M0 0 C0.33 0 0.66 0 1 0 C1 1.65 1 3.3 1 5 C-3.88412826 7.61332577 -8.53777242 9.92897499 -14 11 C-14.99 10.34 -15.98 9.68 -17 9 C-15.08396843 8.35228492 -13.16714887 7.70690052 -11.25 7.0625 C-10.18265625 6.70285156 -9.1153125 6.34320313 -8.015625 5.97265625 C-5.68264275 5.22017881 -3.38625005 4.55022756 -1 4 C-0.67 2.68 -0.34 1.36 0 0 Z " fill="#131112" transform="translate(260,149)"/>
<path d="M0 0 C1.32 0 2.64 0 4 0 C3.125 6.875 3.125 6.875 2 8 C1.95919217 9.99958364 1.95745644 12.00045254 2 14 C1.34 14 0.68 14 0 14 C-0.77916092 8.97874074 -1.13016601 5.02296004 0 0 Z " fill="#1A1819" transform="translate(137,143)"/>
<path d="M0 0 C1.32 0.66 2.64 1.32 4 2 C2.9171875 2.61875 2.9171875 2.61875 1.8125 3.25 C-1.06218775 4.95660009 -1.06218775 4.95660009 -3.6875 7.1875 C-6 9 -6 9 -8 9 C-6.4169423 4.7257442 -3.49431596 2.73468206 0 0 Z " fill="#171415" transform="translate(154,99)"/>
<path d="M0 0 C0.87011719 0.50660156 0.87011719 0.50660156 1.7578125 1.0234375 C6.09001059 3.49693674 10.16670766 5.6367637 15 7 C15 7.33 15 7.66 15 8 C8.88797464 7.72835443 4.69128998 7.08984255 0 3 C0 2.01 0 1.02 0 0 Z " fill="#0F0D0E" transform="translate(169,272)"/>
<path d="M0 0 C4.15672685 4.78023587 7 10.68147308 7 17 C6.34 17 5.68 17 5 17 C4.15838146 14.91999989 3.32699237 12.83585854 2.5 10.75 C2.0359375 9.58984375 1.571875 8.4296875 1.09375 7.234375 C0 4 0 4 0 0 Z " fill="#161313" transform="translate(269,123)"/>
<path d="M0 0 C3.75008598 0.78490172 5.19308681 2.73465143 7.52734375 5.671875 C9.00515821 8.08016523 9.19078619 9.79442595 8.6875 12.5625 C8.460625 12.005625 8.23375 11.44875 8 10.875 C6.25211312 7.79538978 4.42880919 5.81646534 1.6875 3.5625 C-1.99691504 2.67722891 -1.99691504 2.67722891 -5.3125 2.5625 C-2.3125 0.5625 -2.3125 0.5625 0 0 Z " fill="#171415" transform="translate(45.3125,166.4375)"/>
<path d="M0 0 C1 2 1 2 0.328125 4.2421875 C-0.02765625 5.11101562 -0.3834375 5.97984375 -0.75 6.875 C-1.26820312 8.17050781 -1.26820312 8.17050781 -1.796875 9.4921875 C-2.96872009 11.93479968 -4.3000799 13.89952401 -6 16 C-5.53118166 10.37417987 -4.15551956 4.15551956 0 0 Z " fill="#151313" transform="translate(58,84)"/>
<path d="M0 0 C0.99 0.66 1.98 1.32 3 2 C3 3.32 3 4.64 3 6 C4.4166747 7.7511573 4.4166747 7.7511573 6 9 C3.36 8.67 0.72 8.34 -2 8 C-1.47731534 5.23723823 -0.89130413 2.6739124 0 0 Z " fill="#141213" transform="translate(102,97)"/>
<path d="M0 0 C0.66 0 1.32 0 2 0 C2.69906942 1.59915881 3.38389468 3.20455045 4.0625 4.8125 C4.63677734 6.15248047 4.63677734 6.15248047 5.22265625 7.51953125 C6 10 6 10 5 13 C2.03472242 10.5546615 1.44417786 8.55397653 0.8125 4.8125 C0.65394531 3.91144531 0.49539063 3.01039063 0.33203125 2.08203125 C0.22246094 1.39496094 0.11289062 0.70789063 0 0 Z " fill="#151313" transform="translate(264,141)"/>
<path d="M0 0 C0 0.99 0 1.98 0 3 C-5.75 5 -5.75 5 -8 5 C-8.33 5.66 -8.66 6.32 -9 7 C-10.65 6.67 -12.3 6.34 -14 6 C-11.09091772 4.06061181 -8.59137621 3.03225043 -5.3125 1.875 C-4.31863281 1.52179688 -3.32476562 1.16859375 -2.30078125 0.8046875 C-1.54152344 0.53914063 -0.78226563 0.27359375 0 0 Z " fill="#181415" transform="translate(136,110)"/>
<path d="M0 0 C3.03840179 2.73707268 4.59622686 4.82717131 5.75 8.75 C5.99234375 9.54921875 6.2346875 10.3484375 6.484375 11.171875 C6.73960937 12.07679688 6.73960937 12.07679688 7 13 C5.109375 12.3515625 5.109375 12.3515625 3 11 C1.953125 8.3984375 1.953125 8.3984375 1.25 5.375 C1.00765625 4.37210937 0.7653125 3.36921875 0.515625 2.3359375 C0.34546875 1.56507812 0.1753125 0.79421875 0 0 Z " fill="#161314" transform="translate(255,118)"/>
<path d="M0 0 C0.66 0 1.32 0 2 0 C2 2 2 2 0.6796875 3.54296875 C-4.24166286 8.0275759 -4.24166286 8.0275759 -8.4375 7.875 C-9.283125 7.58625 -10.12875 7.2975 -11 7 C-9 5 -9 5 -6.625 4.625 C-3.38367779 3.85325662 -2.23667938 2.39093313 0 0 Z " fill="#100D0D" transform="translate(166,253)"/>
<path d="M0 0 C0.99 0.66 1.98 1.32 3 2 C4.9896995 2.39013716 6.99019869 2.73202649 9 3 C9 3.66 9 4.32 9 5 C1.57142857 5.28571429 1.57142857 5.28571429 -2 3 C-2 2.34 -2 1.68 -2 1 C-1.34 0.67 -0.68 0.34 0 0 Z " fill="#1B1718" transform="translate(120,120)"/>
<path d="M0 0 C2.80048365 1.40024183 3.02054503 3.42908914 4.13671875 6.2109375 C5.31173528 8.64603963 6.96868134 10.24886323 9 12 C6 12 6 12 4.39453125 10.64453125 C0.08322545 5.65193268 0.08322545 5.65193268 -0.375 2.0625 C-0.25125 1.381875 -0.1275 0.70125 0 0 Z " fill="#120E0F" transform="translate(121,254)"/>
<path d="M0 0 C3.10011632 2.53645881 4.0575938 5.15184135 5 9 C4.625 11.375 4.625 11.375 4 13 C3.01 11.02 2.02 9.04 1 7 C1.33 6.67 1.66 6.34 2 6 C1.34 5.67 0.68 5.34 0 5 C0 3.35 0 1.7 0 0 Z " fill="#181515" transform="translate(271,160)"/>
<path d="M0 0 C0.66 0 1.32 0 2 0 C5.125 6.625 5.125 6.625 4 10 C2.68 9.67 1.36 9.34 0 9 C0.185625 8.2575 0.37125 7.515 0.5625 6.75 C0.99203108 4.05009037 0.85122974 2.55368923 0 0 Z " fill="#151515" transform="translate(321,122)"/>
<path d="M0 0 C0.66 0.66 1.32 1.32 2 2 C0.75539217 2.67667998 -0.49596896 3.34094719 -1.75 4 C-2.79414063 4.556875 -2.79414063 4.556875 -3.859375 5.125 C-6 6 -6 6 -10 6 C-10 5.34 -10 4.68 -10 4 C-6.7 2.68 -3.4 1.36 0 0 Z " fill="#111010" transform="translate(294,83)"/>
<path d="M0 0 C1.32 0.99 2.64 1.98 4 3 C2.68 4.32 1.36 5.64 0 7 C-0.99 6.67 -1.98 6.34 -3 6 C-2.67 4.68 -2.34 3.36 -2 2 C-1.34 2 -0.68 2 0 2 C0 1.34 0 0.68 0 0 Z " fill="#1A1617" transform="translate(178,256)"/>
<path d="M0 0 C0.99 0.99 1.98 1.98 3 3 C1.28032649 6.02990095 -0.29238306 8.76327296 -3 11 C-3.66 11 -4.32 11 -5 11 C-4 8 -4 8 -1 6 C-0.26656572 2.93443402 -0.26656572 2.93443402 0 0 Z " fill="#0E0C0D" transform="translate(154,232)"/>
<path d="M0 0 C0.66 0.99 1.32 1.98 2 3 C1.390625 5.2265625 1.390625 5.2265625 0.25 7.625 C-0.11609375 8.42164063 -0.4821875 9.21828125 -0.859375 10.0390625 C-2 12 -2 12 -4 13 C-3.50269348 8.02693484 -2.44697666 4.36200187 0 0 Z " fill="#1A1718" transform="translate(107,136)"/>
<path d="M0 0 C0 0.66 0 1.32 0 2 C-3.15506142 2.93619813 -5.96586502 3.1057123 -9.25 3.0625 C-10.14203125 3.05347656 -11.0340625 3.04445312 -11.953125 3.03515625 C-12.62859375 3.02355469 -13.3040625 3.01195312 -14 3 C-14 2.67 -14 2.34 -14 2 C-9.15758367 0.66416101 -5.06562383 -0.25328119 0 0 Z " fill="#1A1718" transform="translate(194,128)"/>
<path d="M0 0 C0.66 0.33 1.32 0.66 2 1 C0.81924981 3.36150039 -0.12464639 3.87241994 -2.375 5.1875 C-2.98085937 5.55230469 -3.58671875 5.91710937 -4.2109375 6.29296875 C-6 7 -6 7 -9 6 C-6.03 4.02 -3.06 2.04 0 0 Z " fill="#121011" transform="translate(193,272)"/>
<path d="M0 0 C1.32 1.32 2.64 2.64 4 4 C3.34 5.32 2.68 6.64 2 8 C1.34 8 0.68 8 0 8 C-1.125 2.25 -1.125 2.25 0 0 Z " fill="#191718" transform="translate(70,176)"/>
<path d="M0 0 C0.66 0 1.32 0 2 0 C1 3 1 3 -0.77734375 4.16796875 C-1.49019531 4.50441406 -2.20304688 4.84085938 -2.9375 5.1875 C-4.00291016 5.70376953 -4.00291016 5.70376953 -5.08984375 6.23046875 C-7 7 -7 7 -9 7 C-9 6.34 -9 5.68 -9 5 C-8.43410156 4.72285156 -7.86820313 4.44570312 -7.28515625 4.16015625 C-6.55167969 3.79792969 -5.81820312 3.43570313 -5.0625 3.0625 C-3.96615234 2.52302734 -3.96615234 2.52302734 -2.84765625 1.97265625 C-1.03750973 1.13628173 -1.03750973 1.13628173 0 0 Z " fill="#171516" transform="translate(165,157)"/>
<path d="M0 0 C1.485 0.99 1.485 0.99 3 2 C3.66 1.67 4.32 1.34 5 1 C5.33 1.99 5.66 2.98 6 4 C5.01 5.485 5.01 5.485 4 7 C2 5.75 2 5.75 0 4 C0 2.68 0 1.36 0 0 Z M0 6 C0.66 6.33 1.32 6.66 2 7 C1.67 7.66 1.34 8.32 1 9 C0.34 8.67 -0.32 8.34 -1 8 C-0.67 7.34 -0.34 6.68 0 6 Z " fill="#1A1919" transform="translate(142,142)"/>
<path d="M0 0 C0.66 0.33 1.32 0.66 2 1 C1.43224464 2.29858939 0.84508337 3.58870441 0.25 4.875 C-0.07484375 5.59429687 -0.3996875 6.31359375 -0.734375 7.0546875 C-2.21929686 9.3370674 -3.50415408 10.00375898 -6 11 C-4.18690997 7.22272911 -2.0926741 3.62730178 0 0 Z " fill="#171415" transform="translate(163,140)"/>
<path d="M0 0 C0 0.66 0 1.32 0 2 C-2.97 2.66 -5.94 3.32 -9 4 C-9.33 3.01 -9.66 2.02 -10 1 C-6.78548731 -0.60725635 -3.56387464 -0.05748185 0 0 Z " fill="#1B1819" transform="translate(139,119)"/>
<path d="M0 0 C1.86382956 3.58428762 3.41755568 7.28469595 5 11 C5.33 11.66 5.66 12.32 6 13 C3.67241689 12.06896676 2.25642868 11.34617872 0.75 9.3125 C-0.27095909 6.16454282 -0.12632947 3.28456632 0 0 Z " fill="#0F0E0E" transform="translate(102,239)"/>
<path d="M0 0 C0.99 0.33 1.98 0.66 3 1 C3.94921875 3.28515625 3.94921875 3.28515625 4.6875 6.0625 C4.93886719 6.98160156 5.19023437 7.90070313 5.44921875 8.84765625 C5.63097656 9.55792969 5.81273437 10.26820313 6 11 C3.33662747 8.51079897 2.30839895 6.40183728 1 3 C0.34 2.34 -0.32 1.68 -1 1 C-0.67 0.67 -0.34 0.34 0 0 Z " fill="#0E0C0D" transform="translate(278,203)"/>
<path d="M0 0 C3.10011632 2.53645881 4.0575938 5.15184135 5 9 C4.625 11.375 4.625 11.375 4 13 C1.97944157 8.60748167 0.59104765 4.84659077 0 0 Z " fill="#120F10" transform="translate(276,174)"/>
<path d="M0 0 C1.08892712 2.83121051 0.96109941 4.16532751 0.25 7.1875 C-0.36875 8.5796875 -0.36875 8.5796875 -1 10 C-1.99 10.33 -2.98 10.66 -4 11 C-3.5247412 9.35303396 -3.04468109 7.70745272 -2.5625 6.0625 C-2.29566406 5.14597656 -2.02882813 4.22945313 -1.75390625 3.28515625 C-1 1 -1 1 0 0 Z " fill="#171314" transform="translate(113,121)"/>
<path d="M0 0 C-2 2 -2 2 -3.9453125 2.1953125 C-5.96354167 2.13020833 -7.98177083 2.06510417 -10 2 C-10.33 1.34 -10.66 0.68 -11 0 C-7.18243176 -1.37432457 -3.92744671 -0.67975039 0 0 Z " fill="#131212" transform="translate(142,266)"/>
<path d="M0 0 C0.66 0 1.32 0 2 0 C4.42857143 6.28571429 4.42857143 6.28571429 3 10 C0.64551835 7.44931155 0.01672076 6.28982642 -0.1875 2.75 C-0.125625 1.8425 -0.06375 0.935 0 0 Z " fill="#161213" transform="translate(284,196)"/>
<path d="M0 0 C0.66 0 1.32 0 2 0 C2.5625 1.9375 2.5625 1.9375 3 4 C1.41727399 5.58272601 -0.38034003 5.34735747 -2.5625 5.5625 C-3.80193359 5.68818359 -3.80193359 5.68818359 -5.06640625 5.81640625 C-6.02353516 5.90728516 -6.02353516 5.90728516 -7 6 C-7.33 5.34 -7.66 4.68 -8 4 C-4.535 3.505 -4.535 3.505 -1 3 C-0.67 2.01 -0.34 1.02 0 0 Z " fill="#151112" transform="translate(245,109)"/>
<path d="M0 0 C0.66 0 1.32 0 2 0 C2.41176754 3.60296594 2.1535853 4.78402067 0 7.8125 C-0.66 8.534375 -1.32 9.25625 -2 10 C-1.125 2.25 -1.125 2.25 0 0 Z " fill="#181416" transform="translate(99,136)"/>
<path d="M0 0 C-2.17413762 2.17413762 -3.06553116 2.46646021 -6 3 C-6.99 3 -7.98 3 -9 3 C-9 2.34 -9 1.68 -9 1 C-5.57367167 -0.61798838 -3.61944899 -1.34053666 0 0 Z " fill="#1A1717" transform="translate(272,95)"/>
<path d="M0 0 C0.66 0.66 1.32 1.32 2 2 C1.625 4.125 1.625 4.125 1 6 C-0.65 6.33 -2.3 6.66 -4 7 C-4 6.34 -4 5.68 -4 5 C-2.68 4.67 -1.36 4.34 0 4 C-0.33 3.01 -0.66 2.02 -1 1 C-0.67 0.67 -0.34 0.34 0 0 Z " fill="#0F0E0E" transform="translate(260,99)"/>
<path d="M0 0 C6.15234375 0.5859375 6.15234375 0.5859375 8 1 C8.33 1.66 8.66 2.32 9 3 C6.03 2.67 3.06 2.34 0 2 C0 1.34 0 0.68 0 0 Z " fill="#0E0C0D" transform="translate(196,274)"/>
<path d="M0 0 C0.33 0 0.66 0 1 0 C1.25 5.625 1.25 5.625 -1 9 C-1.99 8.67 -2.98 8.34 -4 8 C-3.525625 7.236875 -3.05125 6.47375 -2.5625 5.6875 C-0.89893903 3.03589452 -0.89893903 3.03589452 0 0 Z " fill="#0F090C" transform="translate(247,229)"/>
<path d="M0 0 C4.24822374 0.47202486 6.19989709 2.96655518 9 6 C4.58763974 6 3.21615077 3.9302707 0 1 C0 0.67 0 0.34 0 0 Z " fill="#131011" transform="translate(218,222)"/>
<path d="M0 0 C0 4.38968456 -2.12805101 5.76905739 -5 9 C-5.33 8.34 -5.66 7.68 -6 7 C-4.02 4.69 -2.04 2.38 0 0 Z " fill="#0F0B0C" transform="translate(91,210)"/>
<path d="M0 0 C0.66 0 1.32 0 2 0 C3.76462683 3.08809695 4 4.23312136 4 8 C1.44971017 6.72485508 1.06918289 5.59658703 0 3 C0 2.01 0 1.02 0 0 Z " fill="#131112" transform="translate(103,191)"/>
<path d="M0 0 C0.66 0.33 1.32 0.66 2 1 C1.74438677 3.3431213 1.40729228 5.67843403 1 8 C0.01 8.495 0.01 8.495 -1 9 C-1.09765625 2.84765625 -1.09765625 2.84765625 -1 1 C-0.67 0.67 -0.34 0.34 0 0 Z " fill="#151414" transform="translate(36,170)"/>
<path d="M0 0 C3.79588866 0.54226981 5.47211993 2.20127563 8 5 C7.67 5.66 7.34 6.32 7 7 C6.21625 6.360625 5.4325 5.72125 4.625 5.0625 C2.20460719 3.01857687 2.20460719 3.01857687 0 2 C0 1.34 0 0.68 0 0 Z " fill="#100D0E" transform="translate(319,167)"/>
<path d="M0 0 C0.66 0.99 1.32 1.98 2 3 C0.515 5.475 0.515 5.475 -1 8 C-1.66 7.34 -2.32 6.68 -3 6 C-2.625 3.875 -2.625 3.875 -2 2 C-1.34 2 -0.68 2 0 2 C0 1.34 0 0.68 0 0 Z " fill="#171516" transform="translate(78,162)"/>
<path d="M0 0 C3.3 0.66 6.6 1.32 10 2 C6.1273408 2.9681648 2.96388638 3.07622858 -1 3 C-0.67 2.01 -0.34 1.02 0 0 Z " fill="#2A2429" transform="translate(199,99)"/>
</svg>
