<?xml version="1.0" encoding="UTF-8"?>
<svg version="1.1" xmlns="http://www.w3.org/2000/svg" width="352" height="336">
<path d="M0 0 C6.06702829 0.57546339 11.22547205 2.39512835 16.875 4.625 C17.78741455 4.97965332 18.6998291 5.33430664 19.63989258 5.69970703 C22.43072311 6.78965162 25.21606711 7.89256824 28 9 C28.85803223 9.33966797 29.71606445 9.67933594 30.60009766 10.02929688 C32.96603003 10.96952575 35.32777949 11.91930035 37.6875 12.875 C38.3995459 13.16068848 39.1115918 13.44637695 39.84521484 13.74072266 C42.68710522 14.90959294 44.80458581 15.80458581 47 18 C47.125 20.625 47.125 20.625 47 23 C47.59167969 23.10957031 48.18335937 23.21914062 48.79296875 23.33203125 C57.5228866 25.08371134 57.5228866 25.08371134 61 28 C61 29.32 61 30.64 61 32 C73.30382322 31.32165233 83.0574538 28.78545517 92.625 20.8125 C99.24796188 15.75813435 107.27002712 16.65379823 115.1875 16.6875 C116.19251556 16.69023422 116.19251556 16.69023422 117.21783447 16.69302368 C138.04699254 16.788479 156.26320442 20.63381012 175.359375 28.9296875 C178.86052544 30.34879286 182.30875065 31.21915879 186 32 C186.06574219 31.39671875 186.13148438 30.7934375 186.19921875 30.171875 C187.32978952 27.10554648 188.90593355 26.62881044 191.8125 25.25 C192.68519531 24.82203125 193.55789062 24.3940625 194.45703125 23.953125 C197 23 197 23 201 23 C201 21.02 201 19.04 201 17 C204.92628588 15.21662076 208.85500333 13.43873729 212.78588867 11.66552734 C214.11792074 11.06377812 215.44932149 10.46062908 216.7800293 9.85595703 C239.11391209 -0.28892532 239.11391209 -0.28892532 247 0 C257.15602605 21.76887398 267.12101013 43.60589395 276.69824219 65.63623047 C279.90709415 73.00933191 283.125838 80.36800008 286.57421875 87.6328125 C287.09765869 88.74084229 287.62109863 89.84887207 288.16040039 90.99047852 C289.09496788 92.95074901 290.04213117 94.9050976 291.00561523 96.85131836 C293.55031701 102.1844556 294.71467601 106.07083608 294 112 C291.625 113.9375 291.625 113.9375 289 115 C288.34 115.33 287.68 115.66 287 116 C287.99 116.66 288.98 117.32 290 118 C290.40843923 120.71203652 290.13336867 123.2437142 290 126 C284.72324685 128.29487074 279.43965992 130.57291441 274.14916992 132.8359375 C272.35196665 133.60743882 270.55668444 134.38343181 268.76342773 135.1640625 C266.17929168 136.28803624 263.58858336 137.39545475 260.99609375 138.5 C260.20101913 138.84998047 259.40594452 139.19996094 258.58677673 139.56054688 C253.93069012 141.52236778 250.14840905 142.68289778 245 142 C243 139 243 139 243 136 C242.1646875 136.433125 242.1646875 136.433125 241.3125 136.875 C235.87587404 139.51984506 232.03305351 140.43876753 226 140 C224.35 136.04 222.7 132.08 221 128 C219.82244141 129.30324219 219.82244141 129.30324219 218.62109375 130.6328125 C207.64360638 142.70595167 207.64360638 142.70595167 202 147 C201.34 147 200.68 147 200 147 C200.350625 147.94875 200.70125 148.8975 201.0625 149.875 C202.38877737 154.70225955 202.43216005 159.18614266 201 164 C198.35056535 168.1333891 195.7189874 171.4270042 191 173 C189.10529184 173.0685495 187.2083166 173.08480372 185.3125 173.0625 C184.31863281 173.05347656 183.32476562 173.04445312 182.30078125 173.03515625 C181.16189453 173.01775391 181.16189453 173.01775391 180 173 C179.87753906 173.75925781 179.75507813 174.51851562 179.62890625 175.30078125 C178.75523688 179.05050505 176.9482666 181.60498837 174 184 C171.39218152 185.05515507 168.76831536 185.5412506 166 186 C161.30319214 186.87567604 158.94945569 187.60794897 156.25 191.5 C155.88390625 192.1084375 155.5178125 192.716875 155.140625 193.34375 C154 195 154 195 151 197 C147.42380838 197.08376009 143.90672711 196.99546206 140.3359375 196.83398438 C135.57660166 196.71333688 132.99973771 197.16744554 129 200 C122.83278479 201.5418038 119.62862938 200.84730815 114.078125 197.8125 C111.56695784 196.83069028 110.49202288 197.07722165 108 198 C107.29875 198.350625 106.5975 198.70125 105.875 199.0625 C100.84417348 200.70298691 95.70149809 201.07598129 90.71484375 199.08984375 C87.09570949 196.98601056 85.24963062 195.43269308 83.125 191.75 C81.32774144 188.81449595 81.32774144 188.81449595 78.71484375 188.50390625 C76.94547366 188.37621975 75.17435984 188.27076654 73.40234375 188.1875 C70.18393244 187.93630692 68.45034627 187.09000123 66 185 C62 179.81081081 62 179.81081081 62 176 C60.845 176.0825 59.69 176.165 58.5 176.25 C53.64142312 176.2327404 49.89943502 174.90440677 46 172 C43.18405195 167.95207468 42.65150218 164.87896945 43 160 C42.41992188 159.98582031 41.83984375 159.97164062 41.2421875 159.95703125 C35.14284441 159.58462911 32.19270484 158.49948812 28 154 C25.44131514 148.77747884 25.39139721 143.71217192 26 138 C26.515625 137.154375 27.03125 136.30875 27.5625 135.4375 C29.89950202 131.47475745 28.70954781 127.40261594 28 123 C27.34 123 26.68 123 26 123 C25.9175 123.94875 25.835 124.8975 25.75 125.875 C25.06008234 130.88977467 22.99662356 135.38454926 21 140 C14.09647445 140.51137226 9.25172386 138.86964374 3 136 C2.505 138.97 2.505 138.97 2 142 C-6.10894971 141.76258841 -12.56500895 139.50160217 -19.9375 136.25 C-21.44860352 135.60417969 -21.44860352 135.60417969 -22.99023438 134.9453125 C-29.70411253 132.06115134 -36.35840349 129.04634874 -43 126 C-43.25 118.375 -43.25 118.375 -41 115 C-42.98 114.01 -44.96 113.02 -47 112 C-46.52182331 105.00872705 -44.39396538 99.40051558 -41.625 93 C-41.18164307 91.95545654 -40.73828613 90.91091309 -40.28149414 89.8347168 C-36.68446114 81.4261091 -32.89380302 73.10919975 -29.04638672 64.81274414 C-25.99985258 58.23350384 -23.0790248 51.61300056 -20.25 44.9375 C-17.25023859 37.86312276 -14.12677123 30.87477192 -10.83984375 23.9296875 C-7.10568871 16.00951329 -3.5766385 7.9921813 0 0 Z M97 33 C92.74671098 39.93220168 91.79411616 46.76507889 90.75 54.75 C90.57726562 55.96816406 90.40453125 57.18632812 90.2265625 58.44140625 C89.59208872 63.00861038 89 67.38360888 89 72 C94.96501922 71.85468527 94.96501922 71.85468527 99.6875 68.5 C100.49121057 67.3557341 101.2597889 66.1863316 102 65 C102.45503906 64.32453125 102.91007813 63.6490625 103.37890625 62.953125 C106.84011501 57.3915246 107.85048038 52.51089977 108 46 C108.87785156 46.34224609 108.87785156 46.34224609 109.7734375 46.69140625 C118.94077546 49.76095034 127.54048067 48.86374049 137 48 C137.13809082 48.61584961 137.27618164 49.23169922 137.41845703 49.86621094 C138.12384911 52.45442538 139.27675099 54.10309835 140.875 56.25 C141.38804687 56.95640625 141.90109375 57.6628125 142.4296875 58.390625 C142.94789063 58.92171875 143.46609375 59.4528125 144 60 C144.99 60 145.98 60 147 60 C147 60.99 147 61.98 147 63 C147.66 63 148.32 63 149 63 C149 63.66 149 64.32 149 65 C149.99 65 150.98 65 152 65 C152 65.66 152 66.32 152 67 C157.14057888 71.08610116 163.34820221 74 170 74 C170 74.66 170 75.32 170 76 C171.175625 76.33 172.35125 76.66 173.5625 77 C174.55443359 77.2784375 174.55443359 77.2784375 175.56640625 77.5625 C181.95969594 78.71185545 186.98454772 77.6615234 192.9375 75.5 C193.62134766 75.26152344 194.30519531 75.02304688 195.00976562 74.77734375 C196.67658097 74.19454118 198.33880316 73.59862949 200 73 C199.60750635 65.15012697 197.15779392 59.13642111 194 52 C192.96039351 49.34594579 191.97829853 46.6774486 191 44 C190.17757812 43.90203125 189.35515625 43.8040625 188.5078125 43.703125 C186.83332031 43.47882813 186.83332031 43.47882813 185.125 43.25 C184.03445312 43.11078125 182.94390625 42.9715625 181.8203125 42.828125 C177.85914433 41.96946687 174.44103769 40.65399846 170.71289062 39.10107422 C133.36721198 23.66429902 133.36721198 23.66429902 97 33 Z M42 34 C35.06623873 46.95673073 35.06623873 46.95673073 32 61 C31.34 61 30.68 61 30 61 C28.70249501 64.18515384 27.41307127 67.37352079 26.125 70.5625 C25.76019531 71.45775391 25.39539063 72.35300781 25.01953125 73.27539062 C23.47488644 77.10891819 21.96050437 80.89461243 20.86328125 84.8828125 C20.12412473 87.551803 19.26240453 89.83076976 18.0625 92.3125 C16.23456884 96.30009799 14.92178389 100.29170187 13.7265625 104.5078125 C12.79167096 107.71459101 11.68134514 110.84979967 10.55078125 113.9921875 C9.82363605 116.29591751 9.82363605 116.29591751 10 120 C10.66 120 11.32 120 12 120 C12.70576172 118.28490234 12.70576172 118.28490234 13.42578125 116.53515625 C14.05411729 115.04403043 14.6830548 113.55315795 15.3125 112.0625 C15.7755957 110.93038086 15.7755957 110.93038086 16.24804688 109.77539062 C16.55419922 109.05673828 16.86035156 108.33808594 17.17578125 107.59765625 C17.45333252 106.93258057 17.73088379 106.26750488 18.0168457 105.58227539 C19 104 19 104 22 103 C21.67 105.64 21.34 108.28 21 111 C23.45393022 108.54606978 23.96981583 106.577239 25.05859375 103.28515625 C25.44466797 102.12306641 25.83074219 100.96097656 26.22851562 99.76367188 C26.62748047 98.54228516 27.02644531 97.32089844 27.4375 96.0625 C27.83259766 94.87591797 28.22769531 93.68933594 28.63476562 92.46679688 C30.73188738 86.11262265 32.67495383 79.76482583 34.29663086 73.27197266 C34.99440351 71.01807738 35.87633519 69.30446406 37.125 67.3125 C39.39038356 63.31032238 39.68121271 60.54271885 40 56 C40.66 56 41.32 56 42 56 C42.64779076 53.60468067 43.29329009 51.20878252 43.9375 48.8125 C44.11990234 48.13896484 44.30230469 47.46542969 44.49023438 46.77148438 C45.4488358 43.19851542 46.32883282 39.63843262 47 36 C44.525 35.01 44.525 35.01 42 34 Z M199 35 C199.38554171 38.75903172 200.27894577 41.80045361 201.875 45.1875 C204.26029394 50.28889506 205.65431998 55.54591811 207 61 C207.66 61 208.32 61 209 61 C209.24234375 62.0621875 209.4846875 63.124375 209.734375 64.21875 C212.00976243 74.04702675 212.00976243 74.04702675 216.12890625 83.20703125 C217.452974 85.93235456 217.91816669 88.75251326 218.41015625 91.7265625 C218.95801456 94.16279438 218.95801456 94.16279438 220.421875 96.84375 C222.07003892 100.14007784 223.14276821 103.34452705 224.1875 106.875 C224.53167969 108.02742188 224.87585938 109.17984375 225.23046875 110.3671875 C225.48441406 111.23601562 225.73835938 112.10484375 226 113 C227.15941038 109.52176885 226.70820884 107.54104422 226 104 C226.99 104 227.98 104 229 104 C229.2475 104.78375 229.495 105.5675 229.75 106.375 C231.33931493 110.98401329 233.16207173 115.48547716 235 120 C235.99 120 236.98 120 238 120 C237.40635938 114.11108509 235.76175833 109.02691462 233.6875 103.5 C233.3471875 102.57815918 233.006875 101.65631836 232.65625 100.70654297 C227.59202672 87.07978427 222.28639122 73.54174264 217 60 C216.34 60 215.68 60 215 60 C214.87625 59.278125 214.7525 58.55625 214.625 57.8125 C214.09018976 55.03902469 214.09018976 55.03902469 213.0625 52.6875 C212 50 212 50 211.125 46.25 C210.01572026 41.56239854 208.06695452 37.33458424 206 33 C203.3534665 33 201.4191837 33.98139634 199 35 Z M74.875 43.0625 C69.65980369 45.00447442 66.37871713 45.39448222 61 44 C60.67 43.34 60.34 42.68 60 42 C58.68 42 57.36 42 56 42 C55.83564453 42.88751953 55.83564453 42.88751953 55.66796875 43.79296875 C54.72059168 48.51444958 53.53551074 51.87979504 51 56 C50.54046464 57.90378933 50.08360764 59.80835789 49.65234375 61.71875 C48.90341649 64.33775311 47.85024877 66.66185619 46.6875 69.125 C40.08823424 82.50763935 40.08823424 82.50763935 39 97 C39.99 97.66 40.98 98.32 42 99 C43.15545188 101.26778988 44.16674185 103.46500831 45.125 105.8125 C45.38925781 106.42931641 45.65351562 107.04613281 45.92578125 107.68164062 C47.35315969 111.09068406 48.42940254 114.34678456 49 118 C49.86882812 118.02578125 50.73765625 118.0515625 51.6328125 118.078125 C63.28948405 118.65183143 63.28948405 118.65183143 68 123 C68.556875 123.845625 69.11375 124.69125 69.6875 125.5625 C72.83600462 128.88119406 75.94061654 129.25190851 80.34375 130.12890625 C83.50860941 131.16679397 84.90571752 132.4392637 87 135 C87.33 136.010625 87.66 137.02125 88 138.0625 C90.90657344 142.33152974 94.28812147 142.21987547 99.171875 143.234375 C102 144 102 144 104.6875 146.3125 C106.12120298 149.24817753 106.69818432 151.75548149 107 155 C107.66386719 155.06316406 108.32773438 155.12632812 109.01171875 155.19140625 C116.06172501 156.16914434 116.06172501 156.16914434 118.671875 158.48046875 C120.61742408 161.20063459 121.97197361 163.93593969 123.3125 167 C126.25551196 172.23202127 131.0587808 175.70585387 136 179 C138.13803054 178.92393164 138.13803054 178.92393164 140 178 C141.26501134 175.19148181 141.26501134 175.19148181 140.3984375 173.1328125 C138.11292545 168.64902168 135.69346061 165.49381409 132 162 C131.67 161.01 131.34 160.02 131 159 C130.34 159 129.68 159 129 159 C129 158.34 129 157.68 129 157 C128.34 157 127.68 157 127 157 C127 156.34 127 155.68 127 155 C125.824375 154.319375 125.824375 154.319375 124.625 153.625 C121.79751514 151.87465223 120.90259623 151.15908681 120 148 C120.375 144.75 120.375 144.75 121 142 C127.31021898 141.63594891 127.31021898 141.63594891 130.25 143.1875 C132 145 132 145 133.25 147.3125 C135.35082225 150.53876273 137.71447861 152.12534803 140.828125 154.32421875 C143.11583781 156.08937845 144.97412374 158.00848039 146.9375 160.125 C150.76037689 164.06875838 154.73496008 166.42152649 160 168 C160.99 168 161.98 168 163 168 C164.14304162 165.44343593 164.14304162 165.44343593 164 162 C160.52758695 155.83963931 155.07416503 150.89810594 150.015625 146.04296875 C148 144 148 144 146.359375 141.73828125 C145.91078125 141.16464844 145.4621875 140.59101563 145 140 C144.34 140 143.68 140 143 140 C142.62875 139.1646875 142.62875 139.1646875 142.25 138.3125 C141.04604299 135.8726512 141.04604299 135.8726512 138.9375 133.6875 C136.59360564 130.4362917 136.30966982 127.94829026 136 124 C137.56601911 124.20373453 139.12790527 124.43933091 140.6875 124.6875 C141.55761719 124.81511719 142.42773438 124.94273437 143.32421875 125.07421875 C146.88150697 126.30498854 148.47762485 128.22460882 151 131 C151.93909 131.96056435 152.88326685 132.9161775 153.83203125 133.8671875 C154.31671875 134.35703125 154.80140625 134.846875 155.30078125 135.3515625 C159.85735474 139.94345826 164.44647461 144.408938 169.3828125 148.59765625 C171 150 171 150 173.375 152.4375 C174.86455501 154.23103624 174.86455501 154.23103624 177 154 C177 154.66 177 155.32 177 156 C179.64 156.33 182.28 156.66 185 157 C187.35726507 154.12997278 187.35726507 154.12997278 186.75 150.625 C186.10626078 147.51359378 185.30944157 144.88077146 184 142 C183.34 142 182.68 142 182 142 C182 141.34 182 140.68 182 140 C181.401875 139.773125 180.80375 139.54625 180.1875 139.3125 C177.42160425 137.65296255 176.53725883 135.79501605 175 133 C174.34 132.34 173.68 131.68 173 131 C172.01 131 171.02 131 170 131 C169.95875 130.2575 169.9175 129.515 169.875 128.75 C168.83725357 125.48851121 167.60399663 124.91251959 164.74609375 123.2265625 C161.91448715 121.23746972 159.88705351 118.59877448 157.67578125 115.9609375 C156.22668823 114.26526222 154.73919606 112.72261441 153.125 111.1875 C151 109 151 109 150 106 C148.6287271 105.10867262 147.25445984 104.22168426 145.8671875 103.35546875 C142.66983265 101.03437642 140.05147664 98.12399455 137.296875 95.3046875 C134.01927567 92.01593987 130.53397484 89.00748471 127 86 C126.36835938 85.45214844 125.73671875 84.90429688 125.0859375 84.33984375 C123.90256376 83.31509245 122.71287993 82.29756102 121.515625 81.2890625 C120.31465962 80.26762288 119.15018585 79.20329924 118 78.125 C115.02174687 76.44973262 112.34203175 76.80719048 109 77 C108.67 77.99 108.34 78.98 108 80 C102.4298982 84.17757635 95.63100792 83.74306057 89 83 C84.56574315 81.61471915 81.63143973 79.9471596 79 76 C78.5859375 72.86328125 78.5859375 72.86328125 78.375 69.3125 C78.30023438 68.13300781 78.22546875 66.95351562 78.1484375 65.73828125 C78.09945312 64.83464844 78.05046875 63.93101562 78 63 C78.66 63 79.32 63 80 63 C80.33923576 60.64655194 80.67150534 58.2924516 81 55.9375 C81.09539062 55.28072266 81.19078125 54.62394531 81.2890625 53.94726562 C81.88887674 49.59861237 82.09127093 45.38670929 82 41 C79.29155991 41 77.37915153 42.03363551 74.875 43.0625 Z M256.375 91.125 C253.78176541 93.78880207 253.78176541 93.78880207 253.4375 97.0625 C253.82174254 100.05428169 253.82174254 100.05428169 255.5625 102.4375 C258.01746545 104.31201155 258.01746545 104.31201155 261.5625 104.0625 C265.08096477 103.30002648 265.08096477 103.30002648 267 100.75 C268.18914582 97.47984899 268.39339938 96.1966221 267 93 C261.81423139 88.58698826 261.81423139 88.58698826 256.375 91.125 Z M-20 92 C-20.87696354 95.00839149 -21.21034551 97.87249433 -21 101 C-19.24528484 103.92044488 -19.24528484 103.92044488 -16 105 C-13.06865306 104.8937107 -10.64497071 104.26318108 -8 103 C-5.99143725 100.67006721 -5.97275636 99.54487277 -6.125 96.5 C-7.23692188 93.32308035 -8.24689163 91.95615595 -11 90 C-16.04148832 89.32553791 -16.04148832 89.32553791 -20 92 Z M194 99 C194 99.33 194 99.66 194 100 C197.96 100 201.92 100 206 100 C206 99.67 206 99.34 206 99 C202.04 99 198.08 99 194 99 Z M20 111 C21 114 21 114 21 114 Z M19 114 C20 116 20 116 20 116 Z M227 114 C228 116 228 116 228 116 Z M48 132 C47.0515769 134.7956425 47.04923287 136.99679495 47 140 C51.82973563 139.56093312 55.63264987 137.43393615 59 134 C59.58768383 131.28528995 59.58768383 131.28528995 59 129 C54.37325935 129 51.95979513 129.6091803 48 132 Z M63 145 C62.54188325 146.97235333 62.54188325 146.97235333 62.375 149.125 C62.25125 150.40375 62.1275 151.6825 62 153 C64.21834245 153.84968202 64.21834245 153.84968202 67 154 C69.9617612 152.53063228 69.9617612 152.53063228 72.75 150.3125 C73.71421875 149.60738281 74.6784375 148.90226563 75.671875 148.17578125 C78.05776257 146.22231731 78.05776257 146.22231731 78.953125 143.91796875 C79.1920514 141.66530801 79.1920514 141.66530801 77 139 C71.53241793 137.90648359 66.75007363 141.24992637 63 145 Z M83.640625 155.35546875 C81.83571812 156.88053774 81.83571812 156.88053774 81.484375 159.11328125 C81.45515591 161.56946976 81.45515591 161.56946976 82 165 C86.15576993 164.75554295 88.52910749 164.34064564 91.9375 161.875 C94.48038638 158.3303705 94.41856088 156.269321 94 152 C89.405225 152 87.4117985 152.93214059 83.640625 155.35546875 Z M102.1875 169.1875 C99.77602315 171.78207658 99.77602315 171.78207658 99.6875 174.8125 C99.790625 175.534375 99.89375 176.25625 100 177 C105.03985731 176.55530671 107.37634988 174.28656638 111 171 C110.67 169.68 110.34 168.36 110 167 C106.29498745 166.47071249 105.20856143 166.83778556 102.1875 169.1875 Z " fill="#DEE1E0" transform="translate(58,80)"/>
<path d="M0 0 C1 1 1 1 1.09765625 2.84765625 C1.06510417 4.8984375 1.03255208 6.94921875 1 9 C-4.27675315 11.29487074 -9.56034008 13.57291441 -14.85083008 15.8359375 C-16.64803335 16.60743882 -18.44331556 17.38343181 -20.23657227 18.1640625 C-22.82070832 19.28803624 -25.41141664 20.39545475 -28.00390625 21.5 C-28.79898087 21.84998047 -29.59405548 22.19996094 -30.41322327 22.56054688 C-35.06930988 24.52236778 -38.85159095 25.68289778 -44 25 C-46 22 -46 22 -46 19 C-46.556875 19.28875 -47.11375 19.5775 -47.6875 19.875 C-53.12412596 22.51984506 -56.96694649 23.43876753 -63 23 C-63.33 21.35 -63.66 19.7 -64 18 C-63.01 18 -62.02 18 -61 18 C-60.67 18.66 -60.34 19.32 -60 20 C-59.23429687 19.58427734 -59.23429687 19.58427734 -58.453125 19.16015625 C-52.01796015 15.95398369 -46.13856514 15.24157581 -39 15 C-39 16.32 -39 17.64 -39 19 C-38.01 18.67 -37.02 18.34 -36 18 C-35.34 18.33 -34.68 18.66 -34 19 C-31.47598789 18.17400067 -31.47598789 18.17400067 -28.625 16.875 C-27.55378906 16.41222656 -26.48257813 15.94945312 -25.37890625 15.47265625 C-24.26386719 14.98667969 -23.14882813 14.50070313 -22 14 C-19.85589539 13.10003695 -17.71012937 12.20401901 -15.5625 11.3125 C-14.61503906 10.91675781 -13.66757812 10.52101562 -12.69140625 10.11328125 C-11.80324219 9.74589844 -10.91507812 9.37851563 -10 9 C-9.14277344 8.62230469 -8.28554688 8.24460938 -7.40234375 7.85546875 C-5 7 -5 7 -1 7 C-1.66 5.68 -2.32 4.36 -3 3 C-4.66755594 3.68534022 -6.33395882 4.37348563 -8 5.0625 C-9.08667969 5.51109375 -10.17335938 5.9596875 -11.29296875 6.421875 C-13.92560744 7.52599981 -16.52288226 8.69086126 -19.11328125 9.890625 C-19.81001953 10.20894287 -20.50675781 10.52726074 -21.22460938 10.85522461 C-22.58894079 11.48075589 -23.94860926 12.11658707 -25.30273438 12.76391602 C-29.71067932 14.76939753 -33.18027728 15.31798947 -38 15 C-38.33 13.68 -38.66 12.36 -39 11 C-33.375 7 -33.375 7 -30 7 C-29.505 7.99 -29.505 7.99 -29 9 C-28.3702124 8.72736328 -27.7404248 8.45472656 -27.09155273 8.17382812 C-24.21229821 6.93612158 -21.32515465 5.71797213 -18.4375 4.5 C-17.44685547 4.07074219 -16.45621094 3.64148438 -15.43554688 3.19921875 C-10.07299719 0.95443051 -5.83558503 -0.70443276 0 0 Z " fill="#EEF1EF" transform="translate(347,197)"/>
<path d="M0 0 C0.99 0 1.98 0 3 0 C2.57395059 4.04746937 2.10301043 7.65461208 0.9375 11.5625 C-0.16170757 14.9990864 -0.16170757 14.9990864 0 18.6875 C0 21.90346478 -0.123542 23.43221536 -2 26 C-2.99 26.33 -3.98 26.66 -5 27 C-5.33 24.03 -5.66 21.06 -6 18 C-6.66 18.66 -7.32 19.32 -8 20 C-9.32 19.34 -10.64 18.68 -12 18 C-11.53444296 11.59859065 -9.85288164 6.73230171 -7 1 C-6.34 1 -5.68 1 -5 1 C-5.68907122 4.65943647 -6.56821266 8.22441959 -7.5625 11.8125 C-7.83191406 12.78832031 -8.10132812 13.76414063 -8.37890625 14.76953125 C-8.68634766 15.87361328 -8.68634766 15.87361328 -9 17 C-8.34 17 -7.68 17 -7 17 C-6.82984375 16.35933594 -6.6596875 15.71867188 -6.484375 15.05859375 C-4.92595112 9.49634683 -3.08078528 4.88676286 0 0 Z " fill="#ECF0EF" transform="translate(77,183)"/>
<path d="M0 0 C0 1.32 0 2.64 0 4 C0.99 3.67 1.98 3.34 3 3 C4.5 4.375 4.5 4.375 6 6 C6 6.66 6 7.32 6 8 C2.36733941 10.32490278 -0.76001646 10.39259107 -5 10 C-7 7 -7 7 -7 4 C-7.556875 4.28875 -8.11375 4.5775 -8.6875 4.875 C-14.12412596 7.51984506 -17.96694649 8.43876753 -24 8 C-24.33 6.35 -24.66 4.7 -25 3 C-24.01 3 -23.02 3 -22 3 C-21.67 3.66 -21.34 4.32 -21 5 C-20.45472656 4.72285156 -19.90945313 4.44570312 -19.34765625 4.16015625 C-12.85038475 1.03924464 -7.1650928 0 0 0 Z " fill="#E8EBEA" transform="translate(308,212)"/>
<path d="M0 0 C1.32 0.33 2.64 0.66 4 1 C3.979375 1.94875 3.95875 2.8975 3.9375 3.875 C4.75830661 9.90241572 9.90782452 13.88665809 14 18 C14.825 18.845625 15.65 19.69125 16.5 20.5625 C18.07375089 22.09690712 19.65019589 23.62856065 21.23046875 25.15625 C22.04128906 25.9503125 22.85210937 26.744375 23.6875 27.5625 C24.45449219 28.30628906 25.22148437 29.05007812 26.01171875 29.81640625 C29.2429611 33.36505944 30 35.14015237 30 40 C29.34 40 28.68 40 28 40 C26.94000912 38.58467126 25.95318597 37.11435308 25 35.625 C21.6120851 30.62782552 17.75696608 26.5758927 13.4296875 22.38671875 C10.61809681 19.62485073 8.01703716 16.74191744 5.47265625 13.734375 C4.21921709 12.25817609 2.89720529 10.84065172 1.5625 9.4375 C-0.51917877 6.19008112 -0.29623357 3.77697798 0 0 Z " fill="#EAECEC" transform="translate(194,204)"/>
<path d="M0 0 C-2.44217623 2.06645681 -3.94798128 2.98855588 -7.125 3.6875 C-10.10432524 4.66064613 -10.10432524 4.66064613 -10.828125 6.90234375 C-11.32262919 8.91215008 -11.67042901 10.95665988 -12 13 C-10.72791378 12.37755401 -9.45738118 11.75193233 -8.1875 11.125 C-7.47980469 10.77695313 -6.77210937 10.42890625 -6.04296875 10.0703125 C-3.78753582 8.9343514 -3.78753582 8.9343514 -1 7 C-0.01 7 0.98 7 2 7 C1.67 7.99 1.34 8.98 1 10 C-0.33333333 10.33333333 -1.66666667 10.66666667 -3 11 C-3.33 11.99 -3.66 12.98 -4 14 C-6.06640625 14.94921875 -6.06640625 14.94921875 -8.5625 15.6875 C-9.38878906 15.93886719 -10.21507813 16.19023437 -11.06640625 16.44921875 C-11.70449219 16.63097656 -12.34257813 16.81273437 -13 17 C-16.07858551 14.59485507 -16.93149012 13.42628368 -17.5625 9.5 C-17 6 -17 6 -14.875 3.75 C-13.451875 2.88375 -13.451875 2.88375 -12 2 C-10.5459375 1.1028125 -10.5459375 1.1028125 -9.0625 0.1875 C-5.52860465 -1.18278595 -3.61908448 -0.94785546 0 0 Z " fill="#EAEDEC" transform="translate(117,207)"/>
<path d="M0 0 C2.375 1.0625 2.375 1.0625 4 3 C4.5625 6.4375 4.5625 6.4375 4 10 C2 12.125 2 12.125 -1 14 C-1.61617187 14.44601563 -2.23234375 14.89203125 -2.8671875 15.3515625 C-7.47736146 18.56253969 -10.39745703 19.58359823 -16 19 C-16.36526253 16.67145135 -16.69350684 14.33701038 -17 12 C-17.185625 10.6696875 -17.185625 10.6696875 -17.375 9.3125 C-17 7 -17 7 -14.875 4.875 C-9.8989985 1.62978163 -6.09962008 -0.79560262 0 0 Z M-14 8 C-14.45811675 9.97235333 -14.45811675 9.97235333 -14.625 12.125 C-14.74875 13.40375 -14.8725 14.6825 -15 16 C-12.78165755 16.84968202 -12.78165755 16.84968202 -10 17 C-7.0382388 15.53063228 -7.0382388 15.53063228 -4.25 13.3125 C-3.28578125 12.60738281 -2.3215625 11.90226563 -1.328125 11.17578125 C1.05776257 9.22231731 1.05776257 9.22231731 1.953125 6.91796875 C2.1920514 4.66530801 2.1920514 4.66530801 0 2 C-5.46758207 0.90648359 -10.24992637 4.24992637 -14 8 Z " fill="#E9ECEB" transform="translate(135,217)"/>
<path d="M0 0 C1.8125 0.0625 1.8125 0.0625 4 1 C5.8125 4.375 5.8125 4.375 7 8 C6.67 8.99 6.34 9.98 6 11 C3.7522025 8.94766315 2.9977758 7.99332739 2 5 C1.19175781 5.89203125 0.38351562 6.7840625 -0.44921875 7.703125 C-1.52845417 8.88559163 -2.607892 10.06787354 -3.6875 11.25 C-4.21794922 11.83652344 -4.74839844 12.42304688 -5.29492188 13.02734375 C-13.77579189 22.28866193 -13.77579189 22.28866193 -20 23 C-20.33 22.34 -20.66 21.68 -21 21 C-20.39414062 20.55011719 -19.78828125 20.10023438 -19.1640625 19.63671875 C-12.38641953 14.43357438 -3.90810861 7.81621722 0 0 Z " fill="#E9ECEB" transform="translate(277,203)"/>
<path d="M0 0 C5.14487278 3.06242427 10.72468194 7.06648888 12.6484375 13 C13.4014468 17.28378622 13.84544904 20.6810995 11.4375 24.4375 C8.10368342 26.57456191 5.89268943 26.41707387 2 26 C-0.4375 25 -0.4375 25 -2 24 C-1.505 22.515 -1.505 22.515 -1 21 C3.455 21.99 3.455 21.99 8 23 C9.2246828 16.72818348 9.2246828 16.72818348 7 11 C7 10.01 7 9.02 7 8 C6.34 8 5.68 8 5 8 C5 7.34 5 6.68 5 6 C3.68 5.67 2.36 5.34 1 5 C0.67 3.35 0.34 1.7 0 0 Z " fill="#E9EBEA" transform="translate(235,214)"/>
<path d="M0 0 C0.99 0.33 1.98 0.66 3 1 C2.67 1.99 2.34 2.98 2 4 C-0.5625 5.1875 -0.5625 5.1875 -3 6 C-3 8.64 -3 11.28 -3 14 C-0.36 13.67 2.28 13.34 5 13 C2.82677119 15.59115742 1.37173066 16.87878348 -1.875 17.9375 C-5.67590392 18.01351808 -7.76917486 16.9231102 -11 15 C-8.0845989 8.94493619 -4.84472207 4.62940109 0 0 Z " fill="#EBEEED" transform="translate(143,231)"/>
<path d="M0 0 C7.83066968 2.05394615 15.0893927 5.05817894 22.4855957 8.30664062 C23.68188599 8.82581055 23.68188599 8.82581055 24.90234375 9.35546875 C25.61898193 9.67153076 26.33562012 9.98759277 27.07397461 10.31323242 C29.13015531 11.16792993 29.13015531 11.16792993 32 11 C31.67 12.32 31.34 13.64 31 15 C24.22134227 13.49203589 17.91213473 11.26925911 11.5625 8.5 C10.87671875 8.20343506 10.1909375 7.90687012 9.484375 7.60131836 C6.03376045 6.06359997 2.79610041 4.5744147 0 2 C0 1.34 0 0.68 0 0 Z " fill="#EDEFEF" transform="translate(22,198)"/>
<path d="M0 0 C0.99 0.33 1.98 0.66 3 1 C2.34 1.70125 1.68 2.4025 1 3.125 C-1.33251303 6.47798748 -1.60839155 8.00199836 -1 12 C-0.08333333 14.08333333 -0.08333333 14.08333333 2 15 C5.51305609 15.32026414 5.51305609 15.32026414 9 14 C10.83537787 11.76446707 11.78638307 9.66995724 13 7 C13.33 7 13.66 7 14 7 C14.25 10.3125 14.25 10.3125 14 14 C10.8147452 17.29509117 7.56210443 17.93754395 3.0625 18.4375 C-0.51930616 18.38472938 -0.81614644 18.1884499 -3.5 15.4375 C-5.22031017 11.49512253 -5.69531872 9.24916995 -5 5 C-2.5 2.0625 -2.5 2.0625 0 0 Z " fill="#EEF1F0" transform="translate(314,168)"/>
<path d="M0 0 C4.39707691 1.38814245 6.53107001 3.39124145 9.5625 6.8125 C14.7265845 12.19467555 19.97704941 14.70728417 27 17 C27 16.34 27 15.68 27 15 C27.66 15 28.32 15 29 15 C28.625 16.9375 28.625 16.9375 28 19 C25.15872683 20.42063659 23.15307097 20.28559027 20 20 C17.40234375 18.4609375 17.40234375 18.4609375 14.9375 16.375 C14.07640625 15.64667969 13.2153125 14.91835937 12.328125 14.16796875 C10.43984531 12.40958749 8.7890672 10.69959551 7.1875 8.6875 C5.15014929 5.87317862 5.15014929 5.87317862 2.1875 4.3125 C1.465625 3.879375 0.74375 3.44625 0 3 C0 2.01 0 1.02 0 0 Z " fill="#EAECEB" transform="translate(194,231)"/>
<path d="M0 0 C4.18766096 -0.5530873 6.3141501 -0.42318398 9.9375 1.8125 C12 4 12 4 12 7 C7 5 7 5 2 3 C2.59522337 4.44122613 3.20157619 5.87785868 3.8125 7.3125 C4.14894531 8.11300781 4.48539063 8.91351563 4.83203125 9.73828125 C5.98200704 11.96515745 7.13626961 13.34987767 9 15 C8.67 15.99 8.34 16.98 8 18 C8 17.34 8 16.68 8 16 C7.34 16 6.68 16 6 16 C6 15.34 6 14.68 6 14 C5.1028125 13.8453125 5.1028125 13.8453125 4.1875 13.6875 C1.53860567 12.85499035 0.59676594 12.2810942 -1 10 C-1.8125 6.5 -1.8125 6.5 -2 3 C-1.34 2.01 -0.68 1.02 0 0 Z " fill="#EEEFEE" transform="translate(179,221)"/>
<path d="M0 0 C0.47308594 0.42152344 0.94617188 0.84304688 1.43359375 1.27734375 C5.68180806 4.79681954 9.10365658 6.93333304 14.6796875 7.25390625 C18.84395951 6.79821992 22.36652037 5.00142022 26 3 C25.875 5.3125 25.875 5.3125 25 8 C20.79585203 11.12616131 16.63790476 11.58363677 11.54296875 11.4140625 C7.31615739 10.72582593 4.01690739 9.04841556 1 6 C0 2.6875 0 2.6875 0 0 Z " fill="#EEF1F0" transform="translate(142,269)"/>
<path d="M0 0 C1.98 0 3.96 0 6 0 C2.61090559 4.69348814 -0.7844178 9.02530821 -5 13 C-5.33 13.33 -5.66 13.66 -6 14 C-8.18639453 14.07258946 -10.37500389 14.08373783 -12.5625 14.0625 C-14.35880859 14.04896484 -14.35880859 14.04896484 -16.19140625 14.03515625 C-17.11824219 14.02355469 -18.04507813 14.01195312 -19 14 C-19 13.01 -19 12.02 -19 11 C-18.09636719 10.89042969 -17.19273437 10.78085937 -16.26171875 10.66796875 C-15.08222656 10.50941406 -13.90273437 10.35085938 -12.6875 10.1875 C-10.92986328 9.96126953 -10.92986328 9.96126953 -9.13671875 9.73046875 C-5.9400743 8.9860447 -4.89239193 8.58958895 -3 6 C-1.95377125 4.02379014 -0.94560065 2.0262871 0 0 Z " fill="#E9EBEB" transform="translate(215,263)"/>
<path d="M0 0 C1.32 0.33 2.64 0.66 4 1 C4.33 2.32 4.66 3.64 5 5 C5.66 5 6.32 5 7 5 C7 5.66 7 6.32 7 7 C7.61875 7.268125 8.2375 7.53625 8.875 7.8125 C11 9 11 9 13 12 C13.375 15.5 13.375 15.5 13 19 C11 20.9375 11 20.9375 9 22 C8.34 21.34 7.68 20.68 7 20 C7.36222656 19.42121094 7.72445312 18.84242188 8.09765625 18.24609375 C9.22624727 16.07707839 9.22624727 16.07707839 8.49609375 14.03515625 C6.13518571 9.63567816 3.60934997 6.50909025 0 3 C0 2.01 0 1.02 0 0 Z " fill="#E9EBEA" transform="translate(189,239)"/>
<path d="M0 0 C3.91291237 3.55961704 6.16643964 6.80052321 8.3125 11.625 C8.82425781 12.75164062 9.33601563 13.87828125 9.86328125 15.0390625 C11 18 11 18 11 21 C9.234375 20.953125 9.234375 20.953125 7 20 C5.54244745 17.57074575 4.37939884 15.32386602 3.25 12.75 C2.93417969 12.08097656 2.61835938 11.41195312 2.29296875 10.72265625 C0.61613148 7.02780704 -0.4101312 4.0697634 0 0 Z " fill="#EBEDEC" transform="translate(311,99)"/>
<path d="M0 0 C4 4 4 4 4.3828125 6.33203125 C3.78917023 12.04358944 2.51622542 15.52688475 -1.33203125 19.8203125 C-3 21 -3 21 -7 21 C-7 20.34 -7 19.68 -7 19 C-6.01 19 -5.02 19 -4 19 C-4 18.34 -4 17.68 -4 17 C-3.34 17 -2.68 17 -2 17 C-1.34 11.39 -0.68 5.78 0 0 Z " fill="#ECEEEC" transform="translate(256,230)"/>
<path d="M0 0 C0.66 0.33 1.32 0.66 2 1 C1.01 6.28 0.02 11.56 -1 17 C-1.99 16.67 -2.98 16.34 -4 16 C-4 16.99 -4 17.98 -4 19 C-4.66 19 -5.32 19 -6 19 C-5.55197406 12.3259584 -4.95319619 4.95319619 0 0 Z " fill="#E7E9E8" transform="translate(95,147)"/>
<path d="M0 0 C0.99 0.33 1.98 0.66 3 1 C2.773125 1.763125 2.54625 2.52625 2.3125 3.3125 C1.71082484 5.96055792 1.71082484 5.96055792 3.125 7.6875 C5.31252415 9.21876691 7.48689023 10.11701549 10 11 C9.67 11.99 9.34 12.98 9 14 C4.87248551 13.39301257 1.6678852 11.96189209 -2 10 C-2.1953125 3.9453125 -2.1953125 3.9453125 -2 2 C-1.34 1.34 -0.68 0.68 0 0 Z " fill="#EEF1F0" transform="translate(17,196)"/>
<path d="M0 0 C6.24938503 1.12282095 12.56143093 2.58875467 18 6 C18.33 6.99 18.66 7.98 19 9 C7.59425718 7.30212235 7.59425718 7.30212235 3 4 C2.01 3.67 1.02 3.34 0 3 C0 2.01 0 1.02 0 0 Z " fill="#E6E9E8" transform="translate(59,80)"/>
<path d="M0 0 C0.33 0 0.66 0 1 0 C1 1.65 1 3.3 1 5 C-0.86408542 6.04063021 -2.74185071 7.05677915 -4.625 8.0625 C-6.19121094 8.91521484 -6.19121094 8.91521484 -7.7890625 9.78515625 C-11.40539177 11.15337815 -13.31000327 10.96959374 -17 10 C-17 9.34 -17 8.68 -17 8 C-15.08594633 7.32586789 -13.16863974 6.6609668 -11.25 6 C-10.18265625 5.62875 -9.1153125 5.2575 -8.015625 4.875 C-5 4 -5 4 -1 4 C-0.67 2.68 -0.34 1.36 0 0 Z " fill="#EBEDEC" transform="translate(260,149)"/>
<path d="M0 0 C1.98 0 3.96 0 6 0 C7.03271642 2.09836004 8.05083717 4.20390891 9.0625 6.3125 C9.63097656 7.48425781 10.19945312 8.65601562 10.78515625 9.86328125 C12 13 12 13 11 16 C10.34 16 9.68 16 9 16 C9 14.68 9 13.36 9 12 C8.01 11.67 7.02 11.34 6 11 C5.26953125 9.15234375 5.26953125 9.15234375 4.8125 6.9375 C4.65394531 6.20402344 4.49539063 5.47054687 4.33203125 4.71484375 C4.22246094 4.14894531 4.11289062 3.58304687 4 3 C2.02 3.33 0.04 3.66 -2 4 C-1.34 2.68 -0.68 1.36 0 0 Z " fill="#EAECEC" transform="translate(299,80)"/>
<path d="M0 0 C4.95 2.31 9.9 4.62 15 7 C14.67 7.66 14.34 8.32 14 9 C9.07789006 8.50778901 5.15680456 7.77120304 1 5 C0.67 3.35 0.34 1.7 0 0 Z " fill="#EBEDEC" transform="translate(169,272)"/>
<path d="M0 0 C3.06382739 0.32432407 3.98970965 0.98901487 6.140625 3.28515625 C7.18476563 4.65994141 7.18476563 4.65994141 8.25 6.0625 C8.95640625 6.98160156 9.6628125 7.90070313 10.390625 8.84765625 C10.92171875 9.55792969 11.4528125 10.26820313 12 11 C11.67 11.66 11.34 12.32 11 13 C7.33213607 11.49650623 5.31089607 9.36271208 2.75 6.375 C2.04359375 5.55773437 1.3371875 4.74046875 0.609375 3.8984375 C0.07828125 3.27195313 -0.4528125 2.64546875 -1 2 C-0.67 1.34 -0.34 0.68 0 0 Z " fill="#EAEEEC" transform="translate(214,192)"/>
<path d="M0 0 C0.99 0 1.98 0 3 0 C2.67715014 3.01326538 1.96634616 4.03461538 -0.1875 6.25 C-3.43411922 8.27011863 -5.24742282 8.34907695 -9 8 C-7.87716914 4.7437905 -7.04149584 4.02286505 -3.9375 2.3125 C-2.968125 1.879375 -1.99875 1.44625 -1 1 C-0.67 0.67 -0.34 0.34 0 0 Z " fill="#EEF0F0" transform="translate(165,253)"/>
<path d="M0 0 C3.49995249 1.16665083 3.816742 1.87011757 5.625 4.9375 C6.05039063 5.64777344 6.47578125 6.35804688 6.9140625 7.08984375 C7.64415463 8.37407056 8.33935289 9.67870578 9 11 C6.8125 11.4375 6.8125 11.4375 4 11 C1.8501571 8.94091564 0.17018771 6.74158263 -1 4 C-0.6328125 1.765625 -0.6328125 1.765625 0 0 Z " fill="#EBEFEE" transform="translate(121,255)"/>
<path d="M0 0 C-4.81578947 4.97631579 -4.81578947 4.97631579 -9.125 5.0625 C-10.07375 5.041875 -11.0225 5.02125 -12 5 C-12 4.01 -12 3.02 -12 2 C-4.71428571 -1.57142857 -4.71428571 -1.57142857 0 0 Z " fill="#EAECEC" transform="translate(296,84)"/>
<path d="M0 0 C0.99 0 1.98 0 3 0 C6.42857143 7.28571429 6.42857143 7.28571429 6 12 C5.01 12 4.02 12 3 12 C2.49663233 10.37604003 1.99741024 8.75079459 1.5 7.125 C1.2215625 6.22007812 0.943125 5.31515625 0.65625 4.3828125 C0 2 0 2 0 0 Z " fill="#E9EBEB" transform="translate(264,141)"/>
<path d="M0 0 C0.27429625 5.39449293 0.36055646 8.51925805 -3 13 C-3.66 12.67 -4.32 12.34 -5 12 C-4.125 4.375 -4.125 4.375 -3 1 C-1 0 -1 0 0 0 Z " fill="#EAECEB" transform="translate(106,120)"/>
<path d="M0 0 C0.5775 0.226875 1.155 0.45375 1.75 0.6875 C1.75 1.3475 1.75 2.0075 1.75 2.6875 C-0.21875 4.1953125 -0.21875 4.1953125 -2.75 5.8125 C-3.5853125 6.35132812 -4.420625 6.89015625 -5.28125 7.4453125 C-5.9309375 7.85523437 -6.580625 8.26515625 -7.25 8.6875 C-7.91 8.3575 -8.57 8.0275 -9.25 7.6875 C-4.73882682 -0.65817039 -4.73882682 -0.65817039 0 0 Z " fill="#E6EAE9" transform="translate(155.25,99.3125)"/>
<path d="M0 0 C-0.51525603 5.28137429 -2.25477117 8.57221156 -5 13 C-5.33 13 -5.66 13 -6 13 C-6.17673419 8.4932782 -6.13551182 5.03374456 -4 1 C-2 0 -2 0 0 0 Z " fill="#E8EAEA" transform="translate(59,85)"/>
<path d="M0 0 C0.99 0.33 1.98 0.66 3 1 C3.73046875 2.84765625 3.73046875 2.84765625 4.1875 5.0625 C4.34605469 5.79597656 4.50460938 6.52945313 4.66796875 7.28515625 C4.83232422 8.13400391 4.83232422 8.13400391 5 9 C2.69 8.67 0.38 8.34 -2 8 C-1.125 1.125 -1.125 1.125 0 0 Z " fill="#E9EBEA" transform="translate(102,97)"/>
<path d="M0 0 C2.67710191 1.33855096 2.95129094 2.72058088 4.125 5.4375 C4.47820312 6.24058594 4.83140625 7.04367188 5.1953125 7.87109375 C6 10 6 10 6 12 C4.68 12 3.36 12 2 12 C-0.13586678 8.79619983 -0.23132175 7.98060033 -0.125 4.3125 C-0.10695313 3.50425781 -0.08890625 2.69601563 -0.0703125 1.86328125 C-0.04710938 1.24839844 -0.02390625 0.63351563 0 0 Z " fill="#ECEEED" transform="translate(102,240)"/>
<path d="M0 0 C1.32 0.33 2.64 0.66 4 1 C3.625 2.9375 3.625 2.9375 3 5 C0.04335481 6.4783226 -2.74229737 6.06032783 -6 6 C-6.33 5.34 -6.66 4.68 -7 4 C-3.535 3.505 -3.535 3.505 0 3 C0 2.01 0 1.02 0 0 Z " fill="#E8ECEB" transform="translate(244,109)"/>
<path d="M0 0 C-0.125 1.8125 -0.125 1.8125 -1 4 C-4.67884625 6.28905989 -6.61551956 7 -11 7 C-10 4 -10 4 -8.22265625 2.83203125 C-7.50980469 2.49558594 -6.79695312 2.15914062 -6.0625 1.8125 C-5.35222656 1.46832031 -4.64195312 1.12414062 -3.91015625 0.76953125 C-2 0 -2 0 0 0 Z " fill="#E7E9E8" transform="translate(167,157)"/>
<path d="M0 0 C0.99 0.33 1.98 0.66 3 1 C2 4 2 4 -0.3125 5.6875 C-3 7 -3 7 -7 7 C-5.65117186 2.95351557 -3.65173931 2.04497401 0 0 Z " fill="#EBEDEC" transform="translate(192,272)"/>
<path d="M0 0 C0.99 0.66 1.98 1.32 3 2 C1.69386058 5.91841827 0.16870152 8.32640809 -3 11 C-3.66 11 -4.32 11 -5 11 C-4.625 9.0625 -4.625 9.0625 -4 7 C-3.34 6.67 -2.68 6.34 -2 6 C-1.27306096 4.02111039 -0.60183749 2.02045442 0 0 Z " fill="#EEF0EF" transform="translate(154,232)"/>
<path d="M0 0 C0.99 0.33 1.98 0.66 3 1 C1.68 3.64 0.36 6.28 -1 9 C-2.32 9 -3.64 9 -5 9 C-3.35 6.03 -1.7 3.06 0 0 Z " fill="#E7EAE9" transform="translate(162,140)"/>
<path d="M0 0 C3.5625 0.1875 3.5625 0.1875 5.5625 2.1875 C3.5625 4.1875 3.5625 4.1875 0.5625 4.5 C-0.9225 4.3453125 -0.9225 4.3453125 -2.4375 4.1875 C-3.0975 3.1975 -3.7575 2.2075 -4.4375 1.1875 C-3.4375 0.1875 -3.4375 0.1875 0 0 Z " fill="#E9EAEA" transform="translate(135.4375,264.8125)"/>
<path d="M0 0 C0.66 0 1.32 0 2 0 C2.25 6.625 2.25 6.625 0 10 C-0.99 9.67 -1.98 9.34 -3 9 C-2.01 6.03 -1.02 3.06 0 0 Z " fill="#E7EBE9" transform="translate(112,122)"/>
<path d="M0 0 C5.66153846 1.47692308 5.66153846 1.47692308 7.375 4.125 C7.684375 5.053125 7.684375 5.053125 8 6 C7.01 6.495 7.01 6.495 6 7 C3 5.1875 3 5.1875 0 3 C0 2.01 0 1.02 0 0 Z " fill="#EDF0EF" transform="translate(319,167)"/>
<path d="M0 0 C3.67420866 0.30618405 4.78135513 0.75771784 7.3125 3.5625 C8.1478125 4.7690625 8.1478125 4.7690625 9 6 C5.21213403 5.4739075 2.82847776 4.61896089 0 2 C0 1.34 0 0.68 0 0 Z " fill="#EAEDEC" transform="translate(218,222)"/>
<path d="M0 0 C0.99 0.33 1.98 0.66 3 1 C3.33 3.64 3.66 6.28 4 9 C3.34 9 2.68 9 2 9 C0.50178941 5.62902617 0 3.79557881 0 0 Z " fill="#ECEFEE" transform="translate(277,176)"/>
<path d="M0 0 C0.99 0.33 1.98 0.66 3 1 C2.67 2.65 2.34 4.3 2 6 C0.35 6.33 -1.3 6.66 -3 7 C-2.67 6.01 -2.34 5.02 -2 4 C-1.34 4 -0.68 4 0 4 C0 2.68 0 1.36 0 0 Z " fill="#ECEEEE" transform="translate(259,99)"/>
<path d="M0 0 C0.33 0 0.66 0 1 0 C1 1.98 1 3.96 1 6 C-0.98 6.99 -0.98 6.99 -3 8 C-3 3.75589918 -2.68429577 3.00641127 0 0 Z " fill="#EFF5F2" transform="translate(247,230)"/>
<path d="M0 0 C0.99 0.33 1.98 0.66 3 1 C3.1875 3.875 3.1875 3.875 3 7 C2.01 7.66 1.02 8.32 0 9 C0 6.03 0 3.06 0 0 Z " fill="#E9EAEA" transform="translate(35,170)"/>
<path d="M0 0 C0.33 0.66 0.66 1.32 1 2 C-0.28062485 3.7074998 -1.61767557 5.37373596 -3 7 C-3.66 7 -4.32 7 -5 7 C-4.60196439 4.11424181 -4.20990931 3.17810487 -1.9375 1.25 C-1.298125 0.8375 -0.65875 0.425 0 0 Z " fill="#EBEFEE" transform="translate(90,211)"/>
</svg>
