<?xml version="1.0" standalone="no"?>
<!DOCTYPE svg PUBLIC "-//W3C//DTD SVG 20010904//EN"
 "http://www.w3.org/TR/2001/REC-SVG-20010904/DTD/svg10.dtd">
<svg version="1.0" xmlns="http://www.w3.org/2000/svg"
 width="272.000000pt" height="252.000000pt" viewBox="0 0 272.000000 252.000000"
 preserveAspectRatio="xMidYMid meet">
<metadata>
Created by potrace 1.10, written by Peter Selinger 2001-2011
</metadata>
<g transform="translate(0.000000,252.000000) scale(0.100000,-0.100000)"
fill="#000000" stroke="none">
<path d="M1239 2396 c-3 -3 -30 -10 -60 -16 -84 -16 -167 -52 -213 -91 -97
-84 -111 -84 -204 10 -85 87 -108 99 -149 77 -57 -29 -84 -111 -98 -301 -8
-107 -18 -133 -78 -207 -48 -59 -80 -115 -91 -160 -5 -21 -19 -31 -75 -53 -78
-31 -121 -65 -146 -114 -15 -30 -17 -55 -11 -190 10 -260 36 -592 52 -656 19
-78 55 -115 141 -145 37 -13 74 -24 83 -25 8 0 21 -4 27 -8 7 -5 35 -11 63
-14 36 -4 55 -12 65 -27 15 -20 15 -20 15 9 0 38 -12 56 -29 46 -24 -15 -214
37 -272 76 -21 13 -44 39 -52 56 -23 48 -63 642 -55 801 3 75 5 80 38 107 19
16 71 43 116 60 l82 31 -5 32 c-6 41 11 76 77 155 70 84 86 127 93 246 6 123
22 190 54 233 31 41 54 36 103 -21 19 -23 50 -57 68 -75 18 -18 30 -37 27 -41
-2 -5 2 -73 9 -153 13 -129 20 -163 71 -316 31 -95 68 -188 81 -208 25 -37 26
-56 1 -35 -9 7 -45 10 -95 9 -71 -3 -83 -1 -104 20 -27 25 -46 19 -21 -7 15
-15 14 -16 -23 -22 -61 -9 -109 -34 -135 -70 -22 -31 -24 -45 -26 -150 -2
-119 15 -237 43 -293 18 -37 18 -41 -3 -25 -35 29 6 -29 55 -78 76 -76 238
-136 422 -158 63 -7 128 -18 144 -24 29 -12 107 -11 116 0 3 4 41 10 85 13
199 15 236 20 325 48 178 57 264 111 295 185 8 18 19 33 25 33 6 0 8 4 5 10
-3 5 4 41 15 79 12 39 19 74 16 80 -3 5 0 12 6 14 8 3 6 6 -4 6 -15 1 -17 8
-12 60 14 125 -17 219 -81 250 -16 8 -49 16 -74 19 l-44 5 22 18 c20 16 21 20
7 25 -11 4 -24 -2 -37 -17 -19 -22 -28 -24 -104 -22 -47 2 -87 -2 -90 -7 -3
-6 5 -10 19 -10 27 0 77 -19 87 -33 4 -5 17 -3 30 4 13 7 37 12 52 11 33 -3
76 -31 77 -49 0 -15 30 -18 30 -3 0 6 -4 10 -10 10 -5 0 -10 7 -10 15 0 8 6
15 14 15 15 0 38 -23 35 -36 -3 -20 1 -237 5 -233 3 2 7 38 9 79 5 64 8 75 24
75 17 0 18 -9 15 -120 -3 -133 -15 -200 -45 -260 -38 -76 -124 -132 -266 -172
-47 -13 -104 -29 -126 -36 -26 -7 -137 -11 -315 -11 -253 0 -280 2 -335 21
-33 11 -92 30 -131 42 -39 11 -96 37 -128 58 l-57 38 4 60 c10 135 48 198 70
115 13 -52 27 -60 27 -16 0 50 12 69 71 116 53 42 79 50 79 25 0 -8 5 -15 10
-15 6 0 10 -9 10 -20 0 -11 5 -20 10 -20 9 0 15 28 11 57 -3 21 16 15 32 -10
8 -13 13 -35 10 -50 -5 -23 -8 -25 -25 -16 -22 12 -21 12 -37 -18 -15 -29 3
-40 22 -13 11 17 16 18 20 7 3 -8 19 -22 36 -30 27 -13 29 -13 24 2 -3 9 -10
21 -15 28 -5 6 -8 28 -6 47 l3 36 28 -35 c16 -20 32 -56 37 -87 10 -49 9 -54
-12 -70 l-23 -18 32 0 c39 0 48 21 38 88 -3 26 -5 49 -4 52 5 12 -43 90 -66
108 -64 51 -187 56 -243 11 -29 -22 -54 -58 -32 -44 6 3 10 0 10 -8 0 -8 -7
-17 -15 -21 -8 -3 -15 -12 -15 -21 0 -10 -10 -15 -32 -15 -23 0 -29 3 -19 9 7
5 10 14 7 20 -10 16 -36 14 -30 -3 3 -7 -2 -41 -10 -74 -9 -33 -16 -84 -16
-113 -1 -50 -2 -53 -16 -34 -8 11 -11 21 -6 23 5 1 0 27 -10 58 -37 110 -43
240 -13 289 10 18 18 46 32 119 4 25 9 29 24 24 8 -3 6 -9 -5 -21 -10 -9 -13
-17 -7 -17 6 0 19 8 29 18 34 33 74 47 131 45 31 -2 66 2 78 8 16 9 30 9 55 0
22 -8 34 -8 36 -1 12 35 33 40 180 41 248 1 445 -2 480 -8 32 -5 33 -4 61 58
16 35 50 129 75 208 38 115 49 166 57 255 16 200 14 193 52 225 19 17 45 46
58 65 13 19 35 40 49 46 22 11 28 9 51 -19 30 -36 47 -100 55 -215 5 -65 2
-101 -16 -180 -12 -55 -29 -114 -36 -132 -18 -42 -18 -43 4 -37 19 5 39 74 49
170 l6 54 18 -42 c11 -23 41 -67 67 -98 70 -81 82 -102 82 -137 0 -23 -9 -40
-32 -61 -18 -16 -39 -41 -47 -56 -17 -32 -28 -25 -34 23 -3 19 -3 -22 -1 -91
3 -69 9 -139 14 -155 10 -35 12 -25 14 86 1 80 3 88 39 143 42 66 33 65 154
15 82 -34 123 -73 124 -121 2 -84 -2 -278 -7 -324 -5 -46 -3 -56 24 -95 54
-79 67 -136 67 -298 -1 -123 -4 -154 -22 -205 -96 -268 -302 -431 -621 -491
-119 -22 -309 -26 -328 -6 -9 8 -13 20 -11 27 3 6 1 18 -4 26 -6 10 -9 5 -9
-18 0 -62 -73 -97 -157 -75 -57 16 -74 14 -43 -2 59 -31 170 -27 196 8 9 13
21 14 70 6 179 -27 236 -32 247 -21 6 6 25 11 42 11 17 0 35 4 40 9 6 4 31 13
57 20 72 17 218 83 284 128 96 66 182 167 231 273 93 200 97 436 8 597 l-34
62 6 188 c5 184 5 189 -19 232 -29 55 -54 74 -141 109 -67 27 -69 29 -86 80
-10 29 -32 70 -50 92 -102 130 -92 106 -107 257 -8 76 -20 148 -26 160 -6 13
-9 26 -5 29 11 11 -30 80 -58 98 -42 27 -73 13 -151 -70 -39 -41 -79 -76 -90
-76 -27 -2 -83 27 -119 60 -30 28 -158 85 -220 98 -43 9 -229 17 -236 10z
m246 -52 c92 -22 188 -73 199 -106 6 -15 8 -30 5 -32 -2 -3 -30 4 -61 15 -156
52 -500 44 -640 -16 -20 -8 -22 2 -8 39 15 41 143 97 265 115 70 11 156 5 240
-15z m-525 -128 c0 -13 5 -26 11 -28 7 -2 6 -13 -2 -33 -28 -68 -19 -126 45
-300 5 -11 13 -33 19 -50 18 -49 67 -115 86 -115 10 0 20 -3 24 -6 3 -3 41 -7
84 -9 43 -2 94 -6 113 -8 50 -6 177 11 209 27 33 18 81 112 126 251 29 90 33
112 26 155 -4 27 -13 56 -20 63 -9 11 -8 17 4 27 8 7 15 21 15 31 0 24 16 24
63 -1 20 -11 44 -20 52 -20 8 0 15 -6 15 -12 -1 -12 -19 -195 -25 -248 -3 -30
-45 -181 -53 -195 -4 -5 -7 -14 -7 -20 -1 -10 -7 -26 -27 -75 -5 -14 -12 -35
-14 -47 -9 -49 -24 -73 -44 -73 -12 0 -19 -4 -16 -8 2 -4 -6 -9 -20 -10 -13
-1 -24 2 -24 8 0 5 -21 7 -47 5 -27 -3 -154 -7 -284 -9 -201 -5 -242 -3 -268
10 -17 8 -31 23 -31 31 0 9 -17 52 -39 97 -44 92 -52 115 -56 159 -1 18 -7 59
-14 92 -6 33 -13 87 -16 120 -3 33 -9 86 -12 118 -5 51 -3 57 13 57 11 1 35 9
54 20 47 26 60 25 60 -4z m580 -17 c30 -6 71 -20 92 -30 62 -31 60 -92 -7
-288 -37 -110 -68 -157 -112 -173 -53 -18 -328 -15 -376 6 -45 18 -76 72 -116
196 -56 176 -54 228 7 259 40 20 123 40 187 44 79 5 271 -3 325 -14z m-931
-866 c0 -5 -4 -17 -9 -28 -8 -18 -9 -17 -9 8 -1 15 4 27 9 27 6 0 10 -3 9 -7z"/>
<path d="M1230 1550 c0 -5 9 -10 20 -10 11 0 20 5 20 10 0 6 -9 10 -20 10 -11
0 -20 -4 -20 -10z"/>
<path d="M551 1950 c0 -19 6 -59 13 -88 8 -30 12 -60 9 -68 -3 -9 2 -14 17
-14 19 0 21 4 15 23 -4 12 -16 54 -26 92 -25 92 -27 96 -28 55z"/>
<path d="M2107 1746 c10 -13 19 -23 21 -21 7 6 -19 45 -29 45 -5 0 -2 -11 8
-24z"/>
<path d="M615 1743 c1 -10 21 -50 44 -90 23 -40 41 -77 41 -82 0 -5 7 -11 15
-15 16 -6 21 9 7 18 -5 3 -28 44 -52 91 -43 85 -62 112 -55 78z"/>
<path d="M2004 1693 c-35 -58 -69 -132 -55 -118 15 15 92 158 87 162 -2 2 -16
-18 -32 -44z"/>
<path d="M400 1643 c0 -3 11 -21 25 -39 30 -39 43 -100 38 -172 -4 -42 0 -61
20 -95 20 -35 25 -61 31 -152 4 -60 11 -111 16 -113 6 -2 10 -11 10 -20 1 -9
7 -28 15 -42 20 -35 19 -3 0 45 -9 20 -19 82 -22 138 -3 56 -12 118 -19 137
-7 19 -13 29 -13 22 -1 -7 -5 -10 -11 -7 -6 4 -7 46 -3 111 4 64 2 108 -3 112
-6 4 -23 24 -38 45 -26 34 -46 47 -46 30z"/>
<path d="M2090 1461 c19 -16 37 -27 40 -25 5 6 -52 53 -65 54 -5 0 6 -13 25
-29z"/>
<path d="M1112 1454 c-22 -13 -84 -33 -138 -44 -54 -11 -101 -26 -105 -32 -5
-7 -7 -13 -6 -14 5 -5 162 28 167 35 4 6 50 21 150 49 14 4 93 7 175 7 123 0
155 -3 175 -17 14 -9 43 -19 65 -23 39 -6 38 -5 -26 28 l-65 35 -176 0 c-168
0 -178 -1 -216 -24z"/>
<path d="M1180 1401 c-19 -3 37 -6 125 -6 88 0 147 2 130 6 -38 8 -209 8 -255
0z"/>
<path d="M1622 1396 c-24 -14 -29 -13 184 -29 19 -2 50 -17 75 -38 24 -20 56
-39 72 -43 15 -3 27 -13 27 -21 0 -8 7 -15 15 -15 33 0 -6 39 -87 88 -71 42
-94 50 -153 56 -38 4 -79 9 -90 11 -11 2 -30 -2 -43 -9z"/>
<path d="M2132 1248 c-2 -90 -8 -180 -13 -202 -8 -28 -7 -46 2 -67 14 -35 6
-103 -21 -190 -22 -68 -24 -79 -12 -79 5 0 18 21 29 48 20 46 20 47 31 22 16
-38 15 120 -2 190 -14 60 -4 310 14 342 7 12 4 29 -8 58 l-17 40 -3 -162z"/>
<path d="M758 1344 c-38 -25 -68 -49 -68 -54 0 -19 43 -10 64 13 11 12 39 37
61 55 57 47 21 38 -57 -14z"/>
<path d="M1076 1367 c3 -9 -18 -13 -88 -13 -99 -1 -143 -14 -205 -61 -26 -20
-31 -29 -22 -39 9 -12 17 -9 46 16 49 43 99 61 173 62 47 1 79 -5 118 -22 29
-12 55 -20 59 -17 14 15 -9 54 -42 70 -43 20 -46 21 -39 4z"/>
<path d="M1523 1353 c-22 -15 -30 -43 -17 -56 4 -3 25 4 48 16 32 17 58 22
116 21 65 0 83 -4 136 -33 34 -18 76 -46 93 -63 23 -22 31 -26 31 -14 0 28
-73 90 -129 110 -58 21 -164 26 -221 12 -31 -8 -33 -7 -21 8 11 13 11 16 0 15
-8 0 -24 -7 -36 -16z"/>
<path d="M716 1225 c-4 -17 -9 -38 -12 -47 -3 -10 -1 -18 5 -18 11 0 25 62 19
82 -3 7 -8 -1 -12 -17z"/>
<path d="M1640 1228 c-25 -13 -57 -41 -72 -63 -24 -34 -28 -51 -31 -120 -2
-64 1 -80 13 -82 12 -3 15 9 17 53 2 64 32 131 57 126 10 -2 14 2 10 11 -3 10
4 16 20 19 24 5 26 3 26 -32 0 -44 -26 -63 -39 -28 -7 20 -8 21 -14 2 -3 -10
-10 -34 -16 -53 l-11 -34 20 21 c11 12 26 19 34 16 8 -3 17 -1 20 5 4 6 13 8
20 5 11 -4 13 5 9 39 -10 87 32 110 104 58 61 -44 85 -79 81 -120 -4 -54 18
-48 32 8 8 34 21 57 38 71 19 14 22 19 11 20 -9 0 -28 -9 -42 -21 l-27 -20
-20 33 c-25 41 -26 56 -2 35 10 -10 22 -17 25 -17 14 0 -71 70 -97 80 -46 17
-118 12 -166 -12z"/>
<path d="M872 1148 c-30 -48 -35 -82 -22 -125 21 -65 35 -74 112 -71 96 3 109
18 16 18 -76 0 -78 0 -93 31 -19 35 -15 103 9 149 20 40 3 38 -22 -2z"/>
<path d="M1748 1168 c12 -6 21 -16 19 -22 -2 -6 2 -17 10 -24 7 -7 13 -25 14
-40 0 -15 2 -35 4 -45 2 -10 -3 -21 -11 -24 -8 -3 -14 -14 -14 -24 0 -17 -9
-19 -77 -20 l-78 -2 75 -8 c73 -8 75 -8 97 18 12 15 21 29 20 32 0 3 2 20 7
37 12 51 -34 135 -73 133 -11 0 -9 -4 7 -11z"/>
<path d="M1972 1104 c-25 -17 -30 -54 -7 -54 9 0 15 9 15 21 0 15 5 19 15 15
16 -6 19 2 7 21 -6 10 -13 9 -30 -3z"/>
<path d="M1973 1004 c4 -21 7 -52 8 -69 l1 -30 9 30 c11 34 4 91 -13 101 -8 5
-9 -4 -5 -32z"/>
<path d="M512 966 c-30 -159 -5 -293 79 -428 81 -130 113 -177 118 -173 2 3
-19 39 -46 82 -87 134 -115 200 -113 269 0 27 -2 65 -5 84 -3 19 -7 76 -9 127
-1 51 -4 95 -7 98 -3 3 -11 -24 -17 -59z"/>
<path d="M1861 998 c0 -9 -7 -18 -13 -21 -7 -2 -10 -8 -5 -12 11 -13 29 11 24
31 -4 16 -5 16 -6 2z"/>
<path d="M2510 927 c0 -14 -4 -29 -10 -32 -5 -3 -10 0 -10 7 0 9 -3 9 -10 -2
-5 -8 -10 -55 -10 -103 0 -49 -4 -86 -9 -83 -4 3 -6 -5 -4 -17 5 -29 -29 -82
-66 -101 -43 -23 -239 -76 -256 -70 -7 3 -15 18 -17 32 -2 18 -5 22 -9 12 -3
-8 -2 -29 3 -47 8 -30 10 -31 46 -26 37 5 95 20 183 47 l46 14 -5 -24 c-2 -13
-10 -29 -18 -35 -8 -6 -14 -17 -14 -23 0 -17 -113 -118 -157 -141 -21 -10 -46
-26 -55 -34 -10 -8 -18 -11 -18 -8 0 3 -28 -5 -63 -17 -81 -31 -167 -45 -150
-25 9 11 8 18 -1 31 -11 15 -16 13 -51 -23 -41 -42 -95 -76 -95 -60 0 10 24
40 84 105 40 44 43 53 21 53 -8 0 -15 -6 -15 -13 0 -7 -26 -40 -58 -74 -58
-60 -58 -60 -117 -60 -40 0 -64 5 -76 16 -12 10 -43 18 -84 21 -52 4 -76 1
-119 -17 -48 -19 -57 -27 -70 -63 -8 -23 -14 -53 -13 -66 2 -20 -3 -24 -28
-26 -16 -1 -43 4 -60 10 -27 11 -77 25 -142 38 -15 3 -20 1 -16 -8 5 -14 48
-26 178 -49 44 -8 90 -18 103 -22 26 -8 28 2 6 27 -13 14 -15 29 -10 63 8 53
32 72 109 87 64 12 136 -6 152 -38 7 -14 16 -19 25 -13 8 4 69 10 135 13 146
7 284 41 400 96 192 93 296 250 325 489 6 50 8 97 4 103 -4 8 -3 9 4 5 12 -7
29 60 18 71 -3 4 -6 -5 -6 -20z"/>
<path d="M1460 823 c0 -19 11 -43 21 -43 13 0 11 14 -6 36 -8 10 -15 14 -15 7z"/>
<path d="M1244 797 c-17 -7 -29 -18 -27 -24 7 -18 72 -16 79 2 4 8 10 12 15 9
5 -3 7 -10 4 -15 -7 -11 -6 -11 63 -14 48 -2 52 -1 52 20 0 17 -7 24 -31 29
-47 9 -120 6 -155 -7z"/>
<path d="M2132 727 c-7 -16 -12 -33 -12 -38 0 -5 -10 -29 -22 -52 -41 -78 -57
-117 -48 -117 13 0 67 95 86 152 18 56 15 101 -4 55z"/>
<path d="M1246 612 c-3 -6 -1 -14 5 -17 15 -10 25 3 12 16 -7 7 -13 7 -17 1z"/>
<path d="M1975 414 c-71 -103 -83 -133 -21 -55 39 49 102 151 93 151 -3 0 -35
-43 -72 -96z"/>
<path d="M580 413 c0 -12 85 -93 141 -134 25 -19 75 -58 109 -87 35 -30 78
-61 97 -70 57 -27 51 -31 -87 -56 -41 -7 -89 -11 -107 -9 -21 3 -40 -1 -57
-13 -33 -24 -34 -40 -2 -18 32 20 71 15 70 -9 -1 -9 2 -17 7 -17 5 0 9 4 9 8
0 8 53 19 170 37 49 8 130 35 130 44 0 4 -22 13 -48 20 -34 8 -74 33 -136 82
-48 39 -90 77 -92 84 -3 8 -12 11 -20 8 -8 -3 -32 8 -54 26 -21 17 -42 31 -47
31 -4 0 -25 19 -45 41 -21 23 -38 37 -38 32z"/>
<path d="M1883 393 c-17 -6 -16 -23 1 -23 8 0 16 7 20 15 6 15 1 17 -21 8z"/>
<path d="M850 273 c0 -5 11 -20 25 -33 14 -13 25 -21 25 -17 0 3 -11 18 -25
33 -14 15 -25 23 -25 17z"/>
</g>
</svg>
