<?xml version="1.0" standalone="no"?>

<svg version="1.0" xmlns="http://www.w3.org/2000/svg"
 width="332.000000pt" height="275.000000pt" viewBox="0 0 332.000000 275.000000"
 preserveAspectRatio="xMidYMid meet">
<metadata>
Created by potrace 1.16, written by Peter Selinger 2001-2019
</metadata>
<g transform="translate(0.000000,275.000000) scale(0.100000,-0.100000)"
fill="#c0816f" stroke="none">
<path d="M1497 2444 c-96 -17 -205 -59 -300 -114 -100 -59 -258 -220 -316 -323 -165 -292 -161 -641 10 -930 58 -99 210 -248 316 -310 258 -154 595 -168 856 -36 339 170 534 497 513 859 -14 254 -109 458 -292 629 -209 196 -496 278 -787 225z m557 -565 c32 -15 60 -72 51 -107 -4 -17 -98 -119 -248 -270 -254 -254 -278 -272 -335 -251 -40 15 -310 287 -322 325 -20 60 30 124 98 124 31 0 47 -12 146 -110 l111 -109 206 204 c180 180 209 205 237 205 17 0 42 -5 56 -11z"/>
</g>
</svg>
